<?xml version="1.0" encoding="utf-8"?>
<!-- Generator: Adobe Illustrator 26.3.1, SVG Export Plug-In . SVG Version: 6.00 Build 0)  -->
<svg version="1.1" id="Camada_1" xmlns="http://www.w3.org/2000/svg" xmlns:xlink="http://www.w3.org/1999/xlink" x="0px" y="0px"
	 viewBox="0 0 240 55" style="enable-background:new 0 0 240 55;" xml:space="preserve">
<style type="text/css">
	.st0{fill-rule:evenodd;clip-rule:evenodd;fill:#9B6F4F;}
	.st1{fill:#212217;}
</style>
<g>
	<g>
		<path class="st0" d="M56.88,16.12l0.52,0.21l0.41-0.09l-0.17-0.78l1.26-0.4l1.42,0.65l1.03-0.22c-0.35-0.67-0.75-1.33-1.18-1.95
			l-0.14,0.03L59.21,13l-0.37-1.14l-0.61,0.51l-0.06,1.5l-1.19-0.83l-0.24-0.98l-1.12-0.6l-0.42-0.28l-1.09,0.23l0.55,0.9l1.47,0.46
			l0.28,0.19l-0.26,0.21l0.18,0.77l-0.58,0.4l-0.57,0l-0.44-0.41l0.9-0.15l0.17-0.37l-2.25-0.92l-0.27-0.52l-0.65,0.89l-0.85,0.01
			l-0.89,1.87l-0.11,0.68l-0.78,0.23l-1.16,0.26l-0.78-0.18l-0.5-1.35l0.12-0.71l1.13-0.52l1.35-0.01l0.01-0.75l-0.58-0.02
			l-0.04-1.15l1.26-0.48l0.64-1.49l0.91-0.36l0.87-0.05l0.32-0.07L53.12,7.6l-0.95,0.64l-0.56-0.83L51,7.45l-0.25-0.59l0.38-0.64
			l0.71-0.48C46.64,2.72,40.35,1.54,34,2.89c-5.09,1.08-9.49,3.64-12.85,7.11l0.69-0.15l0.62,0.19l1.13,0.01l0.16,0.4l1.73-0.3
			l-0.35-0.5l-1.52,0.28l0.28-0.41l-0.21-0.38l-1.37,0.29l1.26-1.43L25,7.71l0.87,0.78l1.13-0.17l0.54-0.8l0.56,0.15l-0.73,1.1
			c0,0-1.28,0.29-1.21,0.28c0.06-0.01,0.29,0.85,0.29,0.85l1.54-0.37l0.07-0.45l1.06-0.29L29.1,8.14l-0.65,0.03l0.09-0.61l0.45-0.25
			l1.7-0.27l-0.74,1.04l0.28,0.61l0.99-0.05l-0.3-1.16l0.82-0.68l1.6-0.54l2.6,0.55l0.19,0.9l0.79,0.03l-0.22,0.8l-1.07,0.23
			l-0.15,0.88L32.9,9.57l1.71-1.44l-0.87-0.46l-1.61,0.57l-0.11,0.18l-0.01,0L32,8.46l-0.38,0.59l-0.78,0.23l0.15,0.38l0.3,0.06
			l0.02,0.13l-0.62,0.23l0.02,0.38l-0.6,0.16l-0.26-0.71l-1.03,0.58l-1.98,1.78l0.45,0.88l0.72,0.28l1.29-0.1l0.3,1.42l0.57-0.21
			l0.3-1.24l1.25-0.7l-0.37-1.72l0.63-0.72l1.88,0.04l0.11,1.16l0.48-0.1l1.19-0.92l0.38,1.47l1.09,0.38l0.15,0.9l-0.85,0.51
			l0.13,0.27l1.22,0.27l0.11,0.61l-0.31,0.1c0-0.01-0.02-0.02-0.02-0.02l-1.49-0.13l-0.16-0.44l0.36-0.38l-0.09-0.41l-0.47-0.02
			l-0.02,0.41l-0.74,0.28l-0.08-0.01l0.01,0.04l-0.27,0.09l-0.31-0.39l-0.28-0.06l-0.55,0.12l-0.2,0.27l0.1,0.46l0.5,0.05l0.47-0.03
			l-0.1,0.08l-0.32,0.56l-0.24-0.19l-0.43-0.02l-0.9,1.29l0.17,0.09l-1.45,1.27l-1.22,1.95l0.04,0.74l-1.33,1.36l-0.62,0.94
			l0.43,1.54l-1.19-0.27l-0.18-0.91l-2.97,0.63l-1.38,1.11l-0.4,1.38l-0.06,1.03l0.64,0.86l1.24-0.11l1.66-1.7l0.3,0.61l-0.35,1.24
			l1.53-0.07l0.63,2.25l2.08-0.09l0.96-1.75l1.63-0.02l0.71,0.64l1.47-0.4l-0.05-0.45l0.91,0.22l1.23,1.25l1.6-0.32l0.81,0.91
			l0.35,1.23l1.91,0.3l2.23-0.45l0.88,0.93l1.05,0.1l0,0.93l-0.79,1.6l0.34,3.11l-0.81,0.98l-1.46,0.27l-0.3,0.94l0.7,1.49
			l-1.15,2.36l-0.31,1.03l-1.34,1.05l-0.95,0.36l0.05,0.43l0.73,0.05l0.01,0.47l-0.49,0.73l0.48,0.4L41,48.45l0.08,0.58L41,49.65
			l0.03,0.47l1.3,0.69l-0.04,0.51l-1.5,0.3l-1.77-0.99l-1.6-1.79l-0.26-2.01l-1.14-0.99l-0.06-2.08l-0.56-0.04l-0.92-4.32
			c0,0-1.71-0.79-1.79-0.77c-0.07,0.02-0.81-0.03-0.81-0.03l-0.32-0.79l-2.41-1.98l0-0.9l-0.23-1.41l1.13-1.2l-0.53-1.54l-1.95,0.27
			l-1.88-1.4l-1.13-0.07l-0.72,0.02l-0.05-0.64l-0.9,0.06l0.07,0.35l-2.32-0.09l-1.17-1.16l0.21-0.74l-1.82-1.74l-0.55-1.44
			l-0.57,0.12l0.5,1.4l1.28,1.28l0.02,0.61l-0.85,0.05l-1.37-1.5l-0.42-2l-1.15-0.28l-0.22-1.03c-0.6,3.18-0.59,6.52,0.12,9.88
			c2.89,13.59,16.25,22.26,29.84,19.37c7.8-1.66,13.98-6.76,17.28-13.38l-0.23-1.08l-1.24-1.09l-0.43-2.02l-0.88-0.58l-0.24-0.82
			l0.55-1.98l-2.44-2.75l-0.25-2.17l-1.62,0.18l-0.72-0.46l-1.06,0.22l-0.44,0.62l-1.89,0.4l-0.03,0.19l-1.05,0.22l-3-2.23
			l-0.43-2.14l0.36-0.23l-0.02-0.84l-0.57,0.12l-0.41-0.82l2.35-2.6l-0.3-1.43l1.21-1.05l0.57-0.07l1.12-0.24l0.78-0.66l2.79-0.82
			l0.31,1.44L56.88,16.12z M47.89,8.62l0.16-0.4l0.79-0.35l0.43,0.96l0.59,0.62l0.36,0.27l0.58,0.1l-0.38,0.7l-0.95,0.3l-0.74,0.16
			l-0.1-0.89l0.58-0.26l-0.14-0.39l-0.64-0.23l-0.45-0.18L47.89,8.62z M46.85,10.49l0.34-0.91l0.64-0.3l0.54,0.11l0.06,0.54
			l-0.87,0.96l-0.6,0.13L46.85,10.49z M33.81,16.51l-0.52,0.15l-0.06-0.37l0.17-0.35l0.37,0.18L33.81,16.51z M35.51,15.47
			l-0.35,0.11l0,0.37l-0.24,0.23l-0.44,0.13c-0.03-0.09-0.06-0.18-0.06-0.18l-0.17,0.04l-0.08-0.37l0.73-0.15l0.07-0.42l0.29-0.06
			l0.33,0L35.51,15.47z"/>
	</g>
	<g>
		<g>
			<path class="st1" d="M42.77,15c-0.05,0.14-0.13,0.1-0.21,0.04c-0.25-0.18-0.49-0.38-0.74-0.56c-0.08-0.06-0.2-0.1-0.3-0.1
				c-0.3-0.01-0.61,0.01-0.91,0.01c-0.22,0-0.38,0.09-0.5,0.26c-0.12,0.17-0.22,0.35-0.3,0.55l2.69,0.7
				C42.96,15.71,43.09,15.35,42.77,15z"/>
			<path class="st1" d="M54.25,34.9c0,0-3.44-4.6-9.2-11.68l0.3-0.2c0,0,2.59,2.82,9.23,11.66L54.25,34.9z"/>
			<path class="st1" d="M26.12,39.53c0,0,2.81-4.38,7.35-12.3l0.3,0.21c0,0-1.46,2.95-7.32,12.32L26.12,39.53z"/>
			<g>
				<path class="st1" d="M46.54,23.01c-0.28-0.26-0.6-0.49-0.92-0.66c-0.52-0.28-0.71-0.11-1.24,0.12
					c-0.15,0.07-0.61,0.02-0.81,0.05c-0.34,0.04-0.63,0.01-0.96,0.07c-0.11,0.02-0.22,0.09-0.33,0.15
					c-0.11,0.07-0.22,0.13-0.36,0.06c-0.18-0.09-0.35-0.22-0.52-0.33c-0.03-0.02-0.06-0.05-0.07-0.08
					c-0.04-0.17-0.04-0.32-0.07-0.49c-0.14-0.8-0.33-1.59-0.56-2.37c-0.05-0.18,0.02-0.3,0.15-0.41c0,0.15-0.01,0.31-0.02,0.46
					c0.02-0.07,0.04-0.14,0.05-0.21c0.01-0.07,0-0.15,0.01-0.22c0.01-0.07,0.03-0.13,0.08-0.18c0.1-0.11,0.13-0.17,0.09-0.32
					c0-0.02,0-0.07,0.02-0.09c0.07-0.11,0.19-0.14,0.31-0.16c0.23-0.03,0.31-0.09,0.4-0.3c0.02-0.03,0.04-0.08,0.07-0.12
					c0.25-0.36,0.44-0.72,0.55-1.14c0.01-0.05,0.03-0.12,0.05-0.16c0.08-0.13,0.12-0.25,0.11-0.4s0.01-0.28-0.03-0.43
					c-0.22-0.69-0.56-1.23-1.34-1.3c-0.73-0.07-1.16,0.29-1.47,0.93c-0.16,0.33-0.07,0.77-0.15,1.13c-0.16-0.09-0.33-0.2-0.49-0.31
					c-0.12-0.08-0.23-0.22-0.34-0.28c-0.17-0.1-0.24-0.1-0.36,0.06c-0.21,0.31-0.38,0.68-0.59,1c-0.06,0.09-0.18,0.13-0.26,0.19
					c-0.17,0.11-0.23,0.19-0.24,0.4c-0.01,0.08,0.08,0.21,0.16,0.25c-0.35,0.36-0.55,0.64-0.95,1c-0.63,0.57-1.37,1.17-2.02,1.8
					c-0.16,0.16-0.34,0.42-0.45,0.66c-0.14,0.3-0.29,0.63-0.45,0.93c-0.23,0.42-0.49,0.88-0.7,1.3c-0.17,0.34-0.26,0.71-0.3,1.07
					c-0.1,0.78-0.26,1.52-0.53,2.23c-0.07,0.19-0.15,0.34-0.14,0.5c0.02,0.35,0.12,0.55,0.29,0.83c0.01,0.01,0.01,0.05,0.02,0.06
					c0.07,0.08,0.14,0.17,0.24,0.21c0.1,0.03,0.15-0.07,0.24-0.07c0.08,0,0.1,0.1,0.19,0.08c0.08-0.02,0.14-0.1,0.17-0.18
					c0.07-0.16,0.1-0.35,0.16-0.5c0.06-0.15,0.13-0.26,0.2-0.41c0.02,0.01,0.04,0.01,0.06,0.02c-0.06,0.31-0.05,0.54,0.14,0.8
					c0.06-0.27,0.16-0.56,0.22-0.83c0.06-0.26,0.05-0.48,0.03-0.74c0-0.06-0.04-0.13-0.05-0.19c0.14-0.07,0.17-0.18,0.18-0.32
					c0.01-0.27,0.13-0.48,0.29-0.68c0.16-0.2,0.38-0.4,0.5-0.59c0.24-0.37,0.2-0.61,0.1-1c-0.04-0.14-0.04-0.19,0.08-0.29
					c0.25-0.21,0.53-0.4,0.8-0.61c0.02-0.02,0.06-0.03,0.09-0.04c-0.03,0.19-0.07,0.42-0.13,0.6c-0.08,0.29-0.21,0.6-0.34,0.85
					c-0.13,0.25-0.23,0.5-0.28,0.75c-0.05,0.25-0.04,0.49-0.06,0.71c-0.02,0.22-0.04,0.38-0.02,0.57c0.02,0.27,0.08,0.5,0.12,0.76
					c0.01,0.04-0.02,0.09-0.04,0.12c-0.08,0.12-0.12,0.22-0.04,0.34c0.13,0.22,0.31,0.4,0.46,0.6c0.04,0.05,0.08,0.1,0.08,0.15
					c0.01,0.63,0.02,1.24-0.05,1.88c-0.02,0.23-0.13,0.45-0.18,0.69c-0.13,0.52-0.33,1.01-0.57,1.49c-0.06,0.11-0.16,0.21-0.24,0.32
					c-0.19,0.3-0.4,0.6-0.59,0.9c-0.25,0.39-0.49,0.79-0.67,1.21c-0.34,0.8-0.6,1.59-0.98,2.37c-0.13,0.26-0.31,0.53-0.41,0.82
					c-0.25,0.72-0.41,1.45-0.46,2.21c-0.01,0.18,0.08,0.31,0.28,0.33c0.84,0.09,1.68,0.17,2.52,0.19c0.39,0.01,0.78-0.09,1.16-0.18
					c0.11-0.03,0.24-0.11,0.25-0.24c0.02-0.27-0.09-0.44-0.34-0.55c-0.41-0.17-0.83-0.31-1.2-0.57c-0.16-0.11-0.2-0.27-0.25-0.44
					c0.15-0.11,0.27-0.19,0.35-0.37c0.28-0.65,0.53-1.3,0.87-1.93c0.07-0.13,0.14-0.25,0.21-0.39c0.17-0.38,0.31-0.77,0.52-1.15
					c0.11-0.21,0.29-0.37,0.48-0.54c0.81-0.71,1.46-1.47,1.95-2.44c0.22-0.43,0.38-0.91,0.62-1.35c0.23,0.17,0.48,0.34,0.74,0.46
					c0.2,0.1,0.43,0.17,0.62,0.26c0.41,0.18,0.62,0.43,0.81,0.82c0.03,0.06,0.04,0.11,0.08,0.15c0.12,0.14,0.19,0.25,0.22,0.43
					c0.06,0.39,0.1,0.79,0.12,1.19c0.04,0.53,0.03,1.1,0.04,1.62c0,0.31,0.07,0.53,0.19,0.81c0.06,0.13,0.02,0.21-0.07,0.32
					c-0.04,0.05-0.12,0.08-0.15,0.12c-0.1,0.12-0.13,0.2-0.07,0.35c0.03,0.07,0.06,0.16,0.05,0.24c-0.05,0.31-0.15,0.65-0.15,0.95
					c-0.01,0.44,0.17,0.55,0.55,0.7c0.04,0.01,0.1,0,0.15,0c1.12-0.04,2.26-0.07,3.38-0.13c0.18-0.01,0.37-0.03,0.5-0.14
					c0.23-0.18,0.22-0.37,0-0.56c-0.12-0.1-0.29-0.12-0.45-0.16c-0.17-0.03-0.39,0.02-0.56-0.06c-0.46-0.21-0.82-0.48-1.14-0.88
					c-0.03-0.04-0.02-0.11-0.01-0.16c0.05-0.31,0.02-0.5-0.19-0.74c-0.1-0.11-0.13-0.18-0.08-0.34c0.06-0.2,0.09-0.43,0.03-0.64
					c-0.04-0.14-0.11-0.28-0.14-0.41c-0.03-0.13-0.06-0.26-0.05-0.39c0.05-0.6,0.16-1.24,0.16-1.83c0-0.59-0.1-1.08-0.28-1.62
					c-0.02-0.06-0.01-0.16,0-0.21c0.08-0.32,0.08-0.69-0.06-0.95c-0.22-0.42-0.53-0.71-0.79-1.07c-0.16-0.22-0.31-0.39-0.45-0.6
					c-0.03-0.04-0.06-0.07-0.1-0.11c-0.19-0.17-0.37-0.35-0.52-0.55c-0.07-0.11-0.16-0.21-0.23-0.3c-0.07-0.1-0.11-0.16-0.14-0.27
					c-0.08-0.29-0.19-0.49-0.45-0.66c0.01-0.03,0.07-0.07,0.09-0.08c0.23-0.1,0.44-0.24,0.58-0.44c0.24-0.34,0.26-0.68,0.31-1.06
					c0.03-0.24-0.02-0.25,0.29-0.28c0.53-0.05,1.2-0.13,1.75-0.28c0.12-0.03,0.24-0.07,0.36-0.12c0-0.01,0-0.02-0.01-0.03
					c0.54-0.06,0.86-0.2,1.46-0.37c0.06-0.02,0.77-0.01,0.84,0.32c0.02,0.09,0.22,0.12,0.32,0.11c0.1-0.01,0.21-0.07,0.26-0.18
					C46.83,23.59,46.82,23.27,46.54,23.01z"/>
			</g>
			<path class="st1" d="M33,25.57c0.25,0.1,0.5,0.2,0.76,0.3c-0.08,0.2-0.15,0.38-0.23,0.59c-0.25-0.1-0.53-0.16-0.76-0.32
				c-0.22-0.15-0.14-0.75,0.12-1.07c-0.01-0.01-0.01-0.02-0.02-0.02c-0.38-0.03-0.62-0.28-0.75-0.69c-0.03-0.09-0.06-0.17-0.1-0.26
				c-0.19-0.42-0.18-0.87,0.07-1.4c0.23-0.49,0.42-1.01,0.65-1.5c0.1-0.21,0.27-0.37,0.4-0.56c0.05-0.06,0.08-0.14,0.12-0.21
				c0.36-0.84,0.71-1.68,1.07-2.52c0.32-0.74,0.77-1.22,1.4-1.32c0.1-0.02,0.2-0.04,0.3-0.06c0.1-0.02,0.2-0.01,0.28-0.16
				c0.03-0.05,0.15-0.07,0.22-0.07c0.08,0,0.14,0,0.19-0.13c0.14-0.35,0.43-0.54,0.69-0.49c0.56,0.11,0.68,0.65,0.5,1.31
				c-0.05,0.19,0,0.18,0.11,0.17c0.26-0.01,0.53-0.05,0.78-0.01c0.55,0.08,0.78,0.47,0.74,1.21c-0.03,0.51-0.16,1.03-0.32,1.53
				c-0.19,0.58-0.42,1.16-0.62,1.74c-0.06,0.16-0.11,0.33-0.13,0.49c-0.07,0.44-0.23,0.84-0.45,1.23c-0.02,0.04-0.04,0.07-0.05,0.11
				c-0.01,0.02,0,0.04-0.01,0.07c0.19-0.07,0.18,0.08,0.14,0.24c-0.04,0.14-0.09,0.29-0.16,0.42c-0.04,0.08-0.13,0.13-0.21,0.17
				c-0.12,0.67-0.45,0.96-0.99,0.91c0.07,0.29,0.12,0.51,0.18,0.73c0.07,0.27-0.02,0.57-0.24,0.76c-0.04,0.03-0.09,0.04-0.13,0.04
				c-0.03,0-0.07-0.02-0.1-0.03c-0.4-0.09-0.36-0.05-0.14-0.6c0.05,0,0.11,0,0.19,0.01c-0.1-0.31-0.1-0.61,0.11-0.96
				c0.2-0.33,0.41-0.53,0.69-0.54c0.04-0.21,0.08-0.39,0.12-0.6c-0.32,0.04-0.42-0.39-0.68-0.52c-0.17,0.32-0.32,0.62-0.48,0.91
				c-0.35,0.66-0.57,0.79-1.1,0.7c-0.39-0.07-0.78-0.11-1.17-0.16c-0.1-0.01-0.2,0-0.25,0.19c-0.05,0.16-0.15,0.15-0.24,0.11
				C33.29,25.25,33.16,25.32,33,25.57z M38.14,17.66c0.2,0.25,0.21,0.55,0.14,0.88c-0.04,0.21-0.08,0.42-0.16,0.61
				c-0.26,0.68-0.55,1.36-0.81,2.04c-0.25,0.63-0.53,1.27-0.52,1.94c0,0.06,0,0.14,0.03,0.16c0.17,0.15,0.34,0.31,0.53,0.42
				c0.27,0.16,0.44,0.01,0.5-0.4c0.11-0.87,0.33-1.74,0.57-2.61c0.19-0.69,0.36-1.39,0.51-2.09c0.06-0.28,0.06-0.57,0.06-0.84
				c-0.01-0.3-0.15-0.4-0.39-0.32C38.46,17.5,38.32,17.58,38.14,17.66z M36.97,16.37c0.19,0.04,0.28,0.19,0.31,0.43
				c0.02,0.19,0.14,0.25,0.28,0.27c0.03,0.01,0.11-0.05,0.12-0.08c0.06-0.2,0.1-0.41,0.14-0.61c0.01-0.05-0.02-0.12-0.05-0.13
				c-0.22-0.1-0.44-0.18-0.67-0.28C37.04,16.13,37.01,16.24,36.97,16.37z"/>
		</g>
		<g>
			<path class="st1" d="M26.55,18.09c-0.04,0.11-0.1,0.07-0.16,0.03c-0.18-0.14-0.36-0.28-0.55-0.41c-0.06-0.04-0.15-0.07-0.22-0.08
				c-0.22-0.01-0.45,0.01-0.67,0c-0.16,0-0.28,0.07-0.37,0.19c-0.09,0.13-0.16,0.26-0.22,0.4l1.99,0.51
				C26.69,18.61,26.78,18.35,26.55,18.09z"/>
			<path class="st1" d="M35.03,32.78c0,0-2.54-3.4-6.8-8.62l0.22-0.15c0,0,1.91,2.09,6.82,8.61L35.03,32.78z"/>
			<path class="st1" d="M14.25,36.2c0,0,2.08-3.23,5.43-9.08l0.22,0.15c0,0-1.08,2.18-5.41,9.09L14.25,36.2z"/>
			<g>
				<path class="st1" d="M29.33,24c-0.21-0.19-0.44-0.36-0.68-0.49c-0.38-0.21-0.52-0.08-0.92,0.09c-0.11,0.05-0.45,0.02-0.6,0.03
					c-0.25,0.03-0.46,0.01-0.71,0.05c-0.08,0.01-0.16,0.06-0.24,0.11c-0.08,0.05-0.16,0.09-0.26,0.04
					c-0.13-0.06-0.26-0.16-0.38-0.25c-0.02-0.01-0.04-0.04-0.05-0.06c-0.03-0.12-0.03-0.24-0.05-0.36c-0.1-0.59-0.24-1.17-0.41-1.75
					c-0.04-0.13,0.01-0.22,0.11-0.31c0,0.11-0.01,0.23-0.01,0.34c0.01-0.05,0.03-0.1,0.04-0.16c0-0.05,0-0.11,0.01-0.16
					c0.01-0.05,0.02-0.1,0.06-0.13c0.08-0.08,0.1-0.12,0.07-0.24c0-0.01,0-0.05,0.01-0.07c0.05-0.08,0.14-0.11,0.23-0.12
					c0.17-0.02,0.23-0.07,0.3-0.22c0.01-0.03,0.03-0.06,0.05-0.09c0.18-0.26,0.33-0.53,0.41-0.84c0.01-0.04,0.02-0.09,0.04-0.12
					c0.06-0.1,0.09-0.18,0.08-0.29c-0.01-0.11,0.01-0.21-0.03-0.32c-0.17-0.51-0.41-0.9-0.99-0.96c-0.54-0.05-0.85,0.21-1.09,0.69
					c-0.12,0.24-0.06,0.57-0.11,0.83c-0.12-0.07-0.25-0.15-0.36-0.23c-0.09-0.06-0.17-0.16-0.25-0.21
					c-0.13-0.07-0.18-0.08-0.26,0.05c-0.16,0.23-0.28,0.5-0.43,0.74c-0.04,0.07-0.13,0.1-0.19,0.14c-0.12,0.08-0.17,0.14-0.18,0.3
					c0,0.06,0.06,0.15,0.12,0.19c-0.26,0.26-0.41,0.47-0.7,0.74c-0.47,0.42-1.01,0.86-1.49,1.33c-0.12,0.12-0.25,0.31-0.33,0.49
					c-0.1,0.22-0.21,0.47-0.33,0.69c-0.17,0.31-0.36,0.65-0.52,0.96c-0.13,0.25-0.19,0.53-0.22,0.79c-0.07,0.58-0.19,1.12-0.39,1.65
					c-0.05,0.14-0.11,0.25-0.1,0.37c0.02,0.26,0.09,0.41,0.21,0.62c0.01,0.01,0.01,0.03,0.02,0.05c0.05,0.06,0.1,0.13,0.17,0.15
					c0.07,0.02,0.11-0.05,0.17-0.05c0.06,0,0.08,0.07,0.14,0.06c0.06-0.02,0.1-0.08,0.13-0.13c0.05-0.12,0.07-0.26,0.12-0.37
					c0.04-0.11,0.1-0.2,0.15-0.3c0.02,0.01,0.03,0.01,0.05,0.01c-0.05,0.23-0.04,0.4,0.1,0.59c0.05-0.2,0.12-0.42,0.16-0.61
					c0.05-0.19,0.04-0.35,0.03-0.54c0-0.05-0.03-0.1-0.03-0.14c0.1-0.05,0.12-0.14,0.13-0.24c0.01-0.2,0.1-0.36,0.21-0.5
					c0.12-0.14,0.28-0.3,0.37-0.43c0.18-0.28,0.15-0.45,0.07-0.74c-0.03-0.1-0.03-0.14,0.06-0.21c0.19-0.16,0.39-0.3,0.59-0.45
					c0.01-0.01,0.05-0.02,0.07-0.03c-0.02,0.14-0.05,0.31-0.09,0.45c-0.06,0.22-0.15,0.44-0.25,0.63c-0.1,0.19-0.17,0.37-0.2,0.56
					c-0.03,0.18-0.03,0.36-0.04,0.52c-0.01,0.16-0.03,0.28-0.02,0.42c0.01,0.2,0.06,0.37,0.09,0.56c0,0.03-0.02,0.07-0.03,0.09
					c-0.06,0.09-0.09,0.16-0.03,0.25c0.1,0.16,0.23,0.29,0.34,0.44c0.03,0.04,0.06,0.07,0.06,0.11c0,0.47,0.01,0.92-0.03,1.38
					c-0.02,0.17-0.09,0.34-0.14,0.51c-0.1,0.38-0.24,0.74-0.42,1.1c-0.04,0.08-0.12,0.15-0.17,0.23c-0.14,0.22-0.3,0.44-0.44,0.66
					c-0.18,0.29-0.36,0.58-0.5,0.89c-0.25,0.59-0.45,1.17-0.73,1.75c-0.09,0.19-0.23,0.39-0.3,0.6c-0.18,0.53-0.3,1.07-0.34,1.63
					c-0.01,0.13,0.06,0.23,0.2,0.24c0.62,0.07,1.24,0.12,1.86,0.14c0.29,0.01,0.57-0.06,0.86-0.13c0.08-0.02,0.17-0.08,0.18-0.18
					c0.02-0.2-0.07-0.33-0.25-0.41c-0.3-0.13-0.61-0.23-0.89-0.42c-0.12-0.08-0.15-0.2-0.18-0.33c0.11-0.08,0.2-0.14,0.26-0.27
					c0.21-0.48,0.39-0.96,0.64-1.42c0.05-0.09,0.11-0.19,0.15-0.29c0.12-0.28,0.23-0.57,0.39-0.85c0.08-0.15,0.22-0.27,0.35-0.4
					c0.6-0.53,1.08-1.09,1.44-1.8c0.16-0.32,0.28-0.68,0.45-0.99c0.17,0.12,0.36,0.25,0.55,0.34c0.15,0.07,0.32,0.13,0.46,0.19
					c0.3,0.13,0.46,0.32,0.59,0.61c0.02,0.04,0.03,0.08,0.06,0.11c0.09,0.1,0.14,0.18,0.16,0.32c0.04,0.29,0.07,0.58,0.09,0.88
					c0.03,0.39,0.02,0.81,0.03,1.2c0,0.23,0.05,0.39,0.14,0.6c0.04,0.1,0.01,0.16-0.05,0.24c-0.03,0.03-0.09,0.06-0.11,0.09
					c-0.08,0.09-0.09,0.15-0.05,0.26c0.02,0.05,0.05,0.12,0.04,0.18c-0.03,0.23-0.11,0.48-0.11,0.7c0,0.32,0.12,0.41,0.4,0.51
					c0.03,0.01,0.07,0,0.11,0c0.83-0.03,1.67-0.05,2.49-0.1c0.13-0.01,0.27-0.02,0.37-0.1c0.17-0.13,0.16-0.27,0-0.41
					c-0.09-0.07-0.21-0.09-0.34-0.12c-0.12-0.03-0.28,0.01-0.41-0.04c-0.34-0.15-0.6-0.36-0.84-0.65c-0.02-0.03-0.01-0.08-0.01-0.12
					c0.04-0.23,0.02-0.37-0.14-0.55c-0.07-0.08-0.09-0.13-0.06-0.25c0.05-0.15,0.07-0.32,0.02-0.47c-0.03-0.1-0.08-0.2-0.11-0.3
					c-0.02-0.1-0.04-0.19-0.04-0.29c0.04-0.44,0.12-0.91,0.12-1.35c0-0.43-0.07-0.8-0.2-1.2c-0.02-0.05-0.01-0.12,0-0.16
					c0.06-0.23,0.06-0.51-0.04-0.7c-0.16-0.31-0.39-0.52-0.58-0.79c-0.12-0.16-0.23-0.29-0.33-0.45c-0.02-0.03-0.05-0.06-0.08-0.08
					c-0.14-0.12-0.28-0.26-0.38-0.41c-0.05-0.08-0.12-0.15-0.17-0.22c-0.05-0.07-0.08-0.12-0.1-0.2c-0.06-0.22-0.14-0.36-0.33-0.49
					c0.01-0.02,0.05-0.05,0.07-0.06c0.17-0.07,0.32-0.18,0.43-0.32c0.18-0.25,0.19-0.5,0.23-0.79c0.02-0.18-0.01-0.19,0.22-0.21
					c0.39-0.04,0.89-0.09,1.29-0.21c0.09-0.02,0.18-0.06,0.27-0.09c0-0.01,0-0.01,0-0.02c0.4-0.04,0.64-0.14,1.08-0.27
					c0.04-0.01,0.57-0.01,0.62,0.23c0.01,0.06,0.16,0.09,0.23,0.08c0.07-0.01,0.16-0.05,0.19-0.13C29.54,24.43,29.54,24.19,29.33,24
					z"/>
			</g>
			<path class="st1" d="M19.33,25.89c0.19,0.07,0.37,0.15,0.56,0.23c-0.06,0.15-0.11,0.28-0.17,0.43c-0.19-0.08-0.39-0.12-0.56-0.23
				c-0.17-0.11-0.1-0.55,0.09-0.79c0-0.01-0.01-0.02-0.01-0.02c-0.28-0.02-0.46-0.2-0.56-0.51c-0.02-0.07-0.05-0.13-0.07-0.19
				c-0.14-0.31-0.13-0.64,0.05-1.03c0.17-0.36,0.31-0.74,0.48-1.11c0.07-0.15,0.2-0.27,0.3-0.41c0.03-0.05,0.06-0.1,0.09-0.16
				c0.26-0.62,0.53-1.24,0.79-1.86c0.24-0.55,0.57-0.9,1.04-0.97c0.07-0.01,0.15-0.03,0.22-0.04c0.07-0.01,0.15-0.01,0.21-0.12
				c0.02-0.04,0.11-0.05,0.16-0.05c0.06,0,0.1,0,0.14-0.1c0.11-0.26,0.32-0.4,0.51-0.36c0.41,0.08,0.5,0.48,0.37,0.97
				c-0.04,0.14,0,0.13,0.08,0.13c0.19-0.01,0.39-0.03,0.57-0.01c0.41,0.06,0.58,0.35,0.54,0.89c-0.02,0.38-0.12,0.76-0.24,1.13
				c-0.14,0.43-0.31,0.85-0.46,1.28c-0.04,0.12-0.08,0.24-0.1,0.37c-0.05,0.32-0.17,0.62-0.33,0.91c-0.01,0.03-0.03,0.05-0.04,0.08
				c-0.01,0.01,0,0.03-0.01,0.05c0.14-0.05,0.13,0.06,0.1,0.18c-0.03,0.11-0.07,0.21-0.12,0.31c-0.03,0.06-0.1,0.09-0.16,0.12
				c-0.09,0.5-0.33,0.71-0.73,0.67c0.05,0.21,0.09,0.38,0.13,0.54c0.06,0.2-0.01,0.42-0.18,0.56c-0.03,0.02-0.07,0.03-0.1,0.03
				c-0.03,0-0.05-0.01-0.07-0.02c-0.3-0.07-0.26-0.03-0.1-0.45c0.04,0,0.08,0,0.14,0.01c-0.07-0.23-0.08-0.45,0.08-0.71
				c0.14-0.24,0.31-0.39,0.51-0.4c0.03-0.16,0.06-0.29,0.09-0.44c-0.24,0.03-0.31-0.29-0.5-0.38c-0.12,0.24-0.24,0.46-0.35,0.67
				c-0.26,0.48-0.42,0.58-0.81,0.52c-0.29-0.05-0.58-0.08-0.87-0.12c-0.08-0.01-0.15,0-0.19,0.14c-0.04,0.12-0.11,0.11-0.18,0.08
				C19.54,25.66,19.45,25.7,19.33,25.89z M23.13,20.05c0.15,0.18,0.15,0.41,0.1,0.65c-0.03,0.15-0.06,0.31-0.12,0.45
				c-0.19,0.5-0.4,1-0.6,1.51c-0.18,0.47-0.39,0.94-0.38,1.43c0,0.04,0,0.1,0.02,0.12c0.13,0.11,0.25,0.23,0.39,0.31
				c0.2,0.12,0.33,0.01,0.37-0.3c0.08-0.65,0.25-1.28,0.42-1.93c0.14-0.51,0.27-1.03,0.38-1.54c0.04-0.21,0.05-0.42,0.04-0.62
				c-0.01-0.22-0.11-0.29-0.29-0.24C23.36,19.93,23.26,19.99,23.13,20.05z M22.26,19.1c0.14,0.03,0.21,0.14,0.23,0.32
				c0.01,0.14,0.11,0.18,0.21,0.2c0.02,0,0.08-0.04,0.09-0.06c0.04-0.15,0.08-0.3,0.11-0.45c0.01-0.03-0.01-0.09-0.04-0.1
				c-0.16-0.07-0.32-0.13-0.5-0.2C22.32,18.92,22.29,19,22.26,19.1z"/>
		</g>
		<g>
			<path class="st1" d="M14.62,20.7c-0.03,0.07-0.07,0.05-0.11,0.02c-0.13-0.1-0.26-0.2-0.39-0.29c-0.04-0.03-0.1-0.05-0.16-0.05
				c-0.16-0.01-0.32,0-0.48,0c-0.11,0-0.2,0.05-0.26,0.14c-0.06,0.09-0.12,0.19-0.16,0.29l1.41,0.37
				C14.72,21.07,14.79,20.88,14.62,20.7z"/>
			<path class="st1" d="M20.64,31.13c0,0-1.8-2.41-4.83-6.13l0.16-0.11c0,0,1.36,1.48,4.84,6.12L20.64,31.13z"/>
			<path class="st1" d="M5.89,33.57c0,0,1.48-2.3,3.86-6.45l0.16,0.11c0,0-0.77,1.55-3.84,6.46L5.89,33.57z"/>
			<g>
				<path class="st1" d="M16.6,24.9c-0.15-0.13-0.31-0.26-0.48-0.35c-0.27-0.15-0.37-0.06-0.65,0.07c-0.08,0.03-0.32,0.01-0.42,0.02
					c-0.18,0.02-0.33,0.01-0.5,0.03c-0.06,0.01-0.12,0.05-0.17,0.08c-0.06,0.03-0.12,0.07-0.19,0.03c-0.09-0.05-0.18-0.12-0.27-0.17
					c-0.02-0.01-0.03-0.03-0.03-0.04c-0.02-0.09-0.02-0.17-0.03-0.26c-0.07-0.42-0.17-0.83-0.29-1.24
					c-0.03-0.09,0.01-0.16,0.08-0.22c0,0.08-0.01,0.16-0.01,0.24c0.01-0.04,0.02-0.07,0.03-0.11c0-0.04,0-0.08,0-0.11
					c0-0.04,0.02-0.07,0.04-0.09c0.05-0.06,0.07-0.09,0.05-0.17c0-0.01,0-0.04,0.01-0.05c0.04-0.06,0.1-0.08,0.16-0.08
					c0.12-0.02,0.16-0.05,0.21-0.16c0.01-0.02,0.02-0.04,0.03-0.06c0.13-0.19,0.23-0.38,0.29-0.6c0.01-0.03,0.01-0.06,0.03-0.08
					c0.04-0.07,0.06-0.13,0.06-0.21c-0.01-0.08,0.01-0.15-0.02-0.23c-0.12-0.36-0.29-0.64-0.7-0.68c-0.38-0.04-0.61,0.15-0.77,0.49
					c-0.08,0.17-0.04,0.41-0.08,0.59c-0.08-0.05-0.18-0.11-0.26-0.16c-0.06-0.04-0.12-0.12-0.18-0.15
					c-0.09-0.05-0.13-0.05-0.19,0.03c-0.11,0.16-0.2,0.36-0.31,0.52c-0.03,0.05-0.09,0.07-0.14,0.1c-0.09,0.06-0.12,0.1-0.13,0.21
					c0,0.04,0.04,0.11,0.08,0.13c-0.19,0.19-0.29,0.34-0.5,0.52c-0.33,0.3-0.72,0.61-1.06,0.94c-0.08,0.08-0.18,0.22-0.24,0.35
					c-0.07,0.16-0.15,0.33-0.24,0.49c-0.12,0.22-0.26,0.46-0.37,0.68c-0.09,0.18-0.14,0.37-0.16,0.56c-0.05,0.41-0.14,0.8-0.28,1.17
					c-0.04,0.1-0.08,0.18-0.07,0.26c0.01,0.18,0.06,0.29,0.15,0.44c0,0.01,0,0.02,0.01,0.03c0.03,0.04,0.07,0.09,0.12,0.11
					c0.05,0.02,0.08-0.04,0.12-0.03c0.04,0,0.05,0.05,0.1,0.04c0.04-0.01,0.07-0.05,0.09-0.09c0.03-0.08,0.05-0.18,0.08-0.26
					c0.03-0.08,0.07-0.14,0.11-0.21c0.01,0,0.02,0.01,0.03,0.01c-0.03,0.16-0.03,0.28,0.07,0.42c0.03-0.14,0.08-0.3,0.12-0.43
					c0.03-0.14,0.03-0.25,0.02-0.39c0-0.03-0.02-0.07-0.02-0.1c0.07-0.04,0.09-0.1,0.09-0.17c0.01-0.14,0.07-0.25,0.15-0.36
					c0.08-0.1,0.2-0.21,0.26-0.31c0.13-0.2,0.11-0.32,0.05-0.53c-0.02-0.07-0.02-0.1,0.04-0.15c0.13-0.11,0.28-0.21,0.42-0.32
					c0.01-0.01,0.03-0.02,0.05-0.02c-0.02,0.1-0.04,0.22-0.07,0.32c-0.04,0.15-0.11,0.31-0.18,0.45c-0.07,0.13-0.12,0.26-0.15,0.4
					s-0.02,0.26-0.03,0.37c-0.01,0.11-0.02,0.2-0.01,0.3c0.01,0.14,0.04,0.26,0.06,0.4c0,0.02-0.01,0.05-0.02,0.07
					c-0.04,0.06-0.06,0.12-0.02,0.18c0.07,0.11,0.16,0.21,0.24,0.31c0.02,0.03,0.04,0.05,0.04,0.08c0,0.33,0.01,0.65-0.02,0.98
					c-0.01,0.12-0.07,0.24-0.1,0.36c-0.07,0.27-0.17,0.53-0.3,0.78c-0.03,0.06-0.09,0.11-0.12,0.17c-0.1,0.16-0.21,0.31-0.31,0.47
					c-0.13,0.21-0.26,0.41-0.35,0.63c-0.18,0.42-0.32,0.83-0.52,1.25c-0.07,0.14-0.16,0.28-0.22,0.43
					c-0.13,0.38-0.21,0.76-0.24,1.16c-0.01,0.1,0.04,0.16,0.15,0.17c0.44,0.05,0.88,0.09,1.32,0.1c0.2,0,0.41-0.05,0.61-0.09
					c0.06-0.01,0.12-0.06,0.13-0.13c0.01-0.14-0.05-0.23-0.18-0.29c-0.22-0.09-0.44-0.16-0.63-0.3c-0.08-0.06-0.11-0.14-0.13-0.23
					c0.08-0.06,0.14-0.1,0.18-0.19c0.15-0.34,0.28-0.68,0.45-1.01c0.04-0.07,0.08-0.13,0.11-0.21c0.09-0.2,0.16-0.41,0.27-0.6
					c0.06-0.11,0.15-0.19,0.25-0.28c0.42-0.37,0.76-0.77,1.02-1.28c0.12-0.23,0.2-0.48,0.32-0.71c0.12,0.09,0.25,0.18,0.39,0.24
					c0.11,0.05,0.22,0.09,0.33,0.13c0.21,0.09,0.33,0.23,0.42,0.43c0.01,0.03,0.02,0.06,0.04,0.08c0.06,0.07,0.1,0.13,0.11,0.23
					c0.03,0.21,0.05,0.41,0.07,0.62c0.02,0.28,0.02,0.58,0.02,0.85c0,0.16,0.04,0.28,0.1,0.42c0.03,0.07,0.01,0.11-0.04,0.17
					c-0.02,0.02-0.06,0.04-0.08,0.06c-0.05,0.06-0.07,0.11-0.04,0.18c0.01,0.04,0.03,0.09,0.03,0.12c-0.02,0.16-0.08,0.34-0.08,0.5
					c0,0.23,0.09,0.29,0.29,0.36c0.02,0.01,0.05,0,0.08,0c0.59-0.02,1.18-0.04,1.77-0.07c0.09-0.01,0.19-0.02,0.26-0.07
					c0.12-0.1,0.11-0.19,0-0.29c-0.06-0.05-0.15-0.06-0.24-0.08c-0.09-0.02-0.2,0.01-0.29-0.03c-0.24-0.11-0.43-0.25-0.6-0.46
					c-0.02-0.02-0.01-0.06,0-0.08c0.03-0.16,0.01-0.26-0.1-0.39c-0.05-0.06-0.07-0.09-0.04-0.18c0.03-0.11,0.05-0.23,0.02-0.34
					c-0.02-0.07-0.06-0.14-0.08-0.21c-0.02-0.07-0.03-0.14-0.03-0.2c0.03-0.32,0.08-0.65,0.08-0.96c0-0.31-0.05-0.57-0.14-0.85
					c-0.01-0.03-0.01-0.08,0-0.11c0.04-0.17,0.04-0.36-0.03-0.5c-0.12-0.22-0.28-0.37-0.41-0.56c-0.08-0.11-0.16-0.2-0.24-0.32
					c-0.02-0.02-0.03-0.04-0.05-0.06c-0.1-0.09-0.2-0.18-0.27-0.29c-0.04-0.06-0.09-0.11-0.12-0.16c-0.04-0.05-0.06-0.09-0.07-0.14
					c-0.04-0.15-0.1-0.25-0.24-0.35c0.01-0.02,0.04-0.04,0.05-0.04c0.12-0.05,0.23-0.13,0.3-0.23c0.13-0.18,0.14-0.35,0.16-0.56
					c0.02-0.13-0.01-0.13,0.15-0.15c0.28-0.03,0.63-0.07,0.92-0.15c0.06-0.02,0.13-0.04,0.19-0.06c0-0.01,0-0.01,0-0.02
					c0.28-0.03,0.45-0.1,0.77-0.19c0.03-0.01,0.4-0.01,0.44,0.17c0.01,0.04,0.11,0.06,0.17,0.06c0.05-0.01,0.11-0.04,0.13-0.09
					C16.75,25.2,16.75,25.04,16.6,24.9z"/>
			</g>
			<path class="st1" d="M9.49,26.24c0.13,0.05,0.26,0.11,0.4,0.16c-0.04,0.1-0.08,0.2-0.12,0.31c-0.13-0.05-0.28-0.09-0.4-0.17
				c-0.12-0.08-0.07-0.39,0.07-0.56c0,0,0-0.01-0.01-0.01c-0.2-0.01-0.33-0.15-0.4-0.36C9.02,25.56,9,25.51,8.98,25.47
				c-0.1-0.22-0.09-0.46,0.04-0.73c0.12-0.26,0.22-0.53,0.34-0.79c0.05-0.11,0.14-0.19,0.21-0.29c0.02-0.03,0.04-0.07,0.06-0.11
				c0.19-0.44,0.37-0.88,0.56-1.32c0.17-0.39,0.4-0.64,0.74-0.69c0.05-0.01,0.1-0.02,0.16-0.03c0.05-0.01,0.1,0,0.15-0.09
				c0.02-0.03,0.08-0.03,0.11-0.03c0.04,0,0.07,0,0.1-0.07c0.07-0.18,0.22-0.29,0.36-0.26c0.29,0.06,0.36,0.34,0.26,0.69
				c-0.03,0.1,0,0.09,0.06,0.09c0.14-0.01,0.28-0.02,0.41-0.01c0.29,0.04,0.41,0.25,0.39,0.63c-0.02,0.27-0.08,0.54-0.17,0.8
				c-0.1,0.31-0.22,0.61-0.32,0.91c-0.03,0.08-0.06,0.17-0.07,0.26c-0.04,0.23-0.12,0.44-0.24,0.65c-0.01,0.02-0.02,0.04-0.03,0.06
				c0,0.01,0,0.02,0,0.04c0.1-0.04,0.09,0.04,0.07,0.13c-0.02,0.08-0.05,0.15-0.09,0.22c-0.02,0.04-0.07,0.07-0.11,0.09
				c-0.06,0.35-0.24,0.5-0.52,0.47c0.04,0.15,0.06,0.27,0.1,0.38c0.04,0.14-0.01,0.3-0.13,0.4c-0.02,0.02-0.05,0.02-0.07,0.02
				c-0.02,0-0.03-0.01-0.05-0.01c-0.21-0.05-0.19-0.02-0.07-0.32c0.03,0,0.06,0,0.1,0c-0.05-0.16-0.05-0.32,0.06-0.5
				c0.1-0.17,0.22-0.28,0.36-0.28c0.02-0.11,0.04-0.21,0.07-0.31c-0.17,0.02-0.22-0.2-0.36-0.27c-0.09,0.17-0.17,0.32-0.25,0.48
				c-0.18,0.34-0.3,0.42-0.58,0.37c-0.2-0.04-0.41-0.06-0.62-0.08c-0.05-0.01-0.1,0-0.13,0.1c-0.03,0.09-0.08,0.08-0.13,0.06
				C9.65,26.08,9.58,26.11,9.49,26.24z M12.19,22.1c0.1,0.13,0.11,0.29,0.07,0.46c-0.02,0.11-0.04,0.22-0.08,0.32
				c-0.14,0.36-0.29,0.71-0.43,1.07c-0.13,0.33-0.28,0.66-0.27,1.02c0,0.03,0,0.07,0.02,0.09c0.09,0.08,0.18,0.16,0.28,0.22
				c0.14,0.08,0.23,0.01,0.26-0.21c0.06-0.46,0.18-0.91,0.3-1.37c0.1-0.36,0.19-0.73,0.27-1.09c0.03-0.15,0.03-0.3,0.03-0.44
				c0-0.15-0.08-0.21-0.21-0.17C12.36,22.01,12.29,22.05,12.19,22.1z M11.58,21.42c0.1,0.02,0.15,0.1,0.16,0.22
				c0.01,0.1,0.08,0.13,0.15,0.14c0.02,0,0.06-0.03,0.06-0.04c0.03-0.11,0.05-0.21,0.08-0.32c0-0.02-0.01-0.06-0.03-0.07
				c-0.11-0.05-0.23-0.1-0.35-0.14C11.62,21.29,11.6,21.35,11.58,21.42z"/>
		</g>
		<g>
			<path class="st1" d="M6.5,23.16c-0.02,0.05-0.05,0.03-0.07,0.01c-0.08-0.06-0.17-0.13-0.25-0.19c-0.03-0.02-0.07-0.03-0.1-0.04
				c-0.1,0-0.21,0-0.31,0c-0.07,0-0.13,0.03-0.17,0.09c-0.04,0.06-0.08,0.12-0.1,0.19l0.92,0.24C6.57,23.4,6.61,23.28,6.5,23.16z"/>
			<path class="st1" d="M10.43,29.96c0,0-1.18-1.57-3.15-3.99l0.1-0.07c0,0,0.89,0.97,3.16,3.99L10.43,29.96z"/>
			<path class="st1" d="M0.81,31.54c0,0,0.96-1.5,2.51-4.2l0.1,0.07c0,0-0.5,1.01-2.5,4.21L0.81,31.54z"/>
			<g>
				<path class="st1" d="M7.79,25.9c-0.1-0.09-0.2-0.17-0.31-0.23c-0.18-0.1-0.24-0.04-0.43,0.04C7,25.74,6.84,25.72,6.78,25.73
					c-0.12,0.01-0.21,0.01-0.33,0.02c-0.04,0.01-0.08,0.03-0.11,0.05c-0.04,0.02-0.08,0.04-0.12,0.02
					c-0.06-0.03-0.12-0.08-0.18-0.11c-0.01-0.01-0.02-0.02-0.02-0.03C6,25.63,6,25.57,5.99,25.52c-0.05-0.27-0.11-0.54-0.19-0.81
					c-0.02-0.06,0.01-0.1,0.05-0.14c0,0.05,0,0.1-0.01,0.16c0.01-0.02,0.01-0.05,0.02-0.07c0-0.02,0-0.05,0-0.07
					c0-0.02,0.01-0.04,0.03-0.06c0.04-0.04,0.04-0.06,0.03-0.11c0-0.01,0-0.02,0.01-0.03c0.03-0.04,0.07-0.05,0.11-0.05
					c0.08-0.01,0.1-0.03,0.14-0.1c0.01-0.01,0.01-0.03,0.02-0.04c0.08-0.12,0.15-0.25,0.19-0.39c0-0.02,0.01-0.04,0.02-0.05
					c0.03-0.05,0.04-0.08,0.04-0.14c0-0.05,0-0.1-0.01-0.15C6.35,23.21,6.24,23.03,5.97,23c-0.25-0.02-0.4,0.1-0.5,0.32
					c-0.05,0.11-0.03,0.26-0.05,0.39c-0.06-0.03-0.11-0.07-0.17-0.11c-0.04-0.03-0.08-0.08-0.11-0.1c-0.06-0.03-0.08-0.03-0.12,0.02
					c-0.07,0.11-0.13,0.23-0.2,0.34c-0.02,0.03-0.06,0.05-0.09,0.06C4.66,23.97,4.64,24,4.64,24.07c0,0.03,0.03,0.07,0.05,0.09
					c-0.12,0.12-0.19,0.22-0.32,0.34c-0.22,0.2-0.47,0.4-0.69,0.61c-0.06,0.05-0.12,0.14-0.15,0.23c-0.05,0.1-0.1,0.22-0.15,0.32
					c-0.08,0.14-0.17,0.3-0.24,0.45c-0.06,0.12-0.09,0.24-0.1,0.36c-0.03,0.27-0.09,0.52-0.18,0.76c-0.02,0.06-0.05,0.12-0.05,0.17
					c0.01,0.12,0.04,0.19,0.1,0.28c0,0,0,0.02,0.01,0.02c0.02,0.03,0.05,0.06,0.08,0.07c0.03,0.01,0.05-0.02,0.08-0.02
					c0.03,0,0.03,0.03,0.06,0.03c0.03-0.01,0.05-0.03,0.06-0.06c0.02-0.05,0.03-0.12,0.05-0.17c0.02-0.05,0.05-0.09,0.07-0.14
					c0.01,0,0.01,0,0.02,0.01c-0.02,0.11-0.02,0.18,0.05,0.27c0.02-0.09,0.05-0.19,0.08-0.28c0.02-0.09,0.02-0.16,0.01-0.25
					c0-0.02-0.01-0.04-0.02-0.07c0.05-0.02,0.06-0.06,0.06-0.11c0-0.09,0.04-0.16,0.1-0.23c0.05-0.07,0.13-0.14,0.17-0.2
					c0.08-0.13,0.07-0.21,0.03-0.34c-0.01-0.05-0.01-0.06,0.03-0.1c0.09-0.07,0.18-0.14,0.27-0.21c0.01-0.01,0.02-0.01,0.03-0.01
					c-0.01,0.07-0.03,0.14-0.04,0.21c-0.03,0.1-0.07,0.21-0.12,0.29c-0.04,0.09-0.08,0.17-0.09,0.26s-0.01,0.17-0.02,0.24
					c-0.01,0.07-0.01,0.13-0.01,0.2c0.01,0.09,0.03,0.17,0.04,0.26c0,0.02-0.01,0.03-0.01,0.04c-0.03,0.04-0.04,0.08-0.01,0.12
					c0.05,0.07,0.11,0.14,0.16,0.2c0.01,0.02,0.03,0.03,0.03,0.05c0,0.22,0.01,0.42-0.02,0.64C4.04,28.47,4,28.55,3.98,28.63
					c-0.04,0.18-0.11,0.34-0.19,0.51c-0.02,0.04-0.06,0.07-0.08,0.11c-0.07,0.1-0.14,0.21-0.2,0.31c-0.09,0.13-0.17,0.27-0.23,0.41
					c-0.12,0.27-0.21,0.54-0.34,0.81c-0.04,0.09-0.11,0.18-0.14,0.28c-0.09,0.25-0.14,0.5-0.16,0.76c0,0.06,0.03,0.11,0.09,0.11
					c0.29,0.03,0.57,0.06,0.86,0.06c0.13,0,0.27-0.03,0.4-0.06c0.04-0.01,0.08-0.04,0.08-0.08c0.01-0.09-0.03-0.15-0.12-0.19
					c-0.14-0.06-0.28-0.11-0.41-0.19c-0.05-0.04-0.07-0.09-0.09-0.15c0.05-0.04,0.09-0.07,0.12-0.13c0.1-0.22,0.18-0.44,0.3-0.66
					c0.02-0.04,0.05-0.09,0.07-0.13c0.06-0.13,0.11-0.26,0.18-0.39c0.04-0.07,0.1-0.13,0.16-0.18c0.28-0.24,0.5-0.5,0.67-0.84
					c0.08-0.15,0.13-0.31,0.21-0.46c0.08,0.06,0.17,0.12,0.25,0.16c0.07,0.03,0.15,0.06,0.21,0.09c0.14,0.06,0.21,0.15,0.28,0.28
					c0.01,0.02,0.01,0.04,0.03,0.05c0.04,0.05,0.07,0.08,0.07,0.15c0.02,0.13,0.03,0.27,0.04,0.41c0.01,0.18,0.01,0.38,0.01,0.55
					c0,0.11,0.02,0.18,0.07,0.28c0.02,0.05,0.01,0.07-0.02,0.11c-0.01,0.02-0.04,0.03-0.05,0.04c-0.03,0.04-0.04,0.07-0.02,0.12
					c0.01,0.02,0.02,0.06,0.02,0.08c-0.02,0.1-0.05,0.22-0.05,0.32c0,0.15,0.06,0.19,0.19,0.24c0.01,0,0.03,0,0.05,0
					c0.38-0.01,0.77-0.02,1.16-0.04c0.06,0,0.12-0.01,0.17-0.05c0.08-0.06,0.07-0.13,0-0.19c-0.04-0.03-0.1-0.04-0.16-0.05
					c-0.06-0.01-0.13,0.01-0.19-0.02c-0.16-0.07-0.28-0.17-0.39-0.3c-0.01-0.01-0.01-0.04,0-0.05c0.02-0.11,0.01-0.17-0.07-0.25
					c-0.03-0.04-0.04-0.06-0.03-0.11c0.02-0.07,0.03-0.15,0.01-0.22C6.73,30.05,6.71,30,6.7,29.96c-0.01-0.05-0.02-0.09-0.02-0.13
					c0.02-0.21,0.05-0.42,0.05-0.62c0-0.2-0.03-0.37-0.09-0.55c-0.01-0.02,0-0.06,0-0.07c0.03-0.11,0.03-0.24-0.02-0.33
					c-0.08-0.15-0.18-0.24-0.27-0.37c-0.05-0.07-0.1-0.13-0.15-0.21c-0.01-0.01-0.02-0.03-0.03-0.04c-0.07-0.06-0.13-0.12-0.18-0.19
					c-0.03-0.04-0.06-0.07-0.08-0.1c-0.02-0.03-0.04-0.06-0.05-0.09c-0.03-0.1-0.07-0.17-0.15-0.23c0-0.01,0.02-0.02,0.03-0.03
					c0.08-0.03,0.15-0.08,0.2-0.15c0.08-0.12,0.09-0.23,0.1-0.36c0.01-0.08-0.01-0.09,0.1-0.1c0.18-0.02,0.41-0.04,0.6-0.1
					c0.04-0.01,0.08-0.03,0.12-0.04c0,0,0-0.01,0-0.01c0.18-0.02,0.29-0.07,0.5-0.13c0.02-0.01,0.26,0,0.29,0.11
					c0.01,0.03,0.07,0.04,0.11,0.04c0.03,0,0.07-0.02,0.09-0.06C7.89,26.09,7.89,25.98,7.79,25.9z"/>
			</g>
			<path class="st1" d="M3.16,26.77c0.09,0.03,0.17,0.07,0.26,0.1c-0.03,0.07-0.05,0.13-0.08,0.2c-0.09-0.03-0.18-0.06-0.26-0.11
				c-0.08-0.05-0.05-0.26,0.04-0.37c0,0,0-0.01-0.01-0.01c-0.13-0.01-0.21-0.09-0.26-0.24c-0.01-0.03-0.02-0.06-0.03-0.09
				c-0.07-0.14-0.06-0.3,0.02-0.48c0.08-0.17,0.14-0.34,0.22-0.51c0.03-0.07,0.09-0.13,0.14-0.19c0.02-0.02,0.03-0.05,0.04-0.07
				c0.12-0.29,0.24-0.57,0.37-0.86c0.11-0.25,0.26-0.42,0.48-0.45c0.03-0.01,0.07-0.01,0.1-0.02c0.03-0.01,0.07,0,0.1-0.06
				c0.01-0.02,0.05-0.02,0.07-0.02c0.03,0,0.05,0,0.07-0.05c0.05-0.12,0.15-0.19,0.24-0.17c0.19,0.04,0.23,0.22,0.17,0.45
				c-0.02,0.06,0,0.06,0.04,0.06c0.09-0.01,0.18-0.02,0.27,0c0.19,0.03,0.27,0.16,0.25,0.41c-0.01,0.18-0.05,0.35-0.11,0.52
				c-0.07,0.2-0.14,0.4-0.21,0.59c-0.02,0.06-0.04,0.11-0.05,0.17c-0.03,0.15-0.08,0.29-0.15,0.42c-0.01,0.01-0.01,0.02-0.02,0.04
				c0,0.01,0,0.01,0,0.02c0.06-0.02,0.06,0.03,0.05,0.08c-0.01,0.05-0.03,0.1-0.06,0.14c-0.01,0.03-0.05,0.04-0.07,0.06
				c-0.04,0.23-0.15,0.33-0.34,0.31c0.02,0.1,0.04,0.18,0.06,0.25c0.03,0.09-0.01,0.2-0.08,0.26c-0.01,0.01-0.03,0.01-0.05,0.01
				c-0.01,0-0.02-0.01-0.03-0.01c-0.14-0.03-0.12-0.02-0.05-0.21c0.02,0,0.04,0,0.06,0c-0.03-0.11-0.03-0.21,0.04-0.33
				c0.07-0.11,0.14-0.18,0.23-0.18c0.01-0.07,0.03-0.13,0.04-0.2c-0.11,0.01-0.14-0.13-0.23-0.18C4.38,26.2,4.32,26.3,4.27,26.4
				c-0.12,0.22-0.2,0.27-0.38,0.24c-0.13-0.02-0.27-0.04-0.4-0.05c-0.04,0-0.07,0-0.09,0.06c-0.02,0.06-0.05,0.05-0.08,0.04
				C3.26,26.66,3.22,26.68,3.16,26.77z M4.92,24.07c0.07,0.08,0.07,0.19,0.05,0.3c-0.01,0.07-0.03,0.14-0.05,0.21
				c-0.09,0.23-0.19,0.46-0.28,0.7c-0.08,0.22-0.18,0.43-0.18,0.66c0,0.02,0,0.05,0.01,0.06c0.06,0.05,0.12,0.1,0.18,0.14
				c0.09,0.05,0.15,0,0.17-0.14c0.04-0.3,0.11-0.59,0.19-0.89c0.06-0.24,0.12-0.48,0.18-0.71c0.02-0.1,0.02-0.19,0.02-0.29
				c0-0.1-0.05-0.14-0.13-0.11C5.03,24.01,4.98,24.04,4.92,24.07z M4.52,23.63c0.07,0.01,0.1,0.06,0.1,0.15
				c0.01,0.06,0.05,0.08,0.1,0.09c0.01,0,0.04-0.02,0.04-0.03c0.02-0.07,0.04-0.14,0.05-0.21c0-0.02-0.01-0.04-0.02-0.05
				c-0.07-0.03-0.15-0.06-0.23-0.09C4.54,23.54,4.53,23.58,4.52,23.63z"/>
		</g>
	</g>
	<g>
		<path class="st1" d="M54.47,18.09c-0.04,0.11-0.1,0.07-0.16,0.03c-0.18-0.14-0.36-0.28-0.55-0.41c-0.06-0.04-0.15-0.07-0.22-0.08
			c-0.22-0.01-0.45,0.01-0.67,0c-0.16,0-0.28,0.07-0.37,0.19c-0.09,0.13-0.16,0.26-0.22,0.4l1.99,0.51
			C54.61,18.61,54.7,18.35,54.47,18.09z"/>
		<path class="st1" d="M62.95,32.78c0,0-2.54-3.4-6.8-8.62l0.22-0.15c0,0,1.91,2.09,6.82,8.61L62.95,32.78z"/>
		<path class="st1" d="M42.17,36.2c0,0,2.08-3.23,5.43-9.08l0.22,0.15c0,0-1.08,2.18-5.41,9.09L42.17,36.2z"/>
		<g>
			<path class="st1" d="M57.25,24c-0.21-0.19-0.44-0.36-0.68-0.49c-0.38-0.21-0.52-0.08-0.92,0.09c-0.11,0.05-0.45,0.02-0.6,0.03
				c-0.25,0.03-0.46,0.01-0.71,0.05c-0.08,0.01-0.16,0.06-0.24,0.11c-0.08,0.05-0.16,0.09-0.26,0.04c-0.13-0.06-0.26-0.16-0.38-0.25
				c-0.02-0.01-0.04-0.04-0.05-0.06c-0.03-0.12-0.03-0.24-0.05-0.36c-0.1-0.59-0.24-1.17-0.41-1.75c-0.04-0.13,0.01-0.22,0.11-0.31
				c0,0.11-0.01,0.23-0.01,0.34c0.01-0.05,0.03-0.1,0.04-0.16c0-0.05,0-0.11,0.01-0.16c0.01-0.05,0.02-0.1,0.06-0.13
				c0.08-0.08,0.1-0.12,0.07-0.24c0-0.01,0-0.05,0.01-0.07c0.05-0.08,0.14-0.11,0.23-0.12c0.17-0.02,0.23-0.07,0.3-0.22
				c0.01-0.03,0.03-0.06,0.05-0.09c0.18-0.26,0.33-0.53,0.41-0.84c0.01-0.04,0.02-0.09,0.04-0.12c0.06-0.1,0.09-0.18,0.08-0.29
				c-0.01-0.11,0.01-0.21-0.03-0.32c-0.17-0.51-0.41-0.9-0.99-0.96c-0.54-0.05-0.85,0.21-1.09,0.69c-0.12,0.24-0.06,0.57-0.11,0.83
				c-0.12-0.07-0.25-0.15-0.36-0.23c-0.09-0.06-0.17-0.16-0.25-0.21c-0.13-0.07-0.18-0.08-0.26,0.05c-0.16,0.23-0.28,0.5-0.43,0.74
				c-0.04,0.07-0.13,0.1-0.19,0.14c-0.12,0.08-0.17,0.14-0.18,0.3c0,0.06,0.06,0.15,0.12,0.19c-0.26,0.26-0.41,0.47-0.7,0.74
				c-0.47,0.42-1.01,0.86-1.49,1.33c-0.12,0.12-0.25,0.31-0.33,0.49c-0.1,0.22-0.21,0.47-0.33,0.69c-0.17,0.31-0.36,0.65-0.52,0.96
				c-0.13,0.25-0.19,0.53-0.22,0.79c-0.07,0.58-0.19,1.12-0.39,1.65c-0.05,0.14-0.11,0.25-0.1,0.37c0.02,0.26,0.09,0.41,0.21,0.62
				c0.01,0.01,0.01,0.03,0.02,0.05c0.05,0.06,0.1,0.13,0.17,0.15s0.11-0.05,0.17-0.05c0.06,0,0.08,0.07,0.14,0.06
				c0.06-0.02,0.1-0.08,0.13-0.13c0.05-0.12,0.07-0.26,0.12-0.37c0.04-0.11,0.1-0.2,0.15-0.3c0.02,0.01,0.03,0.01,0.05,0.01
				c-0.05,0.23-0.04,0.4,0.1,0.59c0.05-0.2,0.12-0.42,0.16-0.61c0.05-0.19,0.04-0.35,0.03-0.54c0-0.05-0.03-0.1-0.03-0.14
				c0.1-0.05,0.12-0.14,0.13-0.24c0.01-0.2,0.1-0.36,0.21-0.5c0.12-0.14,0.28-0.3,0.37-0.43c0.18-0.28,0.15-0.45,0.07-0.74
				c-0.03-0.1-0.03-0.14,0.06-0.21c0.19-0.16,0.39-0.3,0.59-0.45c0.01-0.01,0.05-0.02,0.07-0.03c-0.02,0.14-0.05,0.31-0.09,0.45
				c-0.06,0.22-0.15,0.44-0.25,0.63c-0.1,0.19-0.17,0.37-0.2,0.56c-0.03,0.18-0.03,0.36-0.04,0.52c-0.01,0.16-0.03,0.28-0.02,0.42
				c0.01,0.2,0.06,0.37,0.09,0.56c0,0.03-0.02,0.07-0.03,0.09c-0.06,0.09-0.09,0.16-0.03,0.25c0.1,0.16,0.23,0.29,0.34,0.44
				c0.03,0.04,0.06,0.07,0.06,0.11c0,0.47,0.01,0.92-0.03,1.38c-0.02,0.17-0.09,0.34-0.14,0.51c-0.1,0.38-0.24,0.74-0.42,1.1
				c-0.04,0.08-0.12,0.15-0.17,0.23c-0.14,0.22-0.3,0.44-0.44,0.66c-0.18,0.29-0.36,0.58-0.5,0.89c-0.25,0.59-0.45,1.17-0.73,1.75
				c-0.09,0.19-0.23,0.39-0.3,0.6c-0.18,0.53-0.3,1.07-0.34,1.63c-0.01,0.13,0.06,0.23,0.2,0.24c0.62,0.07,1.24,0.12,1.86,0.14
				c0.29,0.01,0.57-0.06,0.86-0.13c0.08-0.02,0.17-0.08,0.18-0.18c0.02-0.2-0.07-0.33-0.25-0.41c-0.3-0.13-0.61-0.23-0.89-0.42
				c-0.12-0.08-0.15-0.2-0.18-0.33c0.11-0.08,0.2-0.14,0.26-0.27c0.21-0.48,0.39-0.96,0.64-1.42c0.05-0.09,0.11-0.19,0.15-0.29
				c0.12-0.28,0.23-0.57,0.39-0.85c0.08-0.15,0.22-0.27,0.35-0.4c0.6-0.53,1.08-1.09,1.44-1.8c0.16-0.32,0.28-0.68,0.45-0.99
				c0.17,0.12,0.36,0.25,0.55,0.34c0.15,0.07,0.32,0.13,0.46,0.19c0.3,0.13,0.46,0.32,0.59,0.61c0.02,0.04,0.03,0.08,0.06,0.11
				c0.09,0.1,0.14,0.18,0.16,0.32c0.04,0.29,0.07,0.58,0.09,0.88c0.03,0.39,0.02,0.81,0.03,1.2c0,0.23,0.05,0.39,0.14,0.6
				c0.04,0.1,0.01,0.16-0.05,0.24c-0.03,0.03-0.09,0.06-0.11,0.09c-0.08,0.09-0.09,0.15-0.05,0.26c0.02,0.05,0.05,0.12,0.04,0.18
				c-0.03,0.23-0.11,0.48-0.11,0.7c0,0.32,0.12,0.41,0.4,0.51c0.03,0.01,0.07,0,0.11,0c0.83-0.03,1.67-0.05,2.49-0.1
				c0.13-0.01,0.27-0.02,0.37-0.1c0.17-0.13,0.16-0.27,0-0.41c-0.09-0.07-0.21-0.09-0.34-0.12c-0.12-0.03-0.28,0.01-0.41-0.04
				c-0.34-0.15-0.6-0.36-0.84-0.65c-0.02-0.03-0.01-0.08-0.01-0.12c0.04-0.23,0.02-0.37-0.14-0.55c-0.07-0.08-0.09-0.13-0.06-0.25
				c0.05-0.15,0.07-0.32,0.02-0.47c-0.03-0.1-0.08-0.2-0.11-0.3c-0.02-0.1-0.04-0.19-0.04-0.29c0.04-0.44,0.12-0.91,0.12-1.35
				c0-0.43-0.07-0.8-0.2-1.2c-0.02-0.05-0.01-0.12,0-0.16c0.06-0.23,0.06-0.51-0.04-0.7c-0.16-0.31-0.39-0.52-0.58-0.79
				c-0.12-0.16-0.23-0.29-0.33-0.45c-0.02-0.03-0.05-0.06-0.08-0.08c-0.14-0.12-0.28-0.26-0.38-0.41c-0.05-0.08-0.12-0.15-0.17-0.22
				c-0.05-0.07-0.08-0.12-0.1-0.2c-0.06-0.22-0.14-0.36-0.33-0.49c0.01-0.02,0.05-0.05,0.07-0.06c0.17-0.07,0.32-0.18,0.43-0.32
				c0.18-0.25,0.19-0.5,0.23-0.79c0.02-0.18-0.01-0.19,0.22-0.21c0.39-0.04,0.89-0.09,1.29-0.21c0.09-0.02,0.18-0.06,0.27-0.09
				c0-0.01,0-0.01,0-0.02c0.4-0.04,0.64-0.14,1.08-0.27c0.04-0.01,0.57-0.01,0.62,0.23c0.01,0.06,0.16,0.09,0.23,0.08
				c0.07-0.01,0.16-0.05,0.19-0.13C57.46,24.43,57.46,24.19,57.25,24z"/>
		</g>
		<path class="st1" d="M47.25,25.89c0.19,0.07,0.37,0.15,0.56,0.23c-0.06,0.15-0.11,0.28-0.17,0.43c-0.19-0.08-0.39-0.12-0.56-0.23
			c-0.17-0.11-0.1-0.55,0.09-0.79c0-0.01-0.01-0.02-0.01-0.02c-0.28-0.02-0.46-0.2-0.56-0.51c-0.02-0.07-0.05-0.13-0.07-0.19
			c-0.14-0.31-0.13-0.64,0.05-1.03c0.17-0.36,0.31-0.74,0.48-1.11c0.07-0.15,0.2-0.27,0.3-0.41c0.03-0.05,0.06-0.1,0.09-0.16
			c0.26-0.62,0.53-1.24,0.79-1.86c0.24-0.55,0.57-0.9,1.04-0.97c0.07-0.01,0.15-0.03,0.22-0.04c0.07-0.01,0.15-0.01,0.21-0.12
			c0.02-0.04,0.11-0.05,0.16-0.05c0.06,0,0.1,0,0.14-0.1c0.11-0.26,0.32-0.4,0.51-0.36c0.41,0.08,0.5,0.48,0.37,0.97
			c-0.04,0.14,0,0.13,0.08,0.13c0.19-0.01,0.39-0.03,0.57-0.01c0.41,0.06,0.58,0.35,0.54,0.89c-0.02,0.38-0.12,0.76-0.24,1.13
			c-0.14,0.43-0.31,0.85-0.46,1.28c-0.04,0.12-0.08,0.24-0.1,0.37c-0.05,0.32-0.17,0.62-0.33,0.91c-0.01,0.03-0.03,0.05-0.04,0.08
			c-0.01,0.01,0,0.03-0.01,0.05c0.14-0.05,0.13,0.06,0.1,0.18c-0.03,0.11-0.07,0.21-0.12,0.31c-0.03,0.06-0.1,0.09-0.16,0.12
			c-0.09,0.5-0.33,0.71-0.73,0.67c0.05,0.21,0.09,0.38,0.13,0.54c0.06,0.2-0.01,0.42-0.18,0.56c-0.03,0.02-0.07,0.03-0.1,0.03
			c-0.03,0-0.05-0.01-0.07-0.02c-0.3-0.07-0.26-0.03-0.1-0.45c0.04,0,0.08,0,0.14,0.01c-0.07-0.23-0.08-0.45,0.08-0.71
			c0.14-0.24,0.31-0.39,0.51-0.4c0.03-0.16,0.06-0.29,0.09-0.44c-0.24,0.03-0.31-0.29-0.5-0.38c-0.12,0.24-0.24,0.46-0.35,0.67
			c-0.26,0.48-0.42,0.58-0.81,0.52c-0.29-0.05-0.58-0.08-0.87-0.12c-0.08-0.01-0.15,0-0.19,0.14c-0.04,0.12-0.11,0.11-0.18,0.08
			C47.47,25.66,47.37,25.7,47.25,25.89z M51.05,20.05c0.15,0.18,0.15,0.41,0.1,0.65c-0.03,0.15-0.06,0.31-0.12,0.45
			c-0.19,0.5-0.4,1-0.6,1.51c-0.18,0.47-0.39,0.94-0.38,1.43c0,0.04,0,0.1,0.02,0.12c0.13,0.11,0.25,0.23,0.39,0.31
			c0.2,0.12,0.33,0.01,0.37-0.3c0.08-0.65,0.25-1.28,0.42-1.93c0.14-0.51,0.27-1.03,0.38-1.54c0.04-0.21,0.05-0.42,0.04-0.62
			c-0.01-0.22-0.11-0.29-0.29-0.24C51.28,19.93,51.19,19.99,51.05,20.05z M50.19,19.1c0.14,0.03,0.21,0.14,0.23,0.32
			c0.01,0.14,0.11,0.18,0.21,0.2c0.02,0,0.08-0.04,0.09-0.06c0.04-0.15,0.08-0.3,0.11-0.45c0.01-0.03-0.01-0.09-0.04-0.1
			c-0.16-0.07-0.32-0.13-0.5-0.2C50.24,18.92,50.21,19,50.19,19.1z"/>
	</g>
	<g>
		<path class="st1" d="M65.36,20.7c-0.03,0.07-0.07,0.05-0.11,0.02c-0.13-0.1-0.26-0.2-0.39-0.29c-0.04-0.03-0.1-0.05-0.16-0.05
			c-0.16-0.01-0.32,0-0.48,0c-0.11,0-0.2,0.05-0.26,0.14c-0.06,0.09-0.12,0.19-0.16,0.29l1.41,0.37
			C65.46,21.07,65.53,20.88,65.36,20.7z"/>
		<path class="st1" d="M71.38,31.13c0,0-1.8-2.41-4.83-6.13l0.16-0.11c0,0,1.36,1.48,4.84,6.12L71.38,31.13z"/>
		<path class="st1" d="M56.63,33.57c0,0,1.48-2.3,3.86-6.45l0.16,0.11c0,0-0.77,1.55-3.84,6.46L56.63,33.57z"/>
		<g>
			<path class="st1" d="M67.34,24.9c-0.15-0.13-0.31-0.26-0.48-0.35c-0.27-0.15-0.37-0.06-0.65,0.07c-0.08,0.03-0.32,0.01-0.42,0.02
				c-0.18,0.02-0.33,0.01-0.5,0.03c-0.06,0.01-0.12,0.05-0.17,0.08c-0.06,0.03-0.12,0.07-0.19,0.03c-0.09-0.05-0.18-0.12-0.27-0.17
				c-0.02-0.01-0.03-0.03-0.03-0.04c-0.02-0.09-0.02-0.17-0.03-0.26c-0.07-0.42-0.17-0.83-0.29-1.24c-0.03-0.09,0.01-0.16,0.08-0.22
				c0,0.08-0.01,0.16-0.01,0.24c0.01-0.04,0.02-0.07,0.03-0.11s0-0.08,0-0.11c0-0.04,0.02-0.07,0.04-0.09
				c0.05-0.06,0.07-0.09,0.05-0.17c0-0.01,0-0.04,0.01-0.05c0.04-0.06,0.1-0.08,0.16-0.08c0.12-0.02,0.16-0.05,0.21-0.16
				c0.01-0.02,0.02-0.04,0.03-0.06c0.13-0.19,0.23-0.38,0.29-0.6c0.01-0.03,0.01-0.06,0.03-0.08c0.04-0.07,0.06-0.13,0.06-0.21
				s0.01-0.15-0.02-0.23c-0.12-0.36-0.29-0.64-0.7-0.68c-0.38-0.04-0.61,0.15-0.77,0.49c-0.08,0.17-0.04,0.41-0.08,0.59
				c-0.08-0.05-0.18-0.11-0.26-0.16c-0.06-0.04-0.12-0.12-0.18-0.15c-0.09-0.05-0.13-0.05-0.19,0.03c-0.11,0.16-0.2,0.36-0.31,0.52
				c-0.03,0.05-0.09,0.07-0.14,0.1c-0.09,0.06-0.12,0.1-0.13,0.21c0,0.04,0.04,0.11,0.08,0.13c-0.19,0.19-0.29,0.34-0.5,0.52
				c-0.33,0.3-0.72,0.61-1.06,0.94c-0.08,0.08-0.18,0.22-0.24,0.35c-0.07,0.16-0.15,0.33-0.24,0.49c-0.12,0.22-0.26,0.46-0.37,0.68
				c-0.09,0.18-0.14,0.37-0.16,0.56c-0.05,0.41-0.14,0.8-0.28,1.17c-0.04,0.1-0.08,0.18-0.07,0.26c0.01,0.18,0.06,0.29,0.15,0.44
				c0,0.01,0,0.02,0.01,0.03c0.03,0.04,0.07,0.09,0.12,0.11c0.05,0.02,0.08-0.04,0.12-0.03c0.04,0,0.05,0.05,0.1,0.04
				c0.04-0.01,0.07-0.05,0.09-0.09c0.03-0.08,0.05-0.18,0.08-0.26s0.07-0.14,0.11-0.21c0.01,0,0.02,0.01,0.03,0.01
				c-0.03,0.16-0.03,0.28,0.07,0.42c0.03-0.14,0.08-0.3,0.12-0.43c0.03-0.14,0.03-0.25,0.02-0.39c0-0.03-0.02-0.07-0.02-0.1
				c0.07-0.04,0.09-0.1,0.09-0.17c0.01-0.14,0.07-0.25,0.15-0.36c0.08-0.1,0.2-0.21,0.26-0.31c0.13-0.2,0.11-0.32,0.05-0.53
				c-0.02-0.07-0.02-0.1,0.04-0.15c0.13-0.11,0.28-0.21,0.42-0.32c0.01-0.01,0.03-0.02,0.05-0.02c-0.02,0.1-0.04,0.22-0.07,0.32
				c-0.04,0.15-0.11,0.31-0.18,0.45c-0.07,0.13-0.12,0.26-0.15,0.4c-0.02,0.13-0.02,0.26-0.03,0.37c-0.01,0.11-0.02,0.2-0.01,0.3
				c0.01,0.14,0.04,0.26,0.06,0.4c0,0.02-0.01,0.05-0.02,0.07c-0.04,0.06-0.06,0.12-0.02,0.18c0.07,0.11,0.16,0.21,0.24,0.31
				c0.02,0.03,0.04,0.05,0.04,0.08c0,0.33,0.01,0.65-0.02,0.98c-0.01,0.12-0.07,0.24-0.1,0.36c-0.07,0.27-0.17,0.53-0.3,0.78
				c-0.03,0.06-0.09,0.11-0.12,0.17c-0.1,0.16-0.21,0.31-0.31,0.47c-0.13,0.21-0.26,0.41-0.35,0.63c-0.18,0.42-0.32,0.83-0.52,1.25
				c-0.07,0.14-0.16,0.28-0.22,0.43c-0.13,0.38-0.21,0.76-0.24,1.16c-0.01,0.1,0.04,0.16,0.15,0.17c0.44,0.05,0.88,0.09,1.32,0.1
				c0.2,0,0.41-0.05,0.61-0.09c0.06-0.01,0.12-0.06,0.13-0.13c0.01-0.14-0.05-0.23-0.18-0.29c-0.22-0.09-0.44-0.16-0.63-0.3
				c-0.08-0.06-0.11-0.14-0.13-0.23c0.08-0.06,0.14-0.1,0.18-0.19c0.15-0.34,0.28-0.68,0.45-1.01c0.04-0.07,0.08-0.13,0.11-0.21
				c0.09-0.2,0.16-0.41,0.27-0.6c0.06-0.11,0.15-0.19,0.25-0.28c0.42-0.37,0.76-0.77,1.02-1.28c0.12-0.23,0.2-0.48,0.32-0.71
				c0.12,0.09,0.25,0.18,0.39,0.24c0.11,0.05,0.22,0.09,0.33,0.13c0.21,0.09,0.33,0.23,0.42,0.43c0.01,0.03,0.02,0.06,0.04,0.08
				c0.06,0.07,0.1,0.13,0.11,0.23c0.03,0.21,0.05,0.41,0.07,0.62c0.02,0.28,0.02,0.58,0.02,0.85c0,0.16,0.04,0.28,0.1,0.42
				c0.03,0.07,0.01,0.11-0.04,0.17c-0.02,0.02-0.06,0.04-0.08,0.06c-0.05,0.06-0.07,0.11-0.04,0.18c0.01,0.04,0.03,0.09,0.03,0.12
				c-0.02,0.16-0.08,0.34-0.08,0.5c0,0.23,0.09,0.29,0.29,0.36c0.02,0.01,0.05,0,0.08,0c0.59-0.02,1.18-0.04,1.77-0.07
				c0.09-0.01,0.19-0.02,0.26-0.07c0.12-0.1,0.11-0.19,0-0.29c-0.06-0.05-0.15-0.06-0.24-0.08c-0.09-0.02-0.2,0.01-0.29-0.03
				c-0.24-0.11-0.43-0.25-0.6-0.46c-0.02-0.02-0.01-0.06,0-0.08c0.03-0.16,0.01-0.26-0.1-0.39c-0.05-0.06-0.07-0.09-0.04-0.18
				c0.03-0.11,0.05-0.23,0.02-0.34c-0.02-0.07-0.06-0.14-0.08-0.21c-0.02-0.07-0.03-0.14-0.03-0.2c0.03-0.32,0.08-0.65,0.08-0.96
				c0-0.31-0.05-0.57-0.14-0.85c-0.01-0.03-0.01-0.08,0-0.11c0.04-0.17,0.04-0.36-0.03-0.5c-0.12-0.22-0.28-0.37-0.41-0.56
				c-0.08-0.11-0.16-0.2-0.24-0.32c-0.02-0.02-0.03-0.04-0.05-0.06c-0.1-0.09-0.2-0.18-0.27-0.29c-0.04-0.06-0.09-0.11-0.12-0.16
				c-0.04-0.05-0.06-0.09-0.07-0.14c-0.04-0.15-0.1-0.25-0.24-0.35c0.01-0.02,0.04-0.04,0.05-0.04c0.12-0.05,0.23-0.13,0.3-0.23
				c0.13-0.18,0.14-0.35,0.16-0.56c0.02-0.13-0.01-0.13,0.15-0.15c0.28-0.03,0.63-0.07,0.92-0.15c0.06-0.02,0.13-0.04,0.19-0.06
				c0-0.01,0-0.01,0-0.02c0.28-0.03,0.45-0.1,0.77-0.19c0.03-0.01,0.4-0.01,0.44,0.17c0.01,0.04,0.11,0.06,0.17,0.06
				c0.05-0.01,0.11-0.04,0.13-0.09C67.49,25.2,67.49,25.04,67.34,24.9z"/>
		</g>
		<path class="st1" d="M60.23,26.24c0.13,0.05,0.26,0.11,0.4,0.16c-0.04,0.1-0.08,0.2-0.12,0.31c-0.13-0.05-0.28-0.09-0.4-0.17
			c-0.12-0.08-0.07-0.39,0.07-0.56c0,0,0-0.01-0.01-0.01c-0.2-0.01-0.33-0.15-0.4-0.36c-0.01-0.05-0.03-0.09-0.05-0.13
			c-0.1-0.22-0.09-0.46,0.04-0.73c0.12-0.26,0.22-0.53,0.34-0.79c0.05-0.11,0.14-0.19,0.21-0.29c0.02-0.03,0.04-0.07,0.06-0.11
			c0.19-0.44,0.37-0.88,0.56-1.32c0.17-0.39,0.4-0.64,0.74-0.69c0.05-0.01,0.1-0.02,0.16-0.03c0.05-0.01,0.1,0,0.15-0.09
			c0.02-0.03,0.08-0.03,0.11-0.03c0.04,0,0.07,0,0.1-0.07c0.07-0.18,0.22-0.29,0.36-0.26c0.29,0.06,0.36,0.34,0.26,0.69
			c-0.03,0.1,0,0.09,0.06,0.09c0.14-0.01,0.28-0.02,0.41-0.01c0.29,0.04,0.41,0.25,0.39,0.63c-0.02,0.27-0.08,0.54-0.17,0.8
			c-0.1,0.31-0.22,0.61-0.32,0.91c-0.03,0.08-0.06,0.17-0.07,0.26c-0.04,0.23-0.12,0.44-0.24,0.65c-0.01,0.02-0.02,0.04-0.03,0.06
			c0,0.01,0,0.02,0,0.04c0.1-0.04,0.09,0.04,0.07,0.13c-0.02,0.08-0.05,0.15-0.09,0.22c-0.02,0.04-0.07,0.07-0.11,0.09
			c-0.06,0.35-0.24,0.5-0.52,0.47c0.04,0.15,0.06,0.27,0.1,0.38c0.04,0.14-0.01,0.3-0.13,0.4c-0.02,0.02-0.05,0.02-0.07,0.02
			c-0.02,0-0.03-0.01-0.05-0.01c-0.21-0.05-0.19-0.02-0.07-0.32c0.03,0,0.06,0,0.1,0c-0.05-0.16-0.05-0.32,0.06-0.5
			c0.1-0.17,0.22-0.28,0.36-0.28c0.02-0.11,0.04-0.21,0.07-0.31c-0.17,0.02-0.22-0.2-0.36-0.27c-0.09,0.17-0.17,0.32-0.25,0.48
			c-0.18,0.34-0.3,0.42-0.58,0.37c-0.2-0.04-0.41-0.06-0.62-0.08c-0.05-0.01-0.1,0-0.13,0.1c-0.03,0.09-0.08,0.08-0.13,0.06
			C60.39,26.08,60.32,26.11,60.23,26.24z M62.93,22.1c0.1,0.13,0.11,0.29,0.07,0.46c-0.02,0.11-0.04,0.22-0.08,0.32
			c-0.14,0.36-0.29,0.71-0.43,1.07c-0.13,0.33-0.28,0.66-0.27,1.02c0,0.03,0,0.07,0.02,0.09c0.09,0.08,0.18,0.16,0.28,0.22
			c0.14,0.08,0.23,0.01,0.26-0.21c0.06-0.46,0.18-0.91,0.3-1.37c0.1-0.36,0.19-0.73,0.27-1.09c0.03-0.15,0.03-0.3,0.03-0.44
			c0-0.15-0.08-0.21-0.21-0.17C63.1,22.01,63.03,22.05,62.93,22.1z M62.32,21.42c0.1,0.02,0.15,0.1,0.16,0.22
			c0.01,0.1,0.08,0.13,0.15,0.14c0.02,0,0.06-0.03,0.06-0.04c0.03-0.11,0.05-0.21,0.08-0.32c0-0.02-0.01-0.06-0.03-0.07
			c-0.11-0.05-0.23-0.1-0.35-0.14C62.36,21.29,62.34,21.35,62.32,21.42z"/>
	</g>
	<g>
		<path class="st1" d="M72.59,23.16c-0.02,0.05-0.05,0.03-0.07,0.01c-0.08-0.06-0.17-0.13-0.25-0.19c-0.03-0.02-0.07-0.03-0.1-0.04
			c-0.1,0-0.21,0-0.31,0c-0.07,0-0.13,0.03-0.17,0.09c-0.04,0.06-0.08,0.12-0.1,0.19l0.92,0.24C72.66,23.4,72.7,23.28,72.59,23.16z"
			/>
		<path class="st1" d="M76.52,29.96c0,0-1.18-1.57-3.15-3.99l0.1-0.07c0,0,0.89,0.97,3.16,3.99L76.52,29.96z"/>
		<path class="st1" d="M66.9,31.54c0,0,0.96-1.5,2.51-4.2l0.1,0.07c0,0-0.5,1.01-2.5,4.21L66.9,31.54z"/>
		<g>
			<path class="st1" d="M73.88,25.9c-0.1-0.09-0.2-0.17-0.31-0.23c-0.18-0.1-0.24-0.04-0.43,0.04c-0.05,0.02-0.21,0.01-0.28,0.02
				c-0.12,0.01-0.21,0.01-0.33,0.02c-0.04,0.01-0.08,0.03-0.11,0.05c-0.04,0.02-0.08,0.04-0.12,0.02c-0.06-0.03-0.12-0.08-0.18-0.11
				c-0.01-0.01-0.02-0.02-0.02-0.03c-0.01-0.06-0.01-0.11-0.02-0.17c-0.05-0.27-0.11-0.54-0.19-0.81c-0.02-0.06,0.01-0.1,0.05-0.14
				c0,0.05,0,0.1-0.01,0.16c0.01-0.02,0.01-0.05,0.02-0.07s0-0.05,0-0.07c0-0.02,0.01-0.04,0.03-0.06c0.04-0.04,0.04-0.06,0.03-0.11
				c0-0.01,0-0.02,0.01-0.03c0.03-0.04,0.07-0.05,0.11-0.05c0.08-0.01,0.1-0.03,0.14-0.1c0.01-0.01,0.01-0.03,0.02-0.04
				c0.08-0.12,0.15-0.25,0.19-0.39c0-0.02,0.01-0.04,0.02-0.05c0.03-0.05,0.04-0.08,0.04-0.14s0-0.1-0.01-0.15
				c-0.08-0.24-0.19-0.42-0.46-0.44c-0.25-0.02-0.4,0.1-0.5,0.32c-0.05,0.11-0.03,0.26-0.05,0.39c-0.06-0.03-0.11-0.07-0.17-0.11
				c-0.04-0.03-0.08-0.08-0.11-0.1c-0.06-0.03-0.08-0.03-0.12,0.02c-0.07,0.11-0.13,0.23-0.2,0.34c-0.02,0.03-0.06,0.05-0.09,0.06
				c-0.06,0.04-0.08,0.07-0.08,0.14c0,0.03,0.03,0.07,0.05,0.09c-0.12,0.12-0.19,0.22-0.32,0.34c-0.22,0.2-0.47,0.4-0.69,0.61
				c-0.06,0.05-0.12,0.14-0.15,0.23c-0.05,0.1-0.1,0.22-0.15,0.32c-0.08,0.14-0.17,0.3-0.24,0.45c-0.06,0.12-0.09,0.24-0.1,0.36
				c-0.03,0.27-0.09,0.52-0.18,0.76c-0.02,0.06-0.05,0.12-0.05,0.17c0.01,0.12,0.04,0.19,0.1,0.28c0,0,0,0.02,0.01,0.02
				c0.02,0.03,0.05,0.06,0.08,0.07c0.03,0.01,0.05-0.02,0.08-0.02c0.03,0,0.03,0.03,0.06,0.03c0.03-0.01,0.05-0.03,0.06-0.06
				c0.02-0.05,0.03-0.12,0.05-0.17c0.02-0.05,0.05-0.09,0.07-0.14c0.01,0,0.01,0,0.02,0.01c-0.02,0.11-0.02,0.18,0.05,0.27
				c0.02-0.09,0.05-0.19,0.08-0.28c0.02-0.09,0.02-0.16,0.01-0.25c0-0.02-0.01-0.04-0.02-0.07c0.05-0.02,0.06-0.06,0.06-0.11
				c0-0.09,0.04-0.16,0.1-0.23c0.05-0.07,0.13-0.14,0.17-0.2c0.08-0.13,0.07-0.21,0.03-0.34c-0.01-0.05-0.01-0.06,0.03-0.1
				c0.09-0.07,0.18-0.14,0.27-0.21c0.01-0.01,0.02-0.01,0.03-0.01c-0.01,0.07-0.03,0.14-0.04,0.21c-0.03,0.1-0.07,0.21-0.12,0.29
				c-0.04,0.09-0.08,0.17-0.09,0.26c-0.02,0.09-0.01,0.17-0.02,0.24s-0.01,0.13-0.01,0.2c0.01,0.09,0.03,0.17,0.04,0.26
				c0,0.02-0.01,0.03-0.01,0.04c-0.03,0.04-0.04,0.08-0.01,0.12c0.05,0.07,0.11,0.14,0.16,0.2c0.01,0.02,0.03,0.03,0.03,0.05
				c0,0.22,0.01,0.42-0.02,0.64c-0.01,0.08-0.04,0.16-0.06,0.23c-0.04,0.18-0.11,0.34-0.19,0.51c-0.02,0.04-0.06,0.07-0.08,0.11
				c-0.07,0.1-0.14,0.21-0.2,0.31c-0.09,0.13-0.17,0.27-0.23,0.41c-0.12,0.27-0.21,0.54-0.34,0.81c-0.04,0.09-0.11,0.18-0.14,0.28
				c-0.09,0.25-0.14,0.5-0.16,0.76c0,0.06,0.03,0.11,0.09,0.11c0.29,0.03,0.57,0.06,0.86,0.06c0.13,0,0.27-0.03,0.4-0.06
				c0.04-0.01,0.08-0.04,0.08-0.08c0.01-0.09-0.03-0.15-0.12-0.19c-0.14-0.06-0.28-0.11-0.41-0.19c-0.05-0.04-0.07-0.09-0.09-0.15
				c0.05-0.04,0.09-0.07,0.12-0.13c0.1-0.22,0.18-0.44,0.3-0.66c0.02-0.04,0.05-0.09,0.07-0.13c0.06-0.13,0.11-0.26,0.18-0.39
				c0.04-0.07,0.1-0.13,0.16-0.18c0.28-0.24,0.5-0.5,0.67-0.84c0.08-0.15,0.13-0.31,0.21-0.46c0.08,0.06,0.17,0.12,0.25,0.16
				c0.07,0.03,0.15,0.06,0.21,0.09c0.14,0.06,0.21,0.15,0.28,0.28c0.01,0.02,0.01,0.04,0.03,0.05c0.04,0.05,0.07,0.08,0.07,0.15
				c0.02,0.13,0.03,0.27,0.04,0.41c0.01,0.18,0.01,0.38,0.01,0.55c0,0.11,0.02,0.18,0.07,0.28c0.02,0.05,0.01,0.07-0.02,0.11
				c-0.01,0.02-0.04,0.03-0.05,0.04c-0.03,0.04-0.04,0.07-0.02,0.12c0.01,0.02,0.02,0.06,0.02,0.08c-0.02,0.1-0.05,0.22-0.05,0.32
				c0,0.15,0.06,0.19,0.19,0.24c0.01,0,0.03,0,0.05,0c0.38-0.01,0.77-0.02,1.16-0.04c0.06,0,0.12-0.01,0.17-0.05
				c0.08-0.06,0.07-0.13,0-0.19c-0.04-0.03-0.1-0.04-0.16-0.05c-0.06-0.01-0.13,0.01-0.19-0.02c-0.16-0.07-0.28-0.17-0.39-0.3
				c-0.01-0.01-0.01-0.04,0-0.05c0.02-0.11,0.01-0.17-0.07-0.25c-0.03-0.04-0.04-0.06-0.03-0.11c0.02-0.07,0.03-0.15,0.01-0.22
				c-0.01-0.05-0.04-0.09-0.05-0.14s-0.02-0.09-0.02-0.13c0.02-0.21,0.05-0.42,0.05-0.62c0-0.2-0.03-0.37-0.09-0.55
				c-0.01-0.02,0-0.06,0-0.07c0.03-0.11,0.03-0.24-0.02-0.33c-0.08-0.15-0.18-0.24-0.27-0.37c-0.05-0.07-0.1-0.13-0.15-0.21
				c-0.01-0.01-0.02-0.03-0.03-0.04c-0.07-0.06-0.13-0.12-0.18-0.19c-0.03-0.04-0.06-0.07-0.08-0.1c-0.02-0.03-0.04-0.06-0.05-0.09
				c-0.03-0.1-0.07-0.17-0.15-0.23c0-0.01,0.02-0.02,0.03-0.03c0.08-0.03,0.15-0.08,0.2-0.15c0.08-0.12,0.09-0.23,0.1-0.36
				c0.01-0.08-0.01-0.09,0.1-0.1c0.18-0.02,0.41-0.04,0.6-0.1c0.04-0.01,0.08-0.03,0.12-0.04c0,0,0-0.01,0-0.01
				c0.18-0.02,0.29-0.07,0.5-0.13c0.02-0.01,0.26,0,0.29,0.11c0.01,0.03,0.07,0.04,0.11,0.04c0.03,0,0.07-0.02,0.09-0.06
				C73.98,26.09,73.98,25.98,73.88,25.9z"/>
		</g>
		<path class="st1" d="M69.25,26.77c0.09,0.03,0.17,0.07,0.26,0.1c-0.03,0.07-0.05,0.13-0.08,0.2c-0.09-0.03-0.18-0.06-0.26-0.11
			c-0.08-0.05-0.05-0.26,0.04-0.37c0,0,0-0.01-0.01-0.01c-0.13-0.01-0.21-0.09-0.26-0.24c-0.01-0.03-0.02-0.06-0.03-0.09
			c-0.07-0.14-0.06-0.3,0.02-0.48c0.08-0.17,0.14-0.34,0.22-0.51c0.03-0.07,0.09-0.13,0.14-0.19c0.02-0.02,0.03-0.05,0.04-0.07
			c0.12-0.29,0.24-0.57,0.37-0.86c0.11-0.25,0.26-0.42,0.48-0.45c0.03-0.01,0.07-0.01,0.1-0.02c0.03-0.01,0.07,0,0.1-0.06
			c0.01-0.02,0.05-0.02,0.07-0.02c0.03,0,0.05,0,0.07-0.05c0.05-0.12,0.15-0.19,0.24-0.17c0.19,0.04,0.23,0.22,0.17,0.45
			c-0.02,0.06,0,0.06,0.04,0.06c0.09-0.01,0.18-0.02,0.27,0c0.19,0.03,0.27,0.16,0.25,0.41c-0.01,0.18-0.05,0.35-0.11,0.52
			c-0.07,0.2-0.14,0.4-0.21,0.59c-0.02,0.06-0.04,0.11-0.05,0.17c-0.03,0.15-0.08,0.29-0.15,0.42c-0.01,0.01-0.01,0.02-0.02,0.04
			c0,0.01,0,0.01,0,0.02c0.06-0.02,0.06,0.03,0.05,0.08c-0.01,0.05-0.03,0.1-0.06,0.14c-0.01,0.03-0.05,0.04-0.07,0.06
			c-0.04,0.23-0.15,0.33-0.34,0.31c0.02,0.1,0.04,0.18,0.06,0.25c0.03,0.09-0.01,0.2-0.08,0.26c-0.01,0.01-0.03,0.01-0.05,0.01
			c-0.01,0-0.02-0.01-0.03-0.01c-0.14-0.03-0.12-0.02-0.05-0.21c0.02,0,0.04,0,0.06,0c-0.03-0.11-0.03-0.21,0.04-0.33
			c0.07-0.11,0.14-0.18,0.23-0.18c0.01-0.07,0.03-0.13,0.04-0.2c-0.11,0.01-0.14-0.13-0.23-0.18c-0.06,0.11-0.11,0.21-0.16,0.31
			c-0.12,0.22-0.2,0.27-0.38,0.24c-0.13-0.02-0.27-0.04-0.4-0.05c-0.04,0-0.07,0-0.09,0.06c-0.02,0.06-0.05,0.05-0.08,0.04
			C69.35,26.66,69.31,26.68,69.25,26.77z M71.01,24.07c0.07,0.08,0.07,0.19,0.05,0.3c-0.01,0.07-0.03,0.14-0.05,0.21
			c-0.09,0.23-0.19,0.46-0.28,0.7c-0.08,0.22-0.18,0.43-0.18,0.66c0,0.02,0,0.05,0.01,0.06c0.06,0.05,0.12,0.1,0.18,0.14
			c0.09,0.05,0.15,0,0.17-0.14c0.04-0.3,0.11-0.59,0.19-0.89c0.06-0.24,0.12-0.48,0.18-0.71c0.02-0.1,0.02-0.19,0.02-0.29
			c0-0.1-0.05-0.14-0.13-0.11C71.12,24.01,71.07,24.04,71.01,24.07z M70.61,23.63c0.07,0.01,0.1,0.06,0.1,0.15
			c0.01,0.06,0.05,0.08,0.1,0.09c0.01,0,0.04-0.02,0.04-0.03c0.02-0.07,0.04-0.14,0.05-0.21c0-0.02-0.01-0.04-0.02-0.05
			c-0.07-0.03-0.15-0.06-0.23-0.09C70.64,23.54,70.62,23.58,70.61,23.63z"/>
	</g>
</g>
<g>
	<g>
		<path class="st1" d="M86.41,14.3v5.24h2.91c0.76,0,1.26-0.11,1.51-0.34c0.34-0.3,0.53-0.83,0.57-1.58h0.36v4.61H91.4
			c-0.09-0.65-0.18-1.06-0.27-1.24c-0.12-0.23-0.31-0.41-0.58-0.54c-0.27-0.13-0.68-0.19-1.23-0.19h-2.91v4.37
			c0,0.59,0.03,0.94,0.08,1.07c0.05,0.13,0.14,0.23,0.27,0.3c0.13,0.07,0.38,0.11,0.74,0.11h2.25c0.75,0,1.29-0.05,1.63-0.16
			c0.34-0.1,0.66-0.31,0.98-0.61c0.4-0.4,0.82-1.01,1.24-1.83h0.39l-1.14,3.32H82.64v-0.36h0.47c0.31,0,0.61-0.08,0.89-0.23
			c0.21-0.1,0.35-0.26,0.42-0.47c0.08-0.21,0.11-0.63,0.11-1.28v-8.6c0-0.84-0.08-1.36-0.25-1.55c-0.23-0.26-0.63-0.39-1.17-0.39
			h-0.47v-0.36h10.21l0.15,2.9h-0.38c-0.14-0.7-0.29-1.17-0.45-1.44c-0.17-0.26-0.41-0.46-0.74-0.6c-0.26-0.1-0.72-0.15-1.38-0.15
			H86.41z"/>
		<path class="st1" d="M102.61,19.49l2.84,4.24c0.79,1.17,1.37,1.91,1.75,2.22c0.38,0.31,0.86,0.48,1.45,0.51v0.36h-5.68v-0.36
			c0.38-0.01,0.66-0.05,0.84-0.12c0.14-0.06,0.25-0.15,0.34-0.27c0.09-0.12,0.13-0.24,0.13-0.37c0-0.15-0.03-0.3-0.09-0.45
			c-0.05-0.11-0.22-0.4-0.54-0.86l-2.25-3.4l-2.77,3.56c-0.29,0.38-0.47,0.63-0.53,0.76c-0.06,0.13-0.09,0.26-0.09,0.4
			c0,0.21,0.09,0.38,0.26,0.52c0.18,0.14,0.51,0.21,1.01,0.23v0.36h-4.7v-0.36c0.33-0.03,0.62-0.1,0.86-0.21
			c0.4-0.17,0.79-0.4,1.15-0.68c0.36-0.29,0.78-0.73,1.25-1.32l3.13-3.95l-2.61-3.82c-0.71-1.04-1.31-1.71-1.81-2.04
			c-0.49-0.32-1.06-0.49-1.71-0.51v-0.36h6.12v0.36c-0.52,0.02-0.88,0.1-1.07,0.25c-0.19,0.15-0.29,0.32-0.29,0.5
			c0,0.24,0.16,0.59,0.47,1.05l2.03,3.04l2.35-2.98c0.27-0.35,0.44-0.59,0.5-0.72c0.06-0.13,0.09-0.26,0.09-0.4
			c0-0.14-0.04-0.26-0.12-0.36c-0.1-0.14-0.22-0.23-0.37-0.29c-0.15-0.05-0.46-0.09-0.93-0.09v-0.36h4.7v0.36
			c-0.37,0.02-0.67,0.08-0.91,0.18c-0.35,0.15-0.67,0.35-0.97,0.61c-0.29,0.25-0.71,0.72-1.24,1.41L102.61,19.49z"/>
		<path class="st1" d="M113,20.62v3.86c0,0.83,0.09,1.35,0.27,1.55c0.25,0.29,0.62,0.43,1.12,0.43h0.51v0.36h-5.67v-0.36h0.5
			c0.56,0,0.96-0.18,1.2-0.55c0.13-0.2,0.2-0.68,0.2-1.44v-8.56c0-0.83-0.09-1.35-0.26-1.55c-0.25-0.29-0.63-0.43-1.13-0.43h-0.5
			v-0.36h4.85c1.19,0,2.12,0.12,2.8,0.37c0.68,0.24,1.26,0.66,1.73,1.24c0.47,0.58,0.7,1.27,0.7,2.06c0,1.08-0.36,1.96-1.07,2.64
			c-0.71,0.68-1.72,1.02-3.02,1.02c-0.32,0-0.66-0.02-1.04-0.07C113.82,20.78,113.42,20.71,113,20.62z M113,20.06
			c0.34,0.06,0.65,0.11,0.92,0.15c0.27,0.03,0.49,0.05,0.68,0.05c0.68,0,1.26-0.26,1.75-0.79c0.49-0.52,0.74-1.2,0.74-2.04
			c0-0.57-0.12-1.11-0.35-1.6c-0.24-0.49-0.57-0.86-1-1.1c-0.43-0.24-0.92-0.37-1.46-0.37c-0.33,0-0.76,0.06-1.28,0.19V20.06z"/>
		<path class="st1" d="M131.48,23.16l0.32,0.07l-1.13,3.59h-10.26v-0.36h0.5c0.56,0,0.96-0.18,1.2-0.55c0.14-0.21,0.2-0.69,0.2-1.45
			v-8.55c0-0.83-0.09-1.34-0.27-1.55c-0.25-0.29-0.63-0.43-1.13-0.43h-0.5v-0.36h6v0.36c-0.7-0.01-1.2,0.06-1.48,0.19
			c-0.28,0.14-0.48,0.31-0.58,0.52c-0.1,0.21-0.16,0.71-0.16,1.49v8.32c0,0.54,0.05,0.91,0.16,1.11c0.08,0.14,0.2,0.24,0.36,0.3
			c0.16,0.07,0.67,0.1,1.52,0.1h0.97c1.02,0,1.73-0.08,2.14-0.23c0.41-0.15,0.78-0.41,1.12-0.8
			C130.81,24.58,131.14,23.98,131.48,23.16z"/>
		<path class="st1" d="M139.55,13.28c1.72,0,3.21,0.65,4.47,1.96c1.26,1.31,1.89,2.93,1.89,4.89c0,2.01-0.63,3.68-1.9,5.01
			c-1.27,1.33-2.81,1.99-4.61,1.99c-1.82,0-3.35-0.65-4.6-1.94c-1.24-1.3-1.86-2.97-1.86-5.03c0-2.1,0.72-3.82,2.15-5.15
			C136.33,13.85,137.82,13.28,139.55,13.28z M139.37,13.99c-1.18,0-2.14,0.44-2.85,1.32c-0.89,1.09-1.34,2.7-1.34,4.81
			c0,2.16,0.46,3.83,1.39,4.99c0.71,0.89,1.65,1.33,2.81,1.33c1.24,0,2.27-0.48,3.08-1.46c0.81-0.97,1.22-2.5,1.22-4.59
			c0-2.27-0.45-3.96-1.34-5.07C141.62,14.43,140.63,13.99,139.37,13.99z"/>
		<path class="st1" d="M160.2,26.82h-3.54l-4.48-6.19c-0.33,0.01-0.6,0.02-0.81,0.02c-0.09,0-0.18,0-0.27-0.01
			c-0.1,0-0.2-0.01-0.3-0.02v3.85c0,0.83,0.09,1.35,0.27,1.55c0.25,0.29,0.62,0.43,1.11,0.43h0.52v0.36h-5.67v-0.36h0.5
			c0.56,0,0.96-0.18,1.2-0.55c0.14-0.2,0.2-0.68,0.2-1.44v-8.56c0-0.83-0.09-1.35-0.27-1.55c-0.25-0.29-0.63-0.43-1.13-0.43h-0.5
			v-0.36h4.82c1.41,0,2.44,0.1,3.11,0.31c0.67,0.2,1.23,0.58,1.7,1.13c0.47,0.55,0.7,1.21,0.7,1.97c0,0.81-0.27,1.52-0.8,2.12
			c-0.53,0.6-1.35,1.02-2.47,1.27l2.74,3.8c0.62,0.87,1.16,1.45,1.61,1.74c0.45,0.29,1.04,0.47,1.76,0.55V26.82z M150.79,20.01
			c0.12,0,0.23,0,0.32,0c0.09,0,0.17,0.01,0.23,0.01c1.26,0,2.21-0.27,2.86-0.82c0.64-0.55,0.96-1.24,0.96-2.09
			c0-0.83-0.26-1.5-0.78-2.02c-0.52-0.52-1.2-0.78-2.06-0.78c-0.38,0-0.89,0.06-1.53,0.19V20.01z"/>
		<path class="st1" d="M169.17,22.39h-5.13l-0.9,2.09c-0.22,0.51-0.33,0.9-0.33,1.15c0,0.2,0.1,0.38,0.29,0.53
			c0.19,0.15,0.61,0.25,1.25,0.3v0.36h-4.17v-0.36c0.55-0.1,0.91-0.23,1.07-0.38c0.33-0.31,0.7-0.95,1.1-1.9l4.66-10.9h0.34
			l4.61,11.02c0.37,0.89,0.71,1.46,1.01,1.72c0.3,0.26,0.72,0.41,1.26,0.45v0.36h-5.22v-0.36c0.53-0.03,0.88-0.11,1.07-0.26
			c0.19-0.15,0.28-0.33,0.28-0.55c0-0.29-0.13-0.74-0.39-1.36L169.17,22.39z M168.9,21.66l-2.25-5.35l-2.31,5.35H168.9z"/>
		<path class="st1" d="M174.81,26.82v-0.36h0.5c0.56,0,0.96-0.18,1.19-0.54c0.14-0.22,0.21-0.7,0.21-1.45v-8.56
			c0-0.83-0.09-1.34-0.27-1.55c-0.25-0.29-0.63-0.43-1.13-0.43h-0.5v-0.36h5.39c1.98,0,3.48,0.23,4.52,0.67
			c1.03,0.45,1.86,1.2,2.49,2.25c0.63,1.05,0.94,2.26,0.94,3.63c0,1.84-0.56,3.38-1.68,4.62c-1.26,1.38-3.17,2.07-5.74,2.07H174.81z
			 M178.59,25.86c0.83,0.18,1.52,0.27,2.08,0.27c1.51,0,2.76-0.53,3.76-1.59c1-1.06,1.49-2.5,1.49-4.32c0-1.83-0.5-3.27-1.49-4.33
			s-2.28-1.58-3.84-1.58c-0.59,0-1.25,0.09-2,0.28V25.86z"/>
		<path class="st1" d="M196.23,13.28c1.72,0,3.21,0.65,4.47,1.96c1.26,1.31,1.89,2.93,1.89,4.89c0,2.01-0.63,3.68-1.9,5.01
			c-1.27,1.33-2.81,1.99-4.61,1.99c-1.82,0-3.35-0.65-4.6-1.94c-1.24-1.3-1.86-2.97-1.86-5.03c0-2.1,0.72-3.82,2.15-5.15
			C193.01,13.85,194.49,13.28,196.23,13.28z M196.04,13.99c-1.18,0-2.14,0.44-2.85,1.32c-0.89,1.09-1.34,2.7-1.34,4.81
			c0,2.16,0.46,3.83,1.39,4.99c0.71,0.89,1.65,1.33,2.81,1.33c1.24,0,2.27-0.48,3.08-1.46c0.81-0.97,1.22-2.5,1.22-4.59
			c0-2.27-0.45-3.96-1.34-5.07C198.29,14.43,197.31,13.99,196.04,13.99z"/>
		<path class="st1" d="M216.87,26.82h-3.54l-4.48-6.19c-0.33,0.01-0.6,0.02-0.81,0.02c-0.09,0-0.18,0-0.27-0.01
			c-0.1,0-0.2-0.01-0.3-0.02v3.85c0,0.83,0.09,1.35,0.27,1.55c0.25,0.29,0.62,0.43,1.11,0.43h0.52v0.36h-5.67v-0.36h0.5
			c0.56,0,0.96-0.18,1.2-0.55c0.14-0.2,0.2-0.68,0.2-1.44v-8.56c0-0.83-0.09-1.35-0.27-1.55c-0.25-0.29-0.63-0.43-1.13-0.43h-0.5
			v-0.36h4.82c1.41,0,2.44,0.1,3.11,0.31c0.67,0.2,1.23,0.58,1.7,1.13c0.47,0.55,0.7,1.21,0.7,1.97c0,0.81-0.27,1.52-0.8,2.12
			s-1.35,1.02-2.47,1.27l2.74,3.8c0.62,0.87,1.16,1.45,1.61,1.74c0.45,0.29,1.04,0.47,1.76,0.55V26.82z M207.47,20.01
			c0.12,0,0.23,0,0.32,0c0.09,0,0.17,0.01,0.23,0.01c1.26,0,2.21-0.27,2.86-0.82c0.64-0.55,0.96-1.24,0.96-2.09
			c0-0.83-0.26-1.5-0.78-2.02c-0.52-0.52-1.2-0.78-2.06-0.78c-0.38,0-0.89,0.06-1.53,0.19V20.01z"/>
		<path class="st1" d="M220.88,14.3v5.24h2.91c0.75,0,1.26-0.11,1.51-0.34c0.34-0.3,0.53-0.83,0.57-1.58h0.36v4.61h-0.36
			c-0.09-0.65-0.18-1.06-0.27-1.24c-0.12-0.23-0.31-0.41-0.58-0.54c-0.27-0.13-0.68-0.19-1.23-0.19h-2.91v4.37
			c0,0.59,0.03,0.94,0.08,1.07c0.05,0.13,0.14,0.23,0.27,0.3c0.13,0.07,0.38,0.11,0.74,0.11h2.25c0.75,0,1.29-0.05,1.63-0.16
			c0.34-0.1,0.66-0.31,0.98-0.61c0.4-0.4,0.82-1.01,1.24-1.83h0.39l-1.14,3.32h-10.21v-0.36h0.47c0.31,0,0.61-0.08,0.89-0.23
			c0.21-0.1,0.35-0.26,0.42-0.47c0.08-0.21,0.11-0.63,0.11-1.28v-8.6c0-0.84-0.09-1.36-0.25-1.55c-0.23-0.26-0.62-0.39-1.17-0.39
			h-0.47v-0.36h10.21l0.15,2.9h-0.38c-0.14-0.7-0.29-1.17-0.45-1.44c-0.17-0.26-0.41-0.46-0.74-0.6c-0.26-0.1-0.72-0.15-1.38-0.15
			H220.88z"/>
		<path class="st1" d="M238.09,13.28v4.58h-0.36c-0.12-0.88-0.33-1.58-0.63-2.1c-0.3-0.52-0.73-0.93-1.29-1.24
			c-0.56-0.31-1.14-0.46-1.74-0.46c-0.68,0-1.24,0.21-1.68,0.62c-0.44,0.41-0.66,0.88-0.66,1.41c0,0.4,0.14,0.77,0.42,1.1
			c0.4,0.49,1.36,1.14,2.88,1.95c1.24,0.66,2.08,1.17,2.53,1.53c0.45,0.35,0.8,0.77,1.05,1.25c0.24,0.48,0.37,0.99,0.37,1.51
			c0,1-0.39,1.87-1.17,2.59s-1.78,1.09-3,1.09c-0.38,0-0.75-0.03-1.08-0.09c-0.2-0.03-0.62-0.15-1.26-0.36
			c-0.63-0.2-1.04-0.31-1.21-0.31c-0.16,0-0.29,0.05-0.39,0.15c-0.09,0.1-0.16,0.3-0.21,0.61h-0.36v-4.54h0.36
			c0.17,0.95,0.4,1.66,0.68,2.13c0.29,0.47,0.72,0.86,1.31,1.18c0.59,0.31,1.24,0.47,1.94,0.47c0.81,0,1.46-0.21,1.93-0.64
			c0.47-0.43,0.71-0.94,0.71-1.52c0-0.33-0.09-0.65-0.27-0.99c-0.18-0.33-0.46-0.64-0.84-0.93c-0.25-0.2-0.95-0.61-2.08-1.25
			c-1.13-0.63-1.94-1.14-2.42-1.52c-0.48-0.38-0.84-0.79-1.09-1.25c-0.25-0.46-0.37-0.96-0.37-1.5c0-0.95,0.36-1.77,1.09-2.46
			c0.73-0.69,1.66-1.03,2.78-1.03c0.7,0,1.45,0.17,2.24,0.52c0.37,0.16,0.62,0.24,0.77,0.24c0.17,0,0.31-0.05,0.41-0.15
			c0.11-0.1,0.19-0.3,0.26-0.61H238.09z"/>
	</g>
	<g>
		<path class="st1" d="M94.62,41.5c-0.33-0.15-0.6-0.37-0.79-0.64c-0.19-0.27-0.29-0.58-0.3-0.91h0.7c0.03,0.32,0.17,0.61,0.43,0.85
			c0.25,0.24,0.63,0.37,1.11,0.37c0.45,0,0.81-0.12,1.07-0.35c0.26-0.23,0.4-0.53,0.4-0.88c0-0.29-0.07-0.52-0.22-0.69
			c-0.15-0.17-0.33-0.3-0.54-0.39c-0.22-0.09-0.51-0.18-0.9-0.28c-0.44-0.12-0.8-0.24-1.06-0.35c-0.26-0.11-0.48-0.29-0.67-0.53
			c-0.18-0.24-0.28-0.57-0.28-0.98c0-0.34,0.09-0.65,0.27-0.92c0.18-0.27,0.43-0.48,0.75-0.63c0.32-0.15,0.7-0.23,1.11-0.23
			c0.62,0,1.11,0.15,1.49,0.45c0.38,0.3,0.6,0.69,0.65,1.17h-0.72c-0.04-0.27-0.19-0.52-0.45-0.73c-0.25-0.21-0.6-0.32-1.03-0.32
			c-0.4,0-0.73,0.11-1,0.32c-0.27,0.21-0.4,0.5-0.4,0.87c0,0.28,0.07,0.51,0.22,0.68c0.15,0.17,0.33,0.3,0.55,0.39
			c0.22,0.09,0.52,0.18,0.89,0.29c0.43,0.12,0.78,0.24,1.05,0.36c0.27,0.12,0.49,0.3,0.68,0.54c0.18,0.24,0.28,0.56,0.28,0.97
			c0,0.31-0.08,0.61-0.25,0.89c-0.17,0.28-0.41,0.51-0.73,0.68c-0.32,0.17-0.71,0.26-1.16,0.26C95.34,41.72,94.95,41.65,94.62,41.5z
			"/>
		<path class="st1" d="M104.63,35.54v2.49h2.52v0.55h-2.52v2.52h2.81v0.55h-3.48v-6.67h3.48v0.55H104.63z"/>
		<path class="st1" d="M120.03,35.09v6.57h-0.67v-5.25l-2.34,5.25h-0.49l-2.34-5.23v5.23h-0.67v-6.57h0.7l2.54,5.7l2.54-5.7H120.03z
			"/>
		<path class="st1" d="M137.27,35v0.55h-2.93v2.49h2.48v0.55h-2.48v3.07h-0.67V35H137.27z"/>
		<path class="st1" d="M146.68,41.66l-1.65-2.78h-1.23v2.78h-0.67V35h2c0.74,0,1.31,0.18,1.69,0.53c0.38,0.36,0.58,0.82,0.58,1.4
			c0,0.48-0.14,0.89-0.41,1.23c-0.28,0.34-0.68,0.56-1.22,0.66l1.71,2.83H146.68z M143.8,38.33h1.34c0.52,0,0.91-0.13,1.18-0.38
			c0.26-0.25,0.4-0.59,0.4-1.02c0-0.44-0.13-0.78-0.38-1.02c-0.25-0.24-0.65-0.36-1.2-0.36h-1.33V38.33z"/>
		<path class="st1" d="M154.8,41.29c-0.5-0.29-0.9-0.69-1.19-1.21c-0.29-0.52-0.43-1.1-0.43-1.76s0.14-1.24,0.43-1.76
			s0.68-0.92,1.19-1.21c0.5-0.29,1.06-0.43,1.68-0.43c0.62,0,1.18,0.14,1.69,0.43c0.5,0.29,0.9,0.69,1.18,1.21
			c0.29,0.52,0.43,1.1,0.43,1.76s-0.14,1.24-0.43,1.76c-0.28,0.52-0.68,0.92-1.18,1.21c-0.5,0.29-1.06,0.43-1.69,0.43
			C155.86,41.72,155.3,41.58,154.8,41.29z M157.81,40.8c0.39-0.23,0.7-0.56,0.93-0.99c0.23-0.43,0.34-0.93,0.34-1.49
			s-0.11-1.06-0.34-1.49c-0.23-0.43-0.54-0.75-0.93-0.98c-0.39-0.23-0.84-0.34-1.33-0.34c-0.49,0-0.94,0.11-1.33,0.34
			c-0.39,0.23-0.7,0.56-0.93,0.98c-0.23,0.42-0.34,0.92-0.34,1.49s0.11,1.06,0.34,1.49c0.23,0.43,0.54,0.76,0.93,0.99
			c0.39,0.23,0.84,0.34,1.33,0.34C156.97,41.14,157.42,41.03,157.81,40.8z"/>
		<path class="st1" d="M170.77,41.66h-0.67l-3.69-5.6v5.6h-0.67V35h0.67l3.69,5.59V35h0.67V41.66z"/>
		<path class="st1" d="M180.95,35v0.55h-1.85v6.11h-0.67v-6.11h-1.86V35H180.95z"/>
		<path class="st1" d="M187.43,35.54v2.49h2.52v0.55h-2.52v2.52h2.81v0.55h-3.48v-6.67h3.48v0.55H187.43z"/>
		<path class="st1" d="M196.99,35v6.66h-0.67V35H196.99z"/>
		<path class="st1" d="M206.81,41.66l-1.65-2.78h-1.23v2.78h-0.67V35h2c0.74,0,1.31,0.18,1.69,0.53c0.38,0.36,0.58,0.82,0.58,1.4
			c0,0.48-0.14,0.89-0.41,1.23c-0.28,0.34-0.68,0.56-1.22,0.66l1.71,2.83H206.81z M203.93,38.33h1.34c0.52,0,0.91-0.13,1.18-0.38
			c0.26-0.25,0.4-0.59,0.4-1.02c0-0.44-0.13-0.78-0.38-1.02c-0.25-0.24-0.65-0.36-1.2-0.36h-1.33V38.33z"/>
		<path class="st1" d="M217.47,40.08h-3.03l-0.58,1.58h-0.7l2.43-6.57h0.75l2.42,6.57h-0.7L217.47,40.08z M217.27,39.52l-1.31-3.6
			l-1.31,3.6H217.27z"/>
		<path class="st1" d="M225.45,41.5c-0.33-0.15-0.6-0.37-0.79-0.64c-0.19-0.27-0.29-0.58-0.3-0.91h0.7
			c0.03,0.32,0.17,0.61,0.43,0.85c0.25,0.24,0.62,0.37,1.11,0.37c0.45,0,0.81-0.12,1.07-0.35c0.26-0.23,0.4-0.53,0.4-0.88
			c0-0.29-0.07-0.52-0.22-0.69c-0.15-0.17-0.33-0.3-0.54-0.39c-0.21-0.09-0.51-0.18-0.89-0.28c-0.45-0.12-0.8-0.24-1.06-0.35
			c-0.26-0.11-0.48-0.29-0.67-0.53c-0.18-0.24-0.28-0.57-0.28-0.98c0-0.34,0.09-0.65,0.27-0.92c0.18-0.27,0.43-0.48,0.75-0.63
			c0.32-0.15,0.7-0.23,1.11-0.23c0.62,0,1.11,0.15,1.49,0.45c0.38,0.3,0.6,0.69,0.65,1.17h-0.72c-0.04-0.27-0.19-0.52-0.45-0.73
			c-0.25-0.21-0.6-0.32-1.03-0.32c-0.4,0-0.73,0.11-1,0.32c-0.27,0.21-0.4,0.5-0.4,0.87c0,0.28,0.07,0.51,0.22,0.68
			c0.15,0.17,0.33,0.3,0.55,0.39c0.22,0.09,0.52,0.18,0.89,0.29c0.43,0.12,0.78,0.24,1.05,0.36c0.27,0.12,0.49,0.3,0.68,0.54
			c0.18,0.24,0.28,0.56,0.28,0.97c0,0.31-0.08,0.61-0.25,0.89c-0.16,0.28-0.41,0.51-0.73,0.68c-0.32,0.17-0.71,0.26-1.16,0.26
			C226.17,41.72,225.78,41.65,225.45,41.5z"/>
	</g>
</g>
</svg>
