<?xml version="1.0" encoding="utf-8"?>
<!-- Generator: Adobe Illustrator 26.3.1, SVG Export Plug-In . SVG Version: 6.00 Build 0)  -->
<svg version="1.1" id="Camada_1" xmlns="http://www.w3.org/2000/svg" xmlns:xlink="http://www.w3.org/1999/xlink" x="0px" y="0px"
	 viewBox="0 0 240 55" style="enable-background:new 0 0 240 55;" xml:space="preserve">
<style type="text/css">
	.st0{fill-rule:evenodd;clip-rule:evenodd;fill:#9B6F4F;}
	.st1{fill:#FFFFFF;}
</style>
<g>
	<path class="st0" d="M56.9,16.1l0.5,0.2l0.4-0.1l-0.2-0.8l1.3-0.4l1.4,0.6l1-0.2c-0.3-0.7-0.8-1.3-1.2-1.9l-0.1,0L59.2,13l-0.4-1.1
		l-0.6,0.5l-0.1,1.5L57,13l-0.2-1l-1.1-0.6l-0.4-0.3l-1.1,0.2l0.5,0.9l1.5,0.5l0.3,0.2l-0.3,0.2l0.2,0.8l-0.6,0.4h-0.6l-0.4-0.4
		l0.9-0.1l0.2-0.4l-2.2-0.9L53.3,12l-0.7,0.9l-0.8,0l-0.9,1.9l-0.1,0.7L50,15.6l-1.2,0.3l-0.8-0.2l-0.5-1.4l0.1-0.7l1.1-0.5l1.3,0
		l0-0.8l-0.6,0l0-1.1l1.3-0.5l0.6-1.5l0.9-0.4l0.9-0.1l0.3-0.1l-0.4-1.2l-1,0.6l-0.6-0.8l-0.6,0l-0.2-0.6l0.4-0.6l0.7-0.5
		c-5.2-3-11.5-4.2-17.8-2.8C28.9,4,24.5,6.5,21.1,10l0.7-0.1l0.6,0.2l1.1,0l0.2,0.4l1.7-0.3l-0.4-0.5l-1.5,0.3l0.3-0.4l-0.2-0.4
		l-1.4,0.3L23.6,8L25,7.7l0.9,0.8L27,8.3l0.5-0.8l0.6,0.2l-0.7,1.1c0,0-1.3,0.3-1.2,0.3c0.1,0,0.3,0.9,0.3,0.9L28,9.5l0.1-0.4
		l1.1-0.3l0-0.6l-0.6,0l0.1-0.6L29,7.3L30.7,7l-0.7,1l0.3,0.6l1-0.1l-0.3-1.2l0.8-0.7l1.6-0.5l2.6,0.6l0.2,0.9l0.8,0l-0.2,0.8
		l-1.1,0.2l-0.2,0.9l-2.6-0.1l1.7-1.4l-0.9-0.5l-1.6,0.6L32,8.4h0l0,0l-0.4,0.6l-0.8,0.2L31,9.7l0.3,0.1l0,0.1l-0.6,0.2l0,0.4
		l-0.6,0.2l-0.3-0.7l-1,0.6l-2,1.8l0.5,0.9l0.7,0.3l1.3-0.1l0.3,1.4l0.6-0.2l0.3-1.2l1.2-0.7l-0.4-1.7l0.6-0.7l1.9,0l0.1,1.2
		l0.5-0.1l1.2-0.9l0.4,1.5l1.1,0.4l0.2,0.9l-0.8,0.5l0.1,0.3l1.2,0.3l0.1,0.6l-0.3,0.1c0,0,0,0,0,0L36,14.7l-0.2-0.4l0.4-0.4
		l-0.1-0.4l-0.5,0l0,0.4l-0.7,0.3l-0.1,0l0,0l-0.3,0.1l-0.3-0.4L34,13.8l-0.5,0.1l-0.2,0.3l0.1,0.5l0.5,0.1l0.5,0l-0.1,0.1l-0.3,0.6
		l-0.2-0.2l-0.4,0l-0.9,1.3l0.2,0.1L31,17.8l-1.2,2l0,0.7l-1.3,1.4l-0.6,0.9l0.4,1.5L27.2,24L27,23.1l-3,0.6l-1.4,1.1l-0.4,1.4
		l-0.1,1l0.6,0.9L24,28l1.7-1.7l0.3,0.6l-0.4,1.2l1.5-0.1l0.6,2.2l2.1-0.1l1-1.8l1.6,0l0.7,0.6l1.5-0.4l0-0.5l0.9,0.2l1.2,1.2
		l1.6-0.3l0.8,0.9l0.3,1.2l1.9,0.3l2.2-0.5l0.9,0.9l1,0.1v0.9L44.8,35l0.3,3.1l-0.8,1l-1.5,0.3l-0.3,0.9l0.7,1.5l-1.2,2.4l-0.3,1
		l-1.3,1l-1,0.4l0,0.4l0.7,0l0,0.5l-0.5,0.7l0.5,0.4l0.7-0.2l0.1,0.6L41,49.7l0,0.5l1.3,0.7l0,0.5l-1.5,0.3l-1.8-1l-1.6-1.8l-0.3-2
		l-1.1-1L36,43.8l-0.6,0l-0.9-4.3c0,0-1.7-0.8-1.8-0.8c-0.1,0-0.8,0-0.8,0l-0.3-0.8l-2.4-2v-0.9l-0.2-1.4l1.1-1.2l-0.5-1.5l-2,0.3
		l-1.9-1.4l-1.1-0.1l-0.7,0l0-0.6L22.9,29l0.1,0.4l-2.3-0.1l-1.2-1.2l0.2-0.7l-1.8-1.7l-0.5-1.4l-0.6,0.1l0.5,1.4l1.3,1.3l0,0.6
		l-0.9,0l-1.4-1.5l-0.4-2l-1.1-0.3l-0.2-1c-0.6,3.2-0.6,6.5,0.1,9.9C17.5,46.3,30.9,55,44.5,52.1c7.8-1.7,14-6.8,17.3-13.4l-0.2-1.1
		l-1.2-1.1l-0.4-2L59,33.9l-0.2-0.8l0.5-2l-2.4-2.8l-0.2-2.2L55,26.4l-0.7-0.5l-1.1,0.2l-0.4,0.6l-1.9,0.4l0,0.2l-1,0.2l-3-2.2
		l-0.4-2.1l0.4-0.2l0-0.8l-0.6,0.1l-0.4-0.8l2.3-2.6l-0.3-1.4l1.2-1l0.6-0.1l1.1-0.2l0.8-0.7l2.8-0.8l0.3,1.4L56.9,16.1z M47.9,8.6
		L48,8.2l0.8-0.3l0.4,1l0.6,0.6l0.4,0.3l0.6,0.1l-0.4,0.7l-1,0.3L48.7,11l-0.1-0.9l0.6-0.3l-0.1-0.4l-0.6-0.2L48,9L47.9,8.6z
		 M46.8,10.5l0.3-0.9l0.6-0.3l0.5,0.1l0.1,0.5l-0.9,1L47,11L46.8,10.5z M33.8,16.5l-0.5,0.1l-0.1-0.4l0.2-0.4l0.4,0.2L33.8,16.5z
		 M35.5,15.5l-0.3,0.1v0.4l-0.2,0.2l-0.4,0.1c0-0.1-0.1-0.2-0.1-0.2l-0.2,0l-0.1-0.4l0.7-0.1l0.1-0.4l0.3-0.1h0.3L35.5,15.5z"/>
</g>
<g>
	<g>
		<path class="st1" d="M42.8,15c0,0.1-0.1,0.1-0.2,0c-0.2-0.2-0.5-0.4-0.7-0.6c-0.1-0.1-0.2-0.1-0.3-0.1c-0.3,0-0.6,0-0.9,0
			c-0.2,0-0.4,0.1-0.5,0.3s-0.2,0.4-0.3,0.6l2.7,0.7C43,15.7,43.1,15.4,42.8,15z"/>
		<path class="st1" d="M54.2,34.9c0,0-3.4-4.6-9.2-11.7l0.3-0.2c0,0,2.6,2.8,9.2,11.7L54.2,34.9z"/>
		<path class="st1" d="M26.1,39.5c0,0,2.8-4.4,7.4-12.3l0.3,0.2c0,0-1.5,3-7.3,12.3L26.1,39.5z"/>
		<g>
			<path class="st1" d="M46.5,23c-0.3-0.3-0.6-0.5-0.9-0.7c-0.5-0.3-0.7-0.1-1.2,0.1c-0.2,0.1-0.6,0-0.8,0c-0.3,0-0.6,0-1,0.1
				c-0.1,0-0.2,0.1-0.3,0.1c-0.1,0.1-0.2,0.1-0.4,0.1c-0.2-0.1-0.3-0.2-0.5-0.3c0,0-0.1,0-0.1-0.1c0-0.2,0-0.3-0.1-0.5
				c-0.1-0.8-0.3-1.6-0.6-2.4c0-0.2,0-0.3,0.2-0.4c0,0.1,0,0.3,0,0.5c0-0.1,0-0.1,0-0.2s0-0.1,0-0.2s0-0.1,0.1-0.2
				c0.1-0.1,0.1-0.2,0.1-0.3c0,0,0-0.1,0-0.1c0.1-0.1,0.2-0.1,0.3-0.2c0.2,0,0.3-0.1,0.4-0.3c0,0,0-0.1,0.1-0.1
				c0.2-0.4,0.4-0.7,0.5-1.1c0,0,0-0.1,0-0.2c0.1-0.1,0.1-0.2,0.1-0.4s0-0.3,0-0.4c-0.2-0.7-0.6-1.2-1.3-1.3
				c-0.7-0.1-1.2,0.3-1.5,0.9c-0.2,0.3-0.1,0.8-0.2,1.1c-0.2-0.1-0.3-0.2-0.5-0.3c-0.1-0.1-0.2-0.2-0.3-0.3
				c-0.2-0.1-0.2-0.1-0.4,0.1c-0.2,0.3-0.4,0.7-0.6,1c-0.1,0.1-0.2,0.1-0.3,0.2c-0.2,0.1-0.2,0.2-0.2,0.4c0,0.1,0.1,0.2,0.2,0.2
				c-0.3,0.4-0.5,0.6-1,1c-0.6,0.6-1.4,1.2-2,1.8c-0.2,0.2-0.3,0.4-0.5,0.7c-0.1,0.3-0.3,0.6-0.5,0.9c-0.2,0.4-0.5,0.9-0.7,1.3
				c-0.2,0.3-0.3,0.7-0.3,1.1c-0.1,0.8-0.3,1.5-0.5,2.2c-0.1,0.2-0.1,0.3-0.1,0.5c0,0.4,0.1,0.5,0.3,0.8c0,0,0,0,0,0.1
				c0.1,0.1,0.1,0.2,0.2,0.2c0.1,0,0.2-0.1,0.2-0.1c0.1,0,0.1,0.1,0.2,0.1c0.1,0,0.1-0.1,0.2-0.2c0.1-0.2,0.1-0.4,0.2-0.5
				s0.1-0.3,0.2-0.4c0,0,0,0,0.1,0c-0.1,0.3,0,0.5,0.1,0.8c0.1-0.3,0.2-0.6,0.2-0.8c0.1-0.3,0-0.5,0-0.7c0-0.1,0-0.1,0-0.2
				c0.1-0.1,0.2-0.2,0.2-0.3c0-0.3,0.1-0.5,0.3-0.7s0.4-0.4,0.5-0.6c0.2-0.4,0.2-0.6,0.1-1c0-0.1,0-0.2,0.1-0.3
				c0.2-0.2,0.5-0.4,0.8-0.6c0,0,0.1,0,0.1,0c0,0.2-0.1,0.4-0.1,0.6c-0.1,0.3-0.2,0.6-0.3,0.9s-0.2,0.5-0.3,0.8s0,0.5-0.1,0.7
				s0,0.4,0,0.6c0,0.3,0.1,0.5,0.1,0.8c0,0,0,0.1,0,0.1c-0.1,0.1-0.1,0.2,0,0.3c0.1,0.2,0.3,0.4,0.5,0.6c0,0,0.1,0.1,0.1,0.1
				c0,0.6,0,1.2,0,1.9c0,0.2-0.1,0.5-0.2,0.7c-0.1,0.5-0.3,1-0.6,1.5c-0.1,0.1-0.2,0.2-0.2,0.3c-0.2,0.3-0.4,0.6-0.6,0.9
				c-0.2,0.4-0.5,0.8-0.7,1.2c-0.3,0.8-0.6,1.6-1,2.4c-0.1,0.3-0.3,0.5-0.4,0.8c-0.2,0.7-0.4,1.5-0.5,2.2c0,0.2,0.1,0.3,0.3,0.3
				c0.8,0.1,1.7,0.2,2.5,0.2c0.4,0,0.8-0.1,1.2-0.2c0.1,0,0.2-0.1,0.2-0.2c0-0.3-0.1-0.4-0.3-0.5c-0.4-0.2-0.8-0.3-1.2-0.6
				c-0.2-0.1-0.2-0.3-0.2-0.4c0.2-0.1,0.3-0.2,0.3-0.4c0.3-0.7,0.5-1.3,0.9-1.9c0.1-0.1,0.1-0.2,0.2-0.4c0.2-0.4,0.3-0.8,0.5-1.2
				c0.1-0.2,0.3-0.4,0.5-0.5c0.8-0.7,1.5-1.5,2-2.4c0.2-0.4,0.4-0.9,0.6-1.4c0.2,0.2,0.5,0.3,0.7,0.5c0.2,0.1,0.4,0.2,0.6,0.3
				c0.4,0.2,0.6,0.4,0.8,0.8c0,0.1,0,0.1,0.1,0.2c0.1,0.1,0.2,0.2,0.2,0.4c0.1,0.4,0.1,0.8,0.1,1.2c0,0.5,0,1.1,0,1.6
				c0,0.3,0.1,0.5,0.2,0.8c0.1,0.1,0,0.2-0.1,0.3c0,0-0.1,0.1-0.2,0.1c-0.1,0.1-0.1,0.2-0.1,0.3c0,0.1,0.1,0.2,0,0.2
				c0,0.3-0.2,0.7-0.2,1c0,0.4,0.2,0.5,0.5,0.7c0,0,0.1,0,0.2,0c1.1,0,2.3-0.1,3.4-0.1c0.2,0,0.4,0,0.5-0.1c0.2-0.2,0.2-0.4,0-0.6
				c-0.1-0.1-0.3-0.1-0.5-0.2c-0.2,0-0.4,0-0.6-0.1c-0.5-0.2-0.8-0.5-1.1-0.9c0,0,0-0.1,0-0.2c0-0.3,0-0.5-0.2-0.7
				c-0.1-0.1-0.1-0.2-0.1-0.3c0.1-0.2,0.1-0.4,0-0.6c0-0.1-0.1-0.3-0.1-0.4s-0.1-0.3,0-0.4c0-0.6,0.2-1.2,0.2-1.8s-0.1-1.1-0.3-1.6
				c0-0.1,0-0.2,0-0.2c0.1-0.3,0.1-0.7-0.1-1c-0.2-0.4-0.5-0.7-0.8-1.1c-0.2-0.2-0.3-0.4-0.5-0.6c0,0-0.1-0.1-0.1-0.1
				c-0.2-0.2-0.4-0.4-0.5-0.5c-0.1-0.1-0.2-0.2-0.2-0.3c-0.1-0.1-0.1-0.2-0.1-0.3c-0.1-0.3-0.2-0.5-0.5-0.7c0,0,0.1-0.1,0.1-0.1
				c0.2-0.1,0.4-0.2,0.6-0.4c0.2-0.3,0.3-0.7,0.3-1.1c0-0.2,0-0.2,0.3-0.3c0.5,0,1.2-0.1,1.8-0.3c0.1,0,0.2-0.1,0.4-0.1c0,0,0,0,0,0
				c0.5-0.1,0.9-0.2,1.5-0.4c0.1,0,0.8,0,0.8,0.3c0,0.1,0.2,0.1,0.3,0.1s0.2-0.1,0.3-0.2C46.8,23.6,46.8,23.3,46.5,23z"/>
		</g>
		<path class="st1" d="M33,25.6c0.2,0.1,0.5,0.2,0.8,0.3c-0.1,0.2-0.2,0.4-0.2,0.6c-0.2-0.1-0.5-0.2-0.8-0.3
			c-0.2-0.1-0.1-0.8,0.1-1.1c0,0,0,0,0,0c-0.4,0-0.6-0.3-0.8-0.7c0-0.1-0.1-0.2-0.1-0.3c-0.2-0.4-0.2-0.9,0.1-1.4
			c0.2-0.5,0.4-1,0.7-1.5c0.1-0.2,0.3-0.4,0.4-0.6c0-0.1,0.1-0.1,0.1-0.2c0.4-0.8,0.7-1.7,1.1-2.5c0.3-0.7,0.8-1.2,1.4-1.3
			c0.1,0,0.2,0,0.3-0.1c0.1,0,0.2,0,0.3-0.2c0,0,0.2-0.1,0.2-0.1c0.1,0,0.1,0,0.2-0.1c0.1-0.4,0.4-0.5,0.7-0.5
			c0.6,0.1,0.7,0.6,0.5,1.3c0,0.2,0,0.2,0.1,0.2c0.3,0,0.5,0,0.8,0c0.5,0.1,0.8,0.5,0.7,1.2c0,0.5-0.2,1-0.3,1.5
			c-0.2,0.6-0.4,1.2-0.6,1.7c-0.1,0.2-0.1,0.3-0.1,0.5c-0.1,0.4-0.2,0.8-0.5,1.2c0,0,0,0.1,0,0.1c0,0,0,0,0,0.1
			c0.2-0.1,0.2,0.1,0.1,0.2c0,0.1-0.1,0.3-0.2,0.4c0,0.1-0.1,0.1-0.2,0.2c-0.1,0.7-0.5,1-1,0.9c0.1,0.3,0.1,0.5,0.2,0.7
			c0.1,0.3,0,0.6-0.2,0.8c0,0-0.1,0-0.1,0c0,0-0.1,0-0.1,0c-0.4-0.1-0.4,0-0.1-0.6c0,0,0.1,0,0.2,0c-0.1-0.3-0.1-0.6,0.1-1
			c0.2-0.3,0.4-0.5,0.7-0.5c0-0.2,0.1-0.4,0.1-0.6c-0.3,0-0.4-0.4-0.7-0.5c-0.2,0.3-0.3,0.6-0.5,0.9c-0.3,0.7-0.6,0.8-1.1,0.7
			c-0.4-0.1-0.8-0.1-1.2-0.2c-0.1,0-0.2,0-0.2,0.2c0,0.2-0.2,0.1-0.2,0.1C33.3,25.2,33.2,25.3,33,25.6z M38.1,17.7
			c0.2,0.2,0.2,0.5,0.1,0.9c0,0.2-0.1,0.4-0.2,0.6c-0.3,0.7-0.5,1.4-0.8,2c-0.2,0.6-0.5,1.3-0.5,1.9c0,0.1,0,0.1,0,0.2
			c0.2,0.1,0.3,0.3,0.5,0.4c0.3,0.2,0.4,0,0.5-0.4c0.1-0.9,0.3-1.7,0.6-2.6c0.2-0.7,0.4-1.4,0.5-2.1C39,18.3,39,18,39,17.8
			c0-0.3-0.2-0.4-0.4-0.3C38.5,17.5,38.3,17.6,38.1,17.7z M37,16.4c0.2,0,0.3,0.2,0.3,0.4c0,0.2,0.1,0.2,0.3,0.3c0,0,0.1,0,0.1-0.1
			c0.1-0.2,0.1-0.4,0.1-0.6c0,0,0-0.1,0-0.1c-0.2-0.1-0.4-0.2-0.7-0.3C37,16.1,37,16.2,37,16.4z"/>
	</g>
	<g>
		<path class="st1" d="M26.5,18.1c0,0.1-0.1,0.1-0.2,0c-0.2-0.1-0.4-0.3-0.5-0.4c-0.1,0-0.1-0.1-0.2-0.1c-0.2,0-0.5,0-0.7,0
			c-0.2,0-0.3,0.1-0.4,0.2c-0.1,0.1-0.2,0.3-0.2,0.4l2,0.5C26.7,18.6,26.8,18.4,26.5,18.1z"/>
		<path class="st1" d="M35,32.8c0,0-2.5-3.4-6.8-8.6l0.2-0.1c0,0,1.9,2.1,6.8,8.6L35,32.8z"/>
		<path class="st1" d="M14.2,36.2c0,0,2.1-3.2,5.4-9.1l0.2,0.1c0,0-1.1,2.2-5.4,9.1L14.2,36.2z"/>
		<g>
			<path class="st1" d="M29.3,24c-0.2-0.2-0.4-0.4-0.7-0.5c-0.4-0.2-0.5-0.1-0.9,0.1c-0.1,0-0.5,0-0.6,0c-0.2,0-0.5,0-0.7,0
				c-0.1,0-0.2,0.1-0.2,0.1c-0.1,0-0.2,0.1-0.3,0c-0.1-0.1-0.3-0.2-0.4-0.2c0,0,0,0,0-0.1c0-0.1,0-0.2,0-0.4
				c-0.1-0.6-0.2-1.2-0.4-1.8c0-0.1,0-0.2,0.1-0.3c0,0.1,0,0.2,0,0.3c0,0,0-0.1,0-0.2c0,0,0-0.1,0-0.2s0-0.1,0.1-0.1
				c0.1-0.1,0.1-0.1,0.1-0.2c0,0,0,0,0-0.1c0-0.1,0.1-0.1,0.2-0.1c0.2,0,0.2-0.1,0.3-0.2c0,0,0-0.1,0-0.1c0.2-0.3,0.3-0.5,0.4-0.8
				c0,0,0-0.1,0-0.1c0.1-0.1,0.1-0.2,0.1-0.3s0-0.2,0-0.3c-0.2-0.5-0.4-0.9-1-1c-0.5,0-0.9,0.2-1.1,0.7c-0.1,0.2-0.1,0.6-0.1,0.8
				c-0.1-0.1-0.2-0.1-0.4-0.2c-0.1-0.1-0.2-0.2-0.2-0.2c-0.1-0.1-0.2-0.1-0.3,0c-0.2,0.2-0.3,0.5-0.4,0.7c0,0.1-0.1,0.1-0.2,0.1
				c-0.1,0.1-0.2,0.1-0.2,0.3c0,0.1,0.1,0.1,0.1,0.2c-0.3,0.3-0.4,0.5-0.7,0.7c-0.5,0.4-1,0.9-1.5,1.3c-0.1,0.1-0.2,0.3-0.3,0.5
				c-0.1,0.2-0.2,0.5-0.3,0.7c-0.2,0.3-0.4,0.6-0.5,1c-0.1,0.2-0.2,0.5-0.2,0.8c-0.1,0.6-0.2,1.1-0.4,1.6c0,0.1-0.1,0.2-0.1,0.4
				c0,0.3,0.1,0.4,0.2,0.6c0,0,0,0,0,0c0,0.1,0.1,0.1,0.2,0.1s0.1,0,0.2,0s0.1,0.1,0.1,0.1c0.1,0,0.1-0.1,0.1-0.1
				c0-0.1,0.1-0.3,0.1-0.4c0-0.1,0.1-0.2,0.1-0.3c0,0,0,0,0,0c0,0.2,0,0.4,0.1,0.6c0-0.2,0.1-0.4,0.2-0.6c0-0.2,0-0.4,0-0.5
				c0,0,0-0.1,0-0.1c0.1,0,0.1-0.1,0.1-0.2c0-0.2,0.1-0.4,0.2-0.5c0.1-0.1,0.3-0.3,0.4-0.4c0.2-0.3,0.1-0.5,0.1-0.7
				c0-0.1,0-0.1,0.1-0.2c0.2-0.2,0.4-0.3,0.6-0.5c0,0,0,0,0.1,0c0,0.1,0,0.3-0.1,0.5c-0.1,0.2-0.1,0.4-0.2,0.6
				c-0.1,0.2-0.2,0.4-0.2,0.6c0,0.2,0,0.4,0,0.5s0,0.3,0,0.4c0,0.2,0.1,0.4,0.1,0.6c0,0,0,0.1,0,0.1c-0.1,0.1-0.1,0.2,0,0.2
				c0.1,0.2,0.2,0.3,0.3,0.4c0,0,0.1,0.1,0.1,0.1c0,0.5,0,0.9,0,1.4c0,0.2-0.1,0.3-0.1,0.5c-0.1,0.4-0.2,0.7-0.4,1.1
				c0,0.1-0.1,0.1-0.2,0.2c-0.1,0.2-0.3,0.4-0.4,0.7c-0.2,0.3-0.4,0.6-0.5,0.9c-0.2,0.6-0.5,1.2-0.7,1.8c-0.1,0.2-0.2,0.4-0.3,0.6
				c-0.2,0.5-0.3,1.1-0.3,1.6c0,0.1,0.1,0.2,0.2,0.2c0.6,0.1,1.2,0.1,1.9,0.1c0.3,0,0.6-0.1,0.9-0.1c0.1,0,0.2-0.1,0.2-0.2
				c0-0.2-0.1-0.3-0.2-0.4c-0.3-0.1-0.6-0.2-0.9-0.4c-0.1-0.1-0.1-0.2-0.2-0.3c0.1-0.1,0.2-0.1,0.3-0.3c0.2-0.5,0.4-1,0.6-1.4
				c0-0.1,0.1-0.2,0.1-0.3c0.1-0.3,0.2-0.6,0.4-0.8c0.1-0.2,0.2-0.3,0.4-0.4c0.6-0.5,1.1-1.1,1.4-1.8c0.2-0.3,0.3-0.7,0.5-1
				c0.2,0.1,0.4,0.2,0.5,0.3c0.1,0.1,0.3,0.1,0.5,0.2c0.3,0.1,0.5,0.3,0.6,0.6c0,0,0,0.1,0.1,0.1c0.1,0.1,0.1,0.2,0.2,0.3
				c0,0.3,0.1,0.6,0.1,0.9c0,0.4,0,0.8,0,1.2c0,0.2,0,0.4,0.1,0.6c0,0.1,0,0.2,0,0.2c0,0-0.1,0.1-0.1,0.1c-0.1,0.1-0.1,0.2,0,0.3
				c0,0,0,0.1,0,0.2c0,0.2-0.1,0.5-0.1,0.7c0,0.3,0.1,0.4,0.4,0.5c0,0,0.1,0,0.1,0c0.8,0,1.7,0,2.5-0.1c0.1,0,0.3,0,0.4-0.1
				c0.2-0.1,0.2-0.3,0-0.4c-0.1-0.1-0.2-0.1-0.3-0.1c-0.1,0-0.3,0-0.4,0c-0.3-0.2-0.6-0.4-0.8-0.7c0,0,0-0.1,0-0.1
				c0-0.2,0-0.4-0.1-0.5c-0.1-0.1-0.1-0.1-0.1-0.2c0-0.2,0.1-0.3,0-0.5c0-0.1-0.1-0.2-0.1-0.3c0-0.1,0-0.2,0-0.3
				c0-0.4,0.1-0.9,0.1-1.4c0-0.4-0.1-0.8-0.2-1.2c0,0,0-0.1,0-0.2c0.1-0.2,0.1-0.5,0-0.7c-0.2-0.3-0.4-0.5-0.6-0.8
				c-0.1-0.2-0.2-0.3-0.3-0.5c0,0,0-0.1-0.1-0.1c-0.1-0.1-0.3-0.3-0.4-0.4c0-0.1-0.1-0.1-0.2-0.2s-0.1-0.1-0.1-0.2
				c-0.1-0.2-0.1-0.4-0.3-0.5c0,0,0,0,0.1-0.1c0.2-0.1,0.3-0.2,0.4-0.3c0.2-0.2,0.2-0.5,0.2-0.8c0-0.2,0-0.2,0.2-0.2
				c0.4,0,0.9-0.1,1.3-0.2c0.1,0,0.2-0.1,0.3-0.1c0,0,0,0,0,0c0.4,0,0.6-0.1,1.1-0.3c0,0,0.6,0,0.6,0.2c0,0.1,0.2,0.1,0.2,0.1
				s0.2,0,0.2-0.1C29.5,24.4,29.5,24.2,29.3,24z"/>
		</g>
		<path class="st1" d="M19.3,25.9c0.2,0.1,0.4,0.1,0.6,0.2c-0.1,0.1-0.1,0.3-0.2,0.4c-0.2-0.1-0.4-0.1-0.6-0.2
			c-0.2-0.1-0.1-0.5,0.1-0.8c0,0,0,0,0,0c-0.3,0-0.5-0.2-0.6-0.5c0-0.1,0-0.1-0.1-0.2c-0.1-0.3-0.1-0.6,0-1c0.2-0.4,0.3-0.7,0.5-1.1
			c0.1-0.1,0.2-0.3,0.3-0.4c0,0,0.1-0.1,0.1-0.2c0.3-0.6,0.5-1.2,0.8-1.9c0.2-0.5,0.6-0.9,1-1c0.1,0,0.1,0,0.2,0s0.1,0,0.2-0.1
			c0,0,0.1,0,0.2,0c0.1,0,0.1,0,0.1-0.1c0.1-0.3,0.3-0.4,0.5-0.4c0.4,0.1,0.5,0.5,0.4,1c0,0.1,0,0.1,0.1,0.1c0.2,0,0.4,0,0.6,0
			c0.4,0.1,0.6,0.4,0.5,0.9c0,0.4-0.1,0.8-0.2,1.1c-0.1,0.4-0.3,0.9-0.5,1.3c0,0.1-0.1,0.2-0.1,0.4c0,0.3-0.2,0.6-0.3,0.9
			c0,0,0,0,0,0.1c0,0,0,0,0,0c0.1,0,0.1,0.1,0.1,0.2c0,0.1-0.1,0.2-0.1,0.3c0,0.1-0.1,0.1-0.2,0.1c-0.1,0.5-0.3,0.7-0.7,0.7
			c0,0.2,0.1,0.4,0.1,0.5c0.1,0.2,0,0.4-0.2,0.6c0,0-0.1,0-0.1,0s0,0-0.1,0c-0.3-0.1-0.3,0-0.1-0.5c0,0,0.1,0,0.1,0
			c-0.1-0.2-0.1-0.5,0.1-0.7c0.1-0.2,0.3-0.4,0.5-0.4c0-0.2,0.1-0.3,0.1-0.4c-0.2,0-0.3-0.3-0.5-0.4c-0.1,0.2-0.2,0.5-0.4,0.7
			c-0.3,0.5-0.4,0.6-0.8,0.5c-0.3,0-0.6-0.1-0.9-0.1c-0.1,0-0.1,0-0.2,0.1c0,0.1-0.1,0.1-0.2,0.1C19.5,25.7,19.5,25.7,19.3,25.9z
			 M23.1,20c0.1,0.2,0.1,0.4,0.1,0.6c0,0.1-0.1,0.3-0.1,0.5c-0.2,0.5-0.4,1-0.6,1.5c-0.2,0.5-0.4,0.9-0.4,1.4c0,0,0,0.1,0,0.1
			c0.1,0.1,0.2,0.2,0.4,0.3c0.2,0.1,0.3,0,0.4-0.3c0.1-0.6,0.2-1.3,0.4-1.9c0.1-0.5,0.3-1,0.4-1.5c0-0.2,0-0.4,0-0.6
			c0-0.2-0.1-0.3-0.3-0.2C23.4,19.9,23.3,20,23.1,20z M22.3,19.1c0.1,0,0.2,0.1,0.2,0.3c0,0.1,0.1,0.2,0.2,0.2c0,0,0.1,0,0.1-0.1
			c0-0.1,0.1-0.3,0.1-0.5c0,0,0-0.1,0-0.1c-0.2-0.1-0.3-0.1-0.5-0.2C22.3,18.9,22.3,19,22.3,19.1z"/>
	</g>
	<g>
		<path class="st1" d="M14.6,20.7c0,0.1-0.1,0-0.1,0c-0.1-0.1-0.3-0.2-0.4-0.3c0,0-0.1,0-0.2,0c-0.2,0-0.3,0-0.5,0
			c-0.1,0-0.2,0-0.3,0.1s-0.1,0.2-0.2,0.3l1.4,0.4C14.7,21.1,14.8,20.9,14.6,20.7z"/>
		<path class="st1" d="M20.6,31.1c0,0-1.8-2.4-4.8-6.1l0.2-0.1c0,0,1.4,1.5,4.8,6.1L20.6,31.1z"/>
		<path class="st1" d="M5.9,33.6c0,0,1.5-2.3,3.9-6.5l0.2,0.1c0,0-0.8,1.5-3.8,6.5L5.9,33.6z"/>
		<g>
			<path class="st1" d="M16.6,24.9c-0.1-0.1-0.3-0.3-0.5-0.4c-0.3-0.1-0.4-0.1-0.6,0.1c-0.1,0-0.3,0-0.4,0c-0.2,0-0.3,0-0.5,0
				c-0.1,0-0.1,0-0.2,0.1c-0.1,0-0.1,0.1-0.2,0c-0.1,0-0.2-0.1-0.3-0.2c0,0,0,0,0,0c0-0.1,0-0.2,0-0.3c-0.1-0.4-0.2-0.8-0.3-1.2
				c0-0.1,0-0.2,0.1-0.2c0,0.1,0,0.2,0,0.2c0,0,0-0.1,0-0.1c0,0,0-0.1,0-0.1c0,0,0-0.1,0-0.1c0.1-0.1,0.1-0.1,0.1-0.2c0,0,0,0,0,0
				c0-0.1,0.1-0.1,0.2-0.1c0.1,0,0.2,0,0.2-0.2c0,0,0,0,0-0.1c0.1-0.2,0.2-0.4,0.3-0.6c0,0,0-0.1,0-0.1c0-0.1,0.1-0.1,0.1-0.2
				c0-0.1,0-0.1,0-0.2c-0.1-0.4-0.3-0.6-0.7-0.7c-0.4,0-0.6,0.1-0.8,0.5c-0.1,0.2,0,0.4-0.1,0.6c-0.1,0-0.2-0.1-0.3-0.2
				c-0.1,0-0.1-0.1-0.2-0.1c-0.1,0-0.1,0-0.2,0c-0.1,0.2-0.2,0.4-0.3,0.5c0,0-0.1,0.1-0.1,0.1c-0.1,0.1-0.1,0.1-0.1,0.2
				c0,0,0,0.1,0.1,0.1c-0.2,0.2-0.3,0.3-0.5,0.5c-0.3,0.3-0.7,0.6-1.1,0.9c-0.1,0.1-0.2,0.2-0.2,0.4c-0.1,0.2-0.1,0.3-0.2,0.5
				c-0.1,0.2-0.3,0.5-0.4,0.7c-0.1,0.2-0.1,0.4-0.2,0.6c-0.1,0.4-0.1,0.8-0.3,1.2c0,0.1-0.1,0.2-0.1,0.3c0,0.2,0.1,0.3,0.1,0.4
				c0,0,0,0,0,0c0,0,0.1,0.1,0.1,0.1s0.1,0,0.1,0c0,0,0.1,0,0.1,0c0,0,0.1,0,0.1-0.1c0-0.1,0.1-0.2,0.1-0.3s0.1-0.1,0.1-0.2
				c0,0,0,0,0,0c0,0.2,0,0.3,0.1,0.4c0-0.1,0.1-0.3,0.1-0.4c0-0.1,0-0.2,0-0.4c0,0,0-0.1,0-0.1c0.1,0,0.1-0.1,0.1-0.2
				c0-0.1,0.1-0.2,0.1-0.4c0.1-0.1,0.2-0.2,0.3-0.3c0.1-0.2,0.1-0.3,0.1-0.5c0-0.1,0-0.1,0-0.1c0.1-0.1,0.3-0.2,0.4-0.3
				c0,0,0,0,0.1,0c0,0.1,0,0.2-0.1,0.3c0,0.1-0.1,0.3-0.2,0.5c-0.1,0.1-0.1,0.3-0.1,0.4s0,0.3,0,0.4c0,0.1,0,0.2,0,0.3
				c0,0.1,0,0.3,0.1,0.4c0,0,0,0,0,0.1c0,0.1-0.1,0.1,0,0.2c0.1,0.1,0.2,0.2,0.2,0.3c0,0,0,0,0,0.1c0,0.3,0,0.6,0,1
				c0,0.1-0.1,0.2-0.1,0.4c-0.1,0.3-0.2,0.5-0.3,0.8c0,0.1-0.1,0.1-0.1,0.2c-0.1,0.2-0.2,0.3-0.3,0.5c-0.1,0.2-0.3,0.4-0.4,0.6
				c-0.2,0.4-0.3,0.8-0.5,1.2c-0.1,0.1-0.2,0.3-0.2,0.4c-0.1,0.4-0.2,0.8-0.2,1.2c0,0.1,0,0.2,0.1,0.2c0.4,0,0.9,0.1,1.3,0.1
				c0.2,0,0.4,0,0.6-0.1c0.1,0,0.1-0.1,0.1-0.1c0-0.1-0.1-0.2-0.2-0.3c-0.2-0.1-0.4-0.2-0.6-0.3c-0.1-0.1-0.1-0.1-0.1-0.2
				c0.1-0.1,0.1-0.1,0.2-0.2c0.1-0.3,0.3-0.7,0.4-1c0-0.1,0.1-0.1,0.1-0.2c0.1-0.2,0.2-0.4,0.3-0.6c0.1-0.1,0.1-0.2,0.2-0.3
				c0.4-0.4,0.8-0.8,1-1.3c0.1-0.2,0.2-0.5,0.3-0.7c0.1,0.1,0.2,0.2,0.4,0.2c0.1,0,0.2,0.1,0.3,0.1c0.2,0.1,0.3,0.2,0.4,0.4
				c0,0,0,0.1,0,0.1c0.1,0.1,0.1,0.1,0.1,0.2c0,0.2,0.1,0.4,0.1,0.6c0,0.3,0,0.6,0,0.9c0,0.2,0,0.3,0.1,0.4c0,0.1,0,0.1,0,0.2
				c0,0-0.1,0-0.1,0.1c-0.1,0.1-0.1,0.1,0,0.2c0,0,0,0.1,0,0.1c0,0.2-0.1,0.3-0.1,0.5c0,0.2,0.1,0.3,0.3,0.4c0,0,0.1,0,0.1,0
				c0.6,0,1.2,0,1.8-0.1c0.1,0,0.2,0,0.3-0.1c0.1-0.1,0.1-0.2,0-0.3c-0.1,0-0.1-0.1-0.2-0.1s-0.2,0-0.3,0c-0.2-0.1-0.4-0.2-0.6-0.5
				c0,0,0-0.1,0-0.1c0-0.2,0-0.3-0.1-0.4c-0.1-0.1-0.1-0.1,0-0.2c0-0.1,0.1-0.2,0-0.3c0-0.1-0.1-0.1-0.1-0.2c0-0.1,0-0.1,0-0.2
				c0-0.3,0.1-0.6,0.1-1s-0.1-0.6-0.1-0.9c0,0,0-0.1,0-0.1c0-0.2,0-0.4,0-0.5c-0.1-0.2-0.3-0.4-0.4-0.6c-0.1-0.1-0.2-0.2-0.2-0.3
				c0,0,0,0-0.1-0.1c-0.1-0.1-0.2-0.2-0.3-0.3c0-0.1-0.1-0.1-0.1-0.2c0,0-0.1-0.1-0.1-0.1c0-0.1-0.1-0.2-0.2-0.4c0,0,0,0,0.1,0
				c0.1,0,0.2-0.1,0.3-0.2c0.1-0.2,0.1-0.4,0.2-0.6c0-0.1,0-0.1,0.1-0.1c0.3,0,0.6-0.1,0.9-0.1c0.1,0,0.1,0,0.2-0.1c0,0,0,0,0,0
				c0.3,0,0.4-0.1,0.8-0.2c0,0,0.4,0,0.4,0.2c0,0,0.1,0.1,0.2,0.1c0,0,0.1,0,0.1-0.1C16.8,25.2,16.8,25,16.6,24.9z"/>
		</g>
		<path class="st1" d="M9.5,26.2c0.1,0,0.3,0.1,0.4,0.2c0,0.1-0.1,0.2-0.1,0.3c-0.1,0-0.3-0.1-0.4-0.2S9.3,26.1,9.4,26c0,0,0,0,0,0
			c-0.2,0-0.3-0.1-0.4-0.4c0,0,0-0.1-0.1-0.1c-0.1-0.2-0.1-0.5,0-0.7c0.1-0.3,0.2-0.5,0.3-0.8c0.1-0.1,0.1-0.2,0.2-0.3
			c0,0,0-0.1,0.1-0.1c0.2-0.4,0.4-0.9,0.6-1.3c0.2-0.4,0.4-0.6,0.7-0.7c0.1,0,0.1,0,0.2,0c0.1,0,0.1,0,0.1-0.1c0,0,0.1,0,0.1,0
			c0,0,0.1,0,0.1-0.1c0.1-0.2,0.2-0.3,0.4-0.3c0.3,0.1,0.4,0.3,0.3,0.7c0,0.1,0,0.1,0.1,0.1c0.1,0,0.3,0,0.4,0
			c0.3,0,0.4,0.2,0.4,0.6c0,0.3-0.1,0.5-0.2,0.8c-0.1,0.3-0.2,0.6-0.3,0.9c0,0.1-0.1,0.2-0.1,0.3c0,0.2-0.1,0.4-0.2,0.6
			c0,0,0,0,0,0.1c0,0,0,0,0,0c0.1,0,0.1,0,0.1,0.1c0,0.1-0.1,0.1-0.1,0.2c0,0-0.1,0.1-0.1,0.1c-0.1,0.4-0.2,0.5-0.5,0.5
			c0,0.1,0.1,0.3,0.1,0.4c0,0.1,0,0.3-0.1,0.4c0,0-0.1,0-0.1,0c0,0,0,0-0.1,0c-0.2,0-0.2,0-0.1-0.3c0,0,0.1,0,0.1,0
			c-0.1-0.2-0.1-0.3,0.1-0.5c0.1-0.2,0.2-0.3,0.4-0.3c0-0.1,0-0.2,0.1-0.3c-0.2,0-0.2-0.2-0.4-0.3c-0.1,0.2-0.2,0.3-0.2,0.5
			C11,26,10.9,26.1,10.6,26C10.4,26,10.2,26,10,26c-0.1,0-0.1,0-0.1,0.1c0,0.1-0.1,0.1-0.1,0.1C9.6,26.1,9.6,26.1,9.5,26.2z
			 M12.2,22.1c0.1,0.1,0.1,0.3,0.1,0.5c0,0.1,0,0.2-0.1,0.3c-0.1,0.4-0.3,0.7-0.4,1.1c-0.1,0.3-0.3,0.7-0.3,1c0,0,0,0.1,0,0.1
			c0.1,0.1,0.2,0.2,0.3,0.2c0.1,0.1,0.2,0,0.3-0.2c0.1-0.5,0.2-0.9,0.3-1.4c0.1-0.4,0.2-0.7,0.3-1.1c0-0.1,0-0.3,0-0.4
			c0-0.1-0.1-0.2-0.2-0.2C12.4,22,12.3,22,12.2,22.1z M11.6,21.4c0.1,0,0.1,0.1,0.2,0.2c0,0.1,0.1,0.1,0.1,0.1c0,0,0.1,0,0.1,0
			c0-0.1,0.1-0.2,0.1-0.3c0,0,0-0.1,0-0.1c-0.1,0-0.2-0.1-0.4-0.1C11.6,21.3,11.6,21.4,11.6,21.4z"/>
	</g>
	<g>
		<path class="st1" d="M6.5,23.2C6.5,23.2,6.4,23.2,6.5,23.2c-0.2,0-0.2-0.1-0.3-0.2c0,0-0.1,0-0.1,0c-0.1,0-0.2,0-0.3,0
			c-0.1,0-0.1,0-0.2,0.1s-0.1,0.1-0.1,0.2l0.9,0.2C6.6,23.4,6.6,23.3,6.5,23.2z"/>
		<path class="st1" d="M10.4,30c0,0-1.2-1.6-3.2-4l0.1-0.1c0,0,0.9,1,3.2,4L10.4,30z"/>
		<path class="st1" d="M0.8,31.5c0,0,1-1.5,2.5-4.2l0.1,0.1c0,0-0.5,1-2.5,4.2L0.8,31.5z"/>
		<g>
			<path class="st1" d="M7.8,25.9c-0.1-0.1-0.2-0.2-0.3-0.2c-0.2-0.1-0.2,0-0.4,0c-0.1,0-0.2,0-0.3,0c-0.1,0-0.2,0-0.3,0
				c0,0-0.1,0-0.1,0c0,0-0.1,0-0.1,0c-0.1,0-0.1-0.1-0.2-0.1c0,0,0,0,0,0c0,0,0-0.1,0-0.2c-0.1-0.3-0.1-0.5-0.2-0.8
				c0-0.1,0-0.1,0.1-0.1c0,0,0,0.1,0,0.2c0,0,0,0,0-0.1c0,0,0,0,0-0.1s0,0,0-0.1c0,0,0-0.1,0-0.1c0,0,0,0,0,0c0,0,0.1,0,0.1,0
				c0.1,0,0.1,0,0.1-0.1c0,0,0,0,0,0c0.1-0.1,0.2-0.2,0.2-0.4c0,0,0,0,0,0c0,0,0-0.1,0-0.1c0,0,0-0.1,0-0.1C6.3,23.2,6.2,23,6,23
				c-0.2,0-0.4,0.1-0.5,0.3c-0.1,0.1,0,0.3-0.1,0.4c-0.1,0-0.1-0.1-0.2-0.1c0,0-0.1-0.1-0.1-0.1c-0.1,0-0.1,0-0.1,0
				c-0.1,0.1-0.1,0.2-0.2,0.3c0,0-0.1,0-0.1,0.1C4.7,24,4.6,24,4.6,24.1c0,0,0,0.1,0.1,0.1c-0.1,0.1-0.2,0.2-0.3,0.3
				c-0.2,0.2-0.5,0.4-0.7,0.6c-0.1,0-0.1,0.1-0.2,0.2c0,0.1-0.1,0.2-0.2,0.3c-0.1,0.1-0.2,0.3-0.2,0.5C3.1,26.2,3,26.4,3,26.5
				c0,0.3-0.1,0.5-0.2,0.8c0,0.1,0,0.1,0,0.2c0,0.1,0,0.2,0.1,0.3c0,0,0,0,0,0c0,0,0,0.1,0.1,0.1s0,0,0.1,0s0,0,0.1,0
				c0,0,0,0,0.1-0.1c0,0,0-0.1,0-0.2s0-0.1,0.1-0.1c0,0,0,0,0,0c0,0.1,0,0.2,0,0.3c0-0.1,0-0.2,0.1-0.3c0-0.1,0-0.2,0-0.2
				c0,0,0,0,0-0.1c0,0,0.1-0.1,0.1-0.1c0-0.1,0-0.2,0.1-0.2c0-0.1,0.1-0.1,0.2-0.2c0.1-0.1,0.1-0.2,0-0.3c0,0,0-0.1,0-0.1
				C3.9,26,4,26,4.1,25.9c0,0,0,0,0,0c0,0.1,0,0.1,0,0.2c0,0.1-0.1,0.2-0.1,0.3c0,0.1-0.1,0.2-0.1,0.3s0,0.2,0,0.2s0,0.1,0,0.2
				c0,0.1,0,0.2,0,0.3c0,0,0,0,0,0c0,0,0,0.1,0,0.1c0,0.1,0.1,0.1,0.2,0.2c0,0,0,0,0,0c0,0.2,0,0.4,0,0.6C4,28.5,4,28.5,4,28.6
				c0,0.2-0.1,0.3-0.2,0.5c0,0-0.1,0.1-0.1,0.1c-0.1,0.1-0.1,0.2-0.2,0.3c-0.1,0.1-0.2,0.3-0.2,0.4c-0.1,0.3-0.2,0.5-0.3,0.8
				c0,0.1-0.1,0.2-0.1,0.3c-0.1,0.2-0.1,0.5-0.2,0.8c0,0.1,0,0.1,0.1,0.1C3,32,3.3,32,3.6,32c0.1,0,0.3,0,0.4-0.1c0,0,0.1,0,0.1-0.1
				c0-0.1,0-0.1-0.1-0.2c-0.1-0.1-0.3-0.1-0.4-0.2c0,0-0.1-0.1-0.1-0.1c0,0,0.1-0.1,0.1-0.1c0.1-0.2,0.2-0.4,0.3-0.7
				c0,0,0-0.1,0.1-0.1C4,30.3,4,30.1,4.1,30c0-0.1,0.1-0.1,0.2-0.2c0.3-0.2,0.5-0.5,0.7-0.8c0.1-0.1,0.1-0.3,0.2-0.5
				c0.1,0.1,0.2,0.1,0.2,0.2c0.1,0,0.2,0.1,0.2,0.1c0.1,0.1,0.2,0.1,0.3,0.3c0,0,0,0,0,0c0,0,0.1,0.1,0.1,0.1c0,0.1,0,0.3,0,0.4
				c0,0.2,0,0.4,0,0.5c0,0.1,0,0.2,0.1,0.3c0,0,0,0.1,0,0.1c0,0,0,0-0.1,0c0,0,0,0.1,0,0.1c0,0,0,0.1,0,0.1C6,31,6,31.1,6,31.2
				c0,0.1,0.1,0.2,0.2,0.2c0,0,0,0,0.1,0c0.4,0,0.8,0,1.2,0c0.1,0,0.1,0,0.2,0c0.1-0.1,0.1-0.1,0-0.2c0,0-0.1,0-0.2,0
				c-0.1,0-0.1,0-0.2,0c-0.2-0.1-0.3-0.2-0.4-0.3c0,0,0,0,0,0c0-0.1,0-0.2-0.1-0.2c0,0,0-0.1,0-0.1c0-0.1,0-0.1,0-0.2
				c0-0.1,0-0.1,0-0.2c0,0,0-0.1,0-0.1c0-0.2,0.1-0.4,0.1-0.6s0-0.4-0.1-0.5c0,0,0-0.1,0-0.1c0-0.1,0-0.2,0-0.3
				c-0.1-0.1-0.2-0.2-0.3-0.4c-0.1-0.1-0.1-0.1-0.2-0.2c0,0,0,0,0,0C6.1,27.6,6,27.5,6,27.4c0,0-0.1-0.1-0.1-0.1s0-0.1-0.1-0.1
				c0-0.1-0.1-0.2-0.2-0.2c0,0,0,0,0,0c0.1,0,0.2-0.1,0.2-0.1C6,26.7,6,26.6,6,26.5c0-0.1,0-0.1,0.1-0.1c0.2,0,0.4,0,0.6-0.1
				c0,0,0.1,0,0.1,0v0c0.2,0,0.3-0.1,0.5-0.1c0,0,0.3,0,0.3,0.1c0,0,0.1,0,0.1,0c0,0,0.1,0,0.1-0.1C7.9,26.1,7.9,26,7.8,25.9z"/>
		</g>
		<path class="st1" d="M3.2,26.8c0.1,0,0.2,0.1,0.3,0.1c0,0.1,0,0.1-0.1,0.2C3.3,27,3.2,27,3.1,27c-0.1,0,0-0.3,0-0.4c0,0,0,0,0,0
			c-0.1,0-0.2-0.1-0.3-0.2c0,0,0-0.1,0-0.1c-0.1-0.1-0.1-0.3,0-0.5c0.1-0.2,0.1-0.3,0.2-0.5c0-0.1,0.1-0.1,0.1-0.2c0,0,0,0,0-0.1
			c0.1-0.3,0.2-0.6,0.4-0.9c0.1-0.2,0.3-0.4,0.5-0.5c0,0,0.1,0,0.1,0c0,0,0.1,0,0.1-0.1c0,0,0.1,0,0.1,0c0,0,0.1,0,0.1,0
			c0.1-0.1,0.2-0.2,0.2-0.2c0.2,0,0.2,0.2,0.2,0.5c0,0.1,0,0.1,0,0.1c0.1,0,0.2,0,0.3,0c0.2,0,0.3,0.2,0.2,0.4
			c0,0.2-0.1,0.4-0.1,0.5c-0.1,0.2-0.1,0.4-0.2,0.6c0,0.1,0,0.1-0.1,0.2c0,0.1-0.1,0.3-0.2,0.4c0,0,0,0,0,0c0,0,0,0,0,0
			c0.1,0,0.1,0,0.1,0.1c0,0,0,0.1-0.1,0.1c0,0-0.1,0-0.1,0.1c0,0.2-0.2,0.3-0.3,0.3c0,0.1,0,0.2,0.1,0.2c0,0.1,0,0.2-0.1,0.3
			c0,0,0,0-0.1,0c0,0,0,0,0,0c-0.1,0-0.1,0-0.1-0.2c0,0,0,0,0.1,0c0-0.1,0-0.2,0-0.3c0.1-0.1,0.1-0.2,0.2-0.2c0-0.1,0-0.1,0-0.2
			c-0.1,0-0.1-0.1-0.2-0.2c0,0.2-0.1,0.2-0.2,0.4c-0.1,0.2-0.2,0.3-0.4,0.2c-0.1,0-0.3,0-0.4,0c0,0-0.1,0-0.1,0.1s0,0-0.1,0
			C3.3,26.7,3.2,26.7,3.2,26.8z M4.9,24.1C5,24.1,5,24.3,5,24.4c0,0.1,0,0.1-0.1,0.2c-0.1,0.2-0.2,0.5-0.3,0.7
			c-0.1,0.2-0.2,0.4-0.2,0.7c0,0,0,0,0,0.1c0.1,0,0.1,0.1,0.2,0.1c0.1,0,0.2,0,0.2-0.1c0-0.3,0.1-0.6,0.2-0.9
			c0.1-0.2,0.1-0.5,0.2-0.7c0-0.1,0-0.2,0-0.3S5.2,24,5.1,24C5,24,5,24,4.9,24.1z M4.5,23.6c0.1,0,0.1,0.1,0.1,0.1
			c0,0.1,0.1,0.1,0.1,0.1c0,0,0,0,0,0c0-0.1,0-0.1,0.1-0.2c0,0,0,0,0,0c-0.1,0-0.2-0.1-0.2-0.1C4.5,23.5,4.5,23.6,4.5,23.6z"/>
	</g>
</g>
<g>
	<path class="st1" d="M54.5,18.1c0,0.1-0.1,0.1-0.2,0c-0.2-0.1-0.4-0.3-0.5-0.4c-0.1,0-0.2-0.1-0.2-0.1c-0.2,0-0.5,0-0.7,0
		c-0.2,0-0.3,0.1-0.4,0.2c-0.1,0.1-0.2,0.3-0.2,0.4l2,0.5C54.6,18.6,54.7,18.4,54.5,18.1z"/>
	<path class="st1" d="M63,32.8c0,0-2.5-3.4-6.8-8.6l0.2-0.1c0,0,1.9,2.1,6.8,8.6L63,32.8z"/>
	<path class="st1" d="M42.2,36.2c0,0,2.1-3.2,5.4-9.1l0.2,0.1c0,0-1.1,2.2-5.4,9.1L42.2,36.2z"/>
	<g>
		<path class="st1" d="M57.2,24c-0.2-0.2-0.4-0.4-0.7-0.5c-0.4-0.2-0.5-0.1-0.9,0.1c-0.1,0-0.5,0-0.6,0c-0.2,0-0.5,0-0.7,0
			c-0.1,0-0.2,0.1-0.2,0.1c-0.1,0-0.2,0.1-0.3,0c-0.1-0.1-0.3-0.2-0.4-0.2c0,0,0,0,0-0.1c0-0.1,0-0.2,0-0.4
			c-0.1-0.6-0.2-1.2-0.4-1.8c0-0.1,0-0.2,0.1-0.3c0,0.1,0,0.2,0,0.3c0,0,0-0.1,0-0.2c0,0,0-0.1,0-0.2s0-0.1,0.1-0.1
			c0.1-0.1,0.1-0.1,0.1-0.2c0,0,0,0,0-0.1c0-0.1,0.1-0.1,0.2-0.1c0.2,0,0.2-0.1,0.3-0.2c0,0,0-0.1,0-0.1c0.2-0.3,0.3-0.5,0.4-0.8
			c0,0,0-0.1,0-0.1c0.1-0.1,0.1-0.2,0.1-0.3s0-0.2,0-0.3c-0.2-0.5-0.4-0.9-1-1c-0.5,0-0.8,0.2-1.1,0.7c-0.1,0.2-0.1,0.6-0.1,0.8
			c-0.1-0.1-0.2-0.1-0.4-0.2c-0.1-0.1-0.2-0.2-0.2-0.2c-0.1-0.1-0.2-0.1-0.3,0c-0.2,0.2-0.3,0.5-0.4,0.7c0,0.1-0.1,0.1-0.2,0.1
			c-0.1,0.1-0.2,0.1-0.2,0.3c0,0.1,0.1,0.1,0.1,0.2c-0.3,0.3-0.4,0.5-0.7,0.7c-0.5,0.4-1,0.9-1.5,1.3c-0.1,0.1-0.2,0.3-0.3,0.5
			c-0.1,0.2-0.2,0.5-0.3,0.7c-0.2,0.3-0.4,0.6-0.5,1C47.1,24.7,47,25,47,25.2c-0.1,0.6-0.2,1.1-0.4,1.6c0,0.1-0.1,0.2-0.1,0.4
			c0,0.3,0.1,0.4,0.2,0.6c0,0,0,0,0,0c0,0.1,0.1,0.1,0.2,0.1s0.1,0,0.2,0c0.1,0,0.1,0.1,0.1,0.1c0.1,0,0.1-0.1,0.1-0.1
			c0-0.1,0.1-0.3,0.1-0.4c0-0.1,0.1-0.2,0.2-0.3c0,0,0,0,0,0c0,0.2,0,0.4,0.1,0.6c0-0.2,0.1-0.4,0.2-0.6c0-0.2,0-0.4,0-0.5
			c0,0,0-0.1,0-0.1c0.1,0,0.1-0.1,0.1-0.2c0-0.2,0.1-0.4,0.2-0.5c0.1-0.1,0.3-0.3,0.4-0.4c0.2-0.3,0.2-0.5,0.1-0.7
			c0-0.1,0-0.1,0.1-0.2c0.2-0.2,0.4-0.3,0.6-0.5c0,0,0,0,0.1,0c0,0.1,0,0.3-0.1,0.5c-0.1,0.2-0.2,0.4-0.2,0.6
			c-0.1,0.2-0.2,0.4-0.2,0.6c0,0.2,0,0.4,0,0.5c0,0.2,0,0.3,0,0.4c0,0.2,0.1,0.4,0.1,0.6c0,0,0,0.1,0,0.1c-0.1,0.1-0.1,0.2,0,0.2
			c0.1,0.2,0.2,0.3,0.3,0.4c0,0,0.1,0.1,0.1,0.1c0,0.5,0,0.9,0,1.4c0,0.2-0.1,0.3-0.1,0.5c-0.1,0.4-0.2,0.7-0.4,1.1
			c0,0.1-0.1,0.1-0.2,0.2c-0.1,0.2-0.3,0.4-0.4,0.7c-0.2,0.3-0.4,0.6-0.5,0.9c-0.2,0.6-0.5,1.2-0.7,1.8c-0.1,0.2-0.2,0.4-0.3,0.6
			c-0.2,0.5-0.3,1.1-0.3,1.6c0,0.1,0.1,0.2,0.2,0.2c0.6,0.1,1.2,0.1,1.9,0.1c0.3,0,0.6-0.1,0.9-0.1c0.1,0,0.2-0.1,0.2-0.2
			c0-0.2-0.1-0.3-0.2-0.4c-0.3-0.1-0.6-0.2-0.9-0.4C48,35.9,48,35.8,48,35.7c0.1-0.1,0.2-0.1,0.3-0.3c0.2-0.5,0.4-1,0.6-1.4
			c0-0.1,0.1-0.2,0.2-0.3c0.1-0.3,0.2-0.6,0.4-0.8c0.1-0.2,0.2-0.3,0.3-0.4c0.6-0.5,1.1-1.1,1.4-1.8c0.2-0.3,0.3-0.7,0.5-1
			c0.2,0.1,0.4,0.2,0.5,0.3c0.2,0.1,0.3,0.1,0.5,0.2c0.3,0.1,0.5,0.3,0.6,0.6c0,0,0,0.1,0.1,0.1c0.1,0.1,0.1,0.2,0.2,0.3
			c0,0.3,0.1,0.6,0.1,0.9c0,0.4,0,0.8,0,1.2c0,0.2,0,0.4,0.1,0.6c0,0.1,0,0.2,0,0.2c0,0-0.1,0.1-0.1,0.1c-0.1,0.1-0.1,0.2,0,0.3
			c0,0,0,0.1,0,0.2c0,0.2-0.1,0.5-0.1,0.7c0,0.3,0.1,0.4,0.4,0.5c0,0,0.1,0,0.1,0c0.8,0,1.7,0,2.5-0.1c0.1,0,0.3,0,0.4-0.1
			c0.2-0.1,0.2-0.3,0-0.4c-0.1-0.1-0.2-0.1-0.3-0.1c-0.1,0-0.3,0-0.4,0c-0.3-0.2-0.6-0.4-0.8-0.7c0,0,0-0.1,0-0.1
			c0-0.2,0-0.4-0.1-0.5C55,33.7,55,33.7,55,33.5c0-0.2,0.1-0.3,0-0.5c0-0.1-0.1-0.2-0.1-0.3c0-0.1,0-0.2,0-0.3
			c0-0.4,0.1-0.9,0.1-1.4c0-0.4-0.1-0.8-0.2-1.2c0,0,0-0.1,0-0.2c0.1-0.2,0.1-0.5,0-0.7c-0.2-0.3-0.4-0.5-0.6-0.8
			c-0.1-0.2-0.2-0.3-0.3-0.5c0,0,0-0.1-0.1-0.1c-0.1-0.1-0.3-0.3-0.4-0.4c0-0.1-0.1-0.1-0.2-0.2s-0.1-0.1-0.1-0.2
			c-0.1-0.2-0.1-0.4-0.3-0.5c0,0,0,0,0.1-0.1c0.2-0.1,0.3-0.2,0.4-0.3c0.2-0.2,0.2-0.5,0.2-0.8c0-0.2,0-0.2,0.2-0.2
			c0.4,0,0.9-0.1,1.3-0.2c0.1,0,0.2-0.1,0.3-0.1c0,0,0,0,0,0c0.4,0,0.6-0.1,1.1-0.3c0,0,0.6,0,0.6,0.2c0,0.1,0.2,0.1,0.2,0.1
			s0.2,0,0.2-0.1C57.5,24.4,57.5,24.2,57.2,24z"/>
	</g>
	<path class="st1" d="M47.2,25.9c0.2,0.1,0.4,0.1,0.6,0.2c-0.1,0.1-0.1,0.3-0.2,0.4c-0.2-0.1-0.4-0.1-0.6-0.2
		c-0.2-0.1-0.1-0.5,0.1-0.8c0,0,0,0,0,0c-0.3,0-0.5-0.2-0.6-0.5c0-0.1,0-0.1-0.1-0.2c-0.1-0.3-0.1-0.6,0-1c0.2-0.4,0.3-0.7,0.5-1.1
		c0.1-0.1,0.2-0.3,0.3-0.4c0,0,0.1-0.1,0.1-0.2c0.3-0.6,0.5-1.2,0.8-1.9c0.2-0.5,0.6-0.9,1-1c0.1,0,0.2,0,0.2,0s0.2,0,0.2-0.1
		c0,0,0.1,0,0.2,0c0.1,0,0.1,0,0.1-0.1c0.1-0.3,0.3-0.4,0.5-0.4c0.4,0.1,0.5,0.5,0.4,1c0,0.1,0,0.1,0.1,0.1c0.2,0,0.4,0,0.6,0
		c0.4,0.1,0.6,0.4,0.5,0.9c0,0.4-0.1,0.8-0.2,1.1c-0.1,0.4-0.3,0.9-0.5,1.3c0,0.1-0.1,0.2-0.1,0.4c0,0.3-0.2,0.6-0.3,0.9
		c0,0,0,0,0,0.1c0,0,0,0,0,0c0.1,0,0.1,0.1,0.1,0.2c0,0.1-0.1,0.2-0.1,0.3c0,0.1-0.1,0.1-0.2,0.1c-0.1,0.5-0.3,0.7-0.7,0.7
		c0,0.2,0.1,0.4,0.1,0.5c0.1,0.2,0,0.4-0.2,0.6c0,0-0.1,0-0.1,0s0,0-0.1,0c-0.3-0.1-0.3,0-0.1-0.5c0,0,0.1,0,0.1,0
		c-0.1-0.2-0.1-0.5,0.1-0.7c0.1-0.2,0.3-0.4,0.5-0.4c0-0.2,0.1-0.3,0.1-0.4c-0.2,0-0.3-0.3-0.5-0.4c-0.1,0.2-0.2,0.5-0.3,0.7
		c-0.3,0.5-0.4,0.6-0.8,0.5c-0.3,0-0.6-0.1-0.9-0.1c-0.1,0-0.2,0-0.2,0.1c0,0.1-0.1,0.1-0.2,0.1C47.5,25.7,47.4,25.7,47.2,25.9z
		 M51,20c0.2,0.2,0.2,0.4,0.1,0.6c0,0.1-0.1,0.3-0.1,0.5c-0.2,0.5-0.4,1-0.6,1.5c-0.2,0.5-0.4,0.9-0.4,1.4c0,0,0,0.1,0,0.1
		c0.1,0.1,0.2,0.2,0.4,0.3c0.2,0.1,0.3,0,0.4-0.3c0.1-0.6,0.2-1.3,0.4-1.9c0.1-0.5,0.3-1,0.4-1.5c0-0.2,0-0.4,0-0.6
		c0-0.2-0.1-0.3-0.3-0.2C51.3,19.9,51.2,20,51,20z M50.2,19.1c0.1,0,0.2,0.1,0.2,0.3c0,0.1,0.1,0.2,0.2,0.2c0,0,0.1,0,0.1-0.1
		c0-0.1,0.1-0.3,0.1-0.5c0,0,0-0.1,0-0.1c-0.2-0.1-0.3-0.1-0.5-0.2C50.2,18.9,50.2,19,50.2,19.1z"/>
</g>
<g>
	<path class="st1" d="M65.4,20.7c0,0.1-0.1,0-0.1,0c-0.1-0.1-0.3-0.2-0.4-0.3c0,0-0.1,0-0.2,0c-0.2,0-0.3,0-0.5,0
		c-0.1,0-0.2,0-0.3,0.1s-0.1,0.2-0.2,0.3l1.4,0.4C65.5,21.1,65.5,20.9,65.4,20.7z"/>
	<path class="st1" d="M71.4,31.1c0,0-1.8-2.4-4.8-6.1l0.2-0.1c0,0,1.4,1.5,4.8,6.1L71.4,31.1z"/>
	<path class="st1" d="M56.6,33.6c0,0,1.5-2.3,3.9-6.5l0.2,0.1c0,0-0.8,1.5-3.8,6.5L56.6,33.6z"/>
	<g>
		<path class="st1" d="M67.3,24.9c-0.2-0.1-0.3-0.3-0.5-0.4c-0.3-0.1-0.4-0.1-0.7,0.1c-0.1,0-0.3,0-0.4,0c-0.2,0-0.3,0-0.5,0
			c-0.1,0-0.1,0-0.2,0.1c-0.1,0-0.1,0.1-0.2,0c-0.1,0-0.2-0.1-0.3-0.2c0,0,0,0,0,0c0-0.1,0-0.2,0-0.3c-0.1-0.4-0.2-0.8-0.3-1.2
			c0-0.1,0-0.2,0.1-0.2c0,0.1,0,0.2,0,0.2c0,0,0-0.1,0-0.1s0-0.1,0-0.1c0,0,0-0.1,0-0.1c0.1-0.1,0.1-0.1,0.1-0.2c0,0,0,0,0,0
			c0-0.1,0.1-0.1,0.2-0.1c0.1,0,0.2,0,0.2-0.2c0,0,0,0,0-0.1c0.1-0.2,0.2-0.4,0.3-0.6c0,0,0-0.1,0-0.1c0-0.1,0.1-0.1,0.1-0.2
			s0-0.1,0-0.2c-0.1-0.4-0.3-0.6-0.7-0.7c-0.4,0-0.6,0.1-0.8,0.5c-0.1,0.2,0,0.4-0.1,0.6c-0.1,0-0.2-0.1-0.3-0.2
			c-0.1,0-0.1-0.1-0.2-0.1c-0.1,0-0.1,0-0.2,0c-0.1,0.2-0.2,0.4-0.3,0.5c0,0-0.1,0.1-0.1,0.1c-0.1,0.1-0.1,0.1-0.1,0.2
			c0,0,0,0.1,0.1,0.1c-0.2,0.2-0.3,0.3-0.5,0.5c-0.3,0.3-0.7,0.6-1.1,0.9c-0.1,0.1-0.2,0.2-0.2,0.4c-0.1,0.2-0.2,0.3-0.2,0.5
			c-0.1,0.2-0.3,0.5-0.4,0.7c-0.1,0.2-0.1,0.4-0.2,0.6c0,0.4-0.1,0.8-0.3,1.2c0,0.1-0.1,0.2-0.1,0.3c0,0.2,0.1,0.3,0.2,0.4
			c0,0,0,0,0,0c0,0,0.1,0.1,0.1,0.1s0.1,0,0.1,0c0,0,0,0,0.1,0c0,0,0.1,0,0.1-0.1c0-0.1,0-0.2,0.1-0.3s0.1-0.1,0.1-0.2c0,0,0,0,0,0
			c0,0.2,0,0.3,0.1,0.4c0-0.1,0.1-0.3,0.1-0.4c0-0.1,0-0.2,0-0.4c0,0,0-0.1,0-0.1c0.1,0,0.1-0.1,0.1-0.2c0-0.1,0.1-0.2,0.2-0.4
			c0.1-0.1,0.2-0.2,0.3-0.3c0.1-0.2,0.1-0.3,0-0.5c0-0.1,0-0.1,0-0.1c0.1-0.1,0.3-0.2,0.4-0.3c0,0,0,0,0,0c0,0.1,0,0.2-0.1,0.3
			c0,0.1-0.1,0.3-0.2,0.5c-0.1,0.1-0.1,0.3-0.2,0.4c0,0.1,0,0.3,0,0.4s0,0.2,0,0.3c0,0.1,0,0.3,0.1,0.4c0,0,0,0,0,0.1
			c0,0.1-0.1,0.1,0,0.2c0.1,0.1,0.2,0.2,0.2,0.3c0,0,0,0,0,0.1c0,0.3,0,0.6,0,1c0,0.1-0.1,0.2-0.1,0.4c-0.1,0.3-0.2,0.5-0.3,0.8
			c0,0.1-0.1,0.1-0.1,0.2c-0.1,0.2-0.2,0.3-0.3,0.5c-0.1,0.2-0.3,0.4-0.3,0.6c-0.2,0.4-0.3,0.8-0.5,1.2c-0.1,0.1-0.2,0.3-0.2,0.4
			c-0.1,0.4-0.2,0.8-0.2,1.2c0,0.1,0,0.2,0.2,0.2c0.4,0,0.9,0.1,1.3,0.1c0.2,0,0.4,0,0.6-0.1c0.1,0,0.1-0.1,0.1-0.1
			c0-0.1,0-0.2-0.2-0.3c-0.2-0.1-0.4-0.2-0.6-0.3c-0.1-0.1-0.1-0.1-0.1-0.2c0.1-0.1,0.1-0.1,0.2-0.2c0.2-0.3,0.3-0.7,0.5-1
			c0-0.1,0.1-0.1,0.1-0.2c0.1-0.2,0.2-0.4,0.3-0.6c0.1-0.1,0.2-0.2,0.2-0.3c0.4-0.4,0.8-0.8,1-1.3c0.1-0.2,0.2-0.5,0.3-0.7
			c0.1,0.1,0.2,0.2,0.4,0.2c0.1,0,0.2,0.1,0.3,0.1c0.2,0.1,0.3,0.2,0.4,0.4c0,0,0,0.1,0,0.1c0.1,0.1,0.1,0.1,0.1,0.2
			c0,0.2,0.1,0.4,0.1,0.6c0,0.3,0,0.6,0,0.9c0,0.2,0,0.3,0.1,0.4c0,0.1,0,0.1,0,0.2c0,0-0.1,0-0.1,0.1c-0.1,0.1-0.1,0.1,0,0.2
			c0,0,0,0.1,0,0.1c0,0.2-0.1,0.3-0.1,0.5c0,0.2,0.1,0.3,0.3,0.4c0,0,0.1,0,0.1,0c0.6,0,1.2,0,1.8-0.1c0.1,0,0.2,0,0.3-0.1
			c0.1-0.1,0.1-0.2,0-0.3c-0.1,0-0.2-0.1-0.2-0.1s-0.2,0-0.3,0c-0.2-0.1-0.4-0.2-0.6-0.5c0,0,0-0.1,0-0.1c0-0.2,0-0.3-0.1-0.4
			c-0.1-0.1-0.1-0.1,0-0.2c0-0.1,0.1-0.2,0-0.3c0-0.1-0.1-0.1-0.1-0.2c0-0.1,0-0.1,0-0.2c0-0.3,0.1-0.6,0.1-1s-0.1-0.6-0.1-0.9
			c0,0,0-0.1,0-0.1c0-0.2,0-0.4,0-0.5c-0.1-0.2-0.3-0.4-0.4-0.6c-0.1-0.1-0.2-0.2-0.2-0.3c0,0,0,0-0.1-0.1c-0.1-0.1-0.2-0.2-0.3-0.3
			c0-0.1-0.1-0.1-0.1-0.2c0,0-0.1-0.1-0.1-0.1c0-0.1-0.1-0.2-0.2-0.4c0,0,0,0,0.1,0c0.1,0,0.2-0.1,0.3-0.2c0.1-0.2,0.1-0.4,0.2-0.6
			c0-0.1,0-0.1,0.2-0.1c0.3,0,0.6-0.1,0.9-0.1c0.1,0,0.1,0,0.2-0.1c0,0,0,0,0,0c0.3,0,0.4-0.1,0.8-0.2c0,0,0.4,0,0.4,0.2
			c0,0,0.1,0.1,0.2,0.1c0.1,0,0.1,0,0.1-0.1C67.5,25.2,67.5,25,67.3,24.9z"/>
	</g>
	<path class="st1" d="M60.2,26.2c0.1,0,0.3,0.1,0.4,0.2c0,0.1-0.1,0.2-0.1,0.3c-0.1,0-0.3-0.1-0.4-0.2C60,26.5,60,26.1,60.2,26
		c0,0,0,0,0,0c-0.2,0-0.3-0.1-0.4-0.4c0,0,0-0.1,0-0.1c-0.1-0.2-0.1-0.5,0-0.7c0.1-0.3,0.2-0.5,0.3-0.8c0-0.1,0.1-0.2,0.2-0.3
		c0,0,0-0.1,0.1-0.1c0.2-0.4,0.4-0.9,0.6-1.3c0.2-0.4,0.4-0.6,0.7-0.7c0,0,0.1,0,0.2,0c0,0,0.1,0,0.2-0.1c0,0,0.1,0,0.1,0
		c0,0,0.1,0,0.1-0.1c0.1-0.2,0.2-0.3,0.4-0.3c0.3,0.1,0.4,0.3,0.3,0.7c0,0.1,0,0.1,0.1,0.1c0.1,0,0.3,0,0.4,0c0.3,0,0.4,0.2,0.4,0.6
		c0,0.3-0.1,0.5-0.2,0.8c-0.1,0.3-0.2,0.6-0.3,0.9c0,0.1-0.1,0.2-0.1,0.3c0,0.2-0.1,0.4-0.2,0.6c0,0,0,0,0,0.1c0,0,0,0,0,0
		c0.1,0,0.1,0,0.1,0.1c0,0.1,0,0.1-0.1,0.2c0,0-0.1,0.1-0.1,0.1c-0.1,0.4-0.2,0.5-0.5,0.5c0,0.1,0.1,0.3,0.1,0.4
		c0,0.1,0,0.3-0.1,0.4c0,0,0,0-0.1,0s0,0,0,0c-0.2,0-0.2,0-0.1-0.3c0,0,0.1,0,0.1,0c0-0.2,0-0.3,0.1-0.5c0.1-0.2,0.2-0.3,0.4-0.3
		c0-0.1,0-0.2,0.1-0.3c-0.2,0-0.2-0.2-0.4-0.3c-0.1,0.2-0.2,0.3-0.2,0.5c-0.2,0.3-0.3,0.4-0.6,0.4C61.2,26,61,26,60.8,26
		c0,0-0.1,0-0.1,0.1c0,0.1-0.1,0.1-0.1,0.1C60.4,26.1,60.3,26.1,60.2,26.2z M62.9,22.1c0.1,0.1,0.1,0.3,0.1,0.5c0,0.1,0,0.2-0.1,0.3
		c-0.1,0.4-0.3,0.7-0.4,1.1c-0.1,0.3-0.3,0.7-0.3,1c0,0,0,0.1,0,0.1c0.1,0.1,0.2,0.2,0.3,0.2c0.1,0.1,0.2,0,0.3-0.2
		c0.1-0.5,0.2-0.9,0.3-1.4c0.1-0.4,0.2-0.7,0.3-1.1c0-0.1,0-0.3,0-0.4c0-0.1-0.1-0.2-0.2-0.2C63.1,22,63,22,62.9,22.1z M62.3,21.4
		c0.1,0,0.2,0.1,0.2,0.2c0,0.1,0.1,0.1,0.2,0.1c0,0,0.1,0,0.1,0c0-0.1,0-0.2,0.1-0.3c0,0,0-0.1,0-0.1c-0.1,0-0.2-0.1-0.3-0.1
		C62.4,21.3,62.3,21.4,62.3,21.4z"/>
</g>
<g>
	<path class="st1" d="M72.6,23.2C72.6,23.2,72.5,23.2,72.6,23.2c-0.2,0-0.2-0.1-0.3-0.2c0,0-0.1,0-0.1,0c-0.1,0-0.2,0-0.3,0
		c-0.1,0-0.1,0-0.2,0.1s-0.1,0.1-0.1,0.2l0.9,0.2C72.7,23.4,72.7,23.3,72.6,23.2z"/>
	<path class="st1" d="M76.5,30c0,0-1.2-1.6-3.2-4l0.1-0.1c0,0,0.9,1,3.2,4L76.5,30z"/>
	<path class="st1" d="M66.9,31.5c0,0,1-1.5,2.5-4.2l0.1,0.1c0,0-0.5,1-2.5,4.2L66.9,31.5z"/>
	<g>
		<path class="st1" d="M73.9,25.9c-0.1-0.1-0.2-0.2-0.3-0.2c-0.2-0.1-0.2,0-0.4,0c-0.1,0-0.2,0-0.3,0c-0.1,0-0.2,0-0.3,0
			c0,0-0.1,0-0.1,0c0,0-0.1,0-0.1,0c-0.1,0-0.1-0.1-0.2-0.1c0,0,0,0,0,0c0-0.1,0-0.1,0-0.2C72,25.2,72,25,71.9,24.7
			c0-0.1,0-0.1,0.1-0.1c0,0,0,0.1,0,0.2c0,0,0,0,0-0.1s0,0,0-0.1s0,0,0-0.1c0,0,0-0.1,0-0.1c0,0,0,0,0,0c0,0,0.1,0,0.1,0
			c0.1,0,0.1,0,0.1-0.1c0,0,0,0,0,0c0.1-0.1,0.2-0.2,0.2-0.4c0,0,0,0,0,0c0,0,0-0.1,0-0.1s0-0.1,0-0.1c-0.1-0.2-0.2-0.4-0.5-0.4
			c-0.2,0-0.4,0.1-0.5,0.3c-0.1,0.1,0,0.3-0.1,0.4c-0.1,0-0.1-0.1-0.2-0.1c0,0-0.1-0.1-0.1-0.1c-0.1,0-0.1,0-0.1,0
			c-0.1,0.1-0.1,0.2-0.2,0.3c0,0-0.1,0-0.1,0.1c-0.1,0-0.1,0.1-0.1,0.1c0,0,0,0.1,0.1,0.1c-0.1,0.1-0.2,0.2-0.3,0.3
			c-0.2,0.2-0.5,0.4-0.7,0.6c-0.1,0-0.1,0.1-0.2,0.2c-0.1,0.1-0.1,0.2-0.2,0.3c-0.1,0.1-0.2,0.3-0.2,0.5c-0.1,0.1-0.1,0.2-0.1,0.4
			c0,0.3-0.1,0.5-0.2,0.8c0,0.1-0.1,0.1-0.1,0.2c0,0.1,0,0.2,0.1,0.3c0,0,0,0,0,0c0,0,0.1,0.1,0.1,0.1s0.1,0,0.1,0s0,0,0.1,0
			c0,0,0.1,0,0.1-0.1c0,0,0-0.1,0.1-0.2c0,0,0.1-0.1,0.1-0.1c0,0,0,0,0,0c0,0.1,0,0.2,0.1,0.3c0-0.1,0.1-0.2,0.1-0.3
			c0-0.1,0-0.2,0-0.2c0,0,0,0,0-0.1c0.1,0,0.1-0.1,0.1-0.1c0-0.1,0-0.2,0.1-0.2c0.1-0.1,0.1-0.1,0.2-0.2c0.1-0.1,0.1-0.2,0-0.3
			c0,0,0-0.1,0-0.1c0.1-0.1,0.2-0.1,0.3-0.2c0,0,0,0,0,0c0,0.1,0,0.1,0,0.2c0,0.1-0.1,0.2-0.1,0.3c0,0.1-0.1,0.2-0.1,0.3
			c0,0.1,0,0.2,0,0.2s0,0.1,0,0.2c0,0.1,0,0.2,0,0.3c0,0,0,0,0,0c0,0,0,0.1,0,0.1c0.1,0.1,0.1,0.1,0.2,0.2c0,0,0,0,0,0
			c0,0.2,0,0.4,0,0.6c0,0.1,0,0.2-0.1,0.2c0,0.2-0.1,0.3-0.2,0.5c0,0-0.1,0.1-0.1,0.1c-0.1,0.1-0.1,0.2-0.2,0.3
			c-0.1,0.1-0.2,0.3-0.2,0.4c-0.1,0.3-0.2,0.5-0.3,0.8c0,0.1-0.1,0.2-0.1,0.3c-0.1,0.2-0.1,0.5-0.2,0.8c0,0.1,0,0.1,0.1,0.1
			c0.3,0,0.6,0.1,0.9,0.1c0.1,0,0.3,0,0.4-0.1c0,0,0.1,0,0.1-0.1c0-0.1,0-0.1-0.1-0.2c-0.1-0.1-0.3-0.1-0.4-0.2
			c-0.1,0-0.1-0.1-0.1-0.1c0.1,0,0.1-0.1,0.1-0.1c0.1-0.2,0.2-0.4,0.3-0.7c0,0,0.1-0.1,0.1-0.1c0.1-0.1,0.1-0.3,0.2-0.4
			c0-0.1,0.1-0.1,0.2-0.2c0.3-0.2,0.5-0.5,0.7-0.8c0.1-0.1,0.1-0.3,0.2-0.5c0.1,0.1,0.2,0.1,0.2,0.2c0.1,0,0.2,0.1,0.2,0.1
			c0.1,0.1,0.2,0.1,0.3,0.3c0,0,0,0,0,0c0,0,0.1,0.1,0.1,0.1c0,0.1,0,0.3,0,0.4c0,0.2,0,0.4,0,0.5c0,0.1,0,0.2,0.1,0.3
			c0,0,0,0.1,0,0.1c0,0,0,0-0.1,0c0,0,0,0.1,0,0.1c0,0,0,0.1,0,0.1c0,0.1-0.1,0.2-0.1,0.3c0,0.1,0.1,0.2,0.2,0.2c0,0,0,0,0.1,0
			c0.4,0,0.8,0,1.2,0c0.1,0,0.1,0,0.2,0c0.1-0.1,0.1-0.1,0-0.2c0,0-0.1,0-0.2,0c-0.1,0-0.1,0-0.2,0c-0.2-0.1-0.3-0.2-0.4-0.3
			c0,0,0,0,0,0c0-0.1,0-0.2-0.1-0.2c0,0,0-0.1,0-0.1c0-0.1,0-0.1,0-0.2c0,0,0-0.1-0.1-0.1s0-0.1,0-0.1c0-0.2,0.1-0.4,0.1-0.6
			s0-0.4-0.1-0.5c0,0,0-0.1,0-0.1c0-0.1,0-0.2,0-0.3c-0.1-0.1-0.2-0.2-0.3-0.4c-0.1-0.1-0.1-0.1-0.2-0.2c0,0,0,0,0,0
			c-0.1-0.1-0.1-0.1-0.2-0.2c0,0-0.1-0.1-0.1-0.1c0,0,0-0.1-0.1-0.1c0-0.1-0.1-0.2-0.2-0.2c0,0,0,0,0,0c0.1,0,0.2-0.1,0.2-0.1
			c0.1-0.1,0.1-0.2,0.1-0.4c0-0.1,0-0.1,0.1-0.1c0.2,0,0.4,0,0.6-0.1c0,0,0.1,0,0.1,0v0c0.2,0,0.3-0.1,0.5-0.1c0,0,0.3,0,0.3,0.1
			c0,0,0.1,0,0.1,0c0,0,0.1,0,0.1-0.1C74,26.1,74,26,73.9,25.9z"/>
	</g>
	<path class="st1" d="M69.2,26.8c0.1,0,0.2,0.1,0.3,0.1c0,0.1-0.1,0.1-0.1,0.2c-0.1,0-0.2-0.1-0.3-0.1c-0.1,0-0.1-0.3,0-0.4
		c0,0,0,0,0,0c-0.1,0-0.2-0.1-0.3-0.2c0,0,0-0.1,0-0.1c-0.1-0.1-0.1-0.3,0-0.5c0.1-0.2,0.1-0.3,0.2-0.5c0-0.1,0.1-0.1,0.1-0.2
		c0,0,0,0,0-0.1c0.1-0.3,0.2-0.6,0.4-0.9c0.1-0.2,0.3-0.4,0.5-0.5c0,0,0.1,0,0.1,0s0.1,0,0.1-0.1c0,0,0.1,0,0.1,0c0,0,0.1,0,0.1,0
		c0.1-0.1,0.2-0.2,0.2-0.2c0.2,0,0.2,0.2,0.2,0.5c0,0.1,0,0.1,0,0.1c0.1,0,0.2,0,0.3,0c0.2,0,0.3,0.2,0.2,0.4c0,0.2-0.1,0.4-0.1,0.5
		c-0.1,0.2-0.1,0.4-0.2,0.6c0,0.1,0,0.1-0.1,0.2c0,0.1-0.1,0.3-0.2,0.4c0,0,0,0,0,0c0,0,0,0,0,0c0.1,0,0.1,0,0.1,0.1
		c0,0,0,0.1-0.1,0.1c0,0-0.1,0-0.1,0.1c0,0.2-0.2,0.3-0.3,0.3c0,0.1,0,0.2,0.1,0.2c0,0.1,0,0.2-0.1,0.3c0,0,0,0-0.1,0c0,0,0,0,0,0
		c-0.1,0-0.1,0-0.1-0.2c0,0,0,0,0.1,0c0-0.1,0-0.2,0-0.3c0.1-0.1,0.1-0.2,0.2-0.2c0-0.1,0-0.1,0-0.2c-0.1,0-0.1-0.1-0.2-0.2
		c-0.1,0.1-0.1,0.2-0.2,0.3c-0.1,0.2-0.2,0.3-0.4,0.2c-0.1,0-0.3,0-0.4,0c0,0-0.1,0-0.1,0.1s-0.1,0-0.1,0
		C69.3,26.7,69.3,26.7,69.2,26.8z M71,24.1c0.1,0.1,0.1,0.2,0.1,0.3c0,0.1,0,0.1-0.1,0.2c-0.1,0.2-0.2,0.5-0.3,0.7
		c-0.1,0.2-0.2,0.4-0.2,0.7c0,0,0,0,0,0.1c0.1,0,0.1,0.1,0.2,0.1c0.1,0,0.2,0,0.2-0.1c0-0.3,0.1-0.6,0.2-0.9
		c0.1-0.2,0.1-0.5,0.2-0.7c0-0.1,0-0.2,0-0.3S71.2,24,71.2,24C71.1,24,71.1,24,71,24.1z M70.6,23.6c0.1,0,0.1,0.1,0.1,0.1
		c0,0.1,0.1,0.1,0.1,0.1c0,0,0,0,0,0c0-0.1,0-0.1,0.1-0.2c0,0,0,0,0,0c-0.1,0-0.2-0.1-0.2-0.1C70.6,23.5,70.6,23.6,70.6,23.6z"/>
</g>
<g>
	<g>
		<path class="st1" d="M86.4,14.3v5.2h2.9c0.8,0,1.3-0.1,1.5-0.3c0.3-0.3,0.5-0.8,0.6-1.6h0.4v4.6h-0.4c-0.1-0.6-0.2-1.1-0.3-1.2
			c-0.1-0.2-0.3-0.4-0.6-0.5c-0.3-0.1-0.7-0.2-1.2-0.2h-2.9v4.4c0,0.6,0,0.9,0.1,1.1s0.1,0.2,0.3,0.3s0.4,0.1,0.7,0.1h2.2
			c0.8,0,1.3,0,1.6-0.2c0.3-0.1,0.7-0.3,1-0.6c0.4-0.4,0.8-1,1.2-1.8H94l-1.1,3.3H82.6v-0.4h0.5c0.3,0,0.6-0.1,0.9-0.2
			c0.2-0.1,0.3-0.3,0.4-0.5c0.1-0.2,0.1-0.6,0.1-1.3v-8.6c0-0.8-0.1-1.4-0.2-1.6c-0.2-0.3-0.6-0.4-1.2-0.4h-0.5v-0.4h10.2l0.2,2.9
			h-0.4c-0.1-0.7-0.3-1.2-0.4-1.4c-0.2-0.3-0.4-0.5-0.7-0.6c-0.3-0.1-0.7-0.1-1.4-0.1C90.1,14.3,86.4,14.3,86.4,14.3z"/>
		<path class="st1" d="M102.6,19.5l2.8,4.2c0.8,1.2,1.4,1.9,1.8,2.2s0.9,0.5,1.4,0.5v0.4H103v-0.4c0.4,0,0.7,0,0.8-0.1
			c0.1-0.1,0.2-0.1,0.3-0.3s0.1-0.2,0.1-0.4c0-0.1,0-0.3-0.1-0.5c-0.1-0.1-0.2-0.4-0.5-0.9l-2.2-3.4l-2.8,3.6
			c-0.3,0.4-0.5,0.6-0.5,0.8C98,25.4,98,25.6,98,25.7c0,0.2,0.1,0.4,0.3,0.5c0.2,0.1,0.5,0.2,1,0.2v0.4h-4.7v-0.4
			c0.3,0,0.6-0.1,0.9-0.2c0.4-0.2,0.8-0.4,1.2-0.7c0.4-0.3,0.8-0.7,1.2-1.3l3.1-4l-2.6-3.8c-0.7-1-1.3-1.7-1.8-2
			c-0.5-0.3-1.1-0.5-1.7-0.5v-0.4h6.1v0.4c-0.5,0-0.9,0.1-1.1,0.2s-0.3,0.3-0.3,0.5c0,0.2,0.2,0.6,0.5,1.1l2,3l2.3-3
			c0.3-0.4,0.4-0.6,0.5-0.7s0.1-0.3,0.1-0.4c0-0.1,0-0.3-0.1-0.4c-0.1-0.1-0.2-0.2-0.4-0.3c-0.2-0.1-0.5-0.1-0.9-0.1v-0.4h4.7v0.4
			c-0.4,0-0.7,0.1-0.9,0.2c-0.3,0.1-0.7,0.4-1,0.6c-0.3,0.2-0.7,0.7-1.2,1.4L102.6,19.5z"/>
		<path class="st1" d="M113,20.6v3.9c0,0.8,0.1,1.4,0.3,1.5c0.2,0.3,0.6,0.4,1.1,0.4h0.5v0.4h-5.7v-0.4h0.5c0.6,0,1-0.2,1.2-0.5
			c0.1-0.2,0.2-0.7,0.2-1.4v-8.6c0-0.8-0.1-1.4-0.3-1.6c-0.2-0.3-0.6-0.4-1.1-0.4h-0.5v-0.4h4.8c1.2,0,2.1,0.1,2.8,0.4
			c0.7,0.2,1.3,0.7,1.7,1.2s0.7,1.3,0.7,2.1c0,1.1-0.4,2-1.1,2.6c-0.7,0.7-1.7,1-3,1c-0.3,0-0.7,0-1-0.1
			C113.8,20.8,113.4,20.7,113,20.6z M113,20.1c0.3,0.1,0.7,0.1,0.9,0.1c0.3,0,0.5,0,0.7,0c0.7,0,1.3-0.3,1.8-0.8
			c0.5-0.5,0.7-1.2,0.7-2c0-0.6-0.1-1.1-0.3-1.6c-0.2-0.5-0.6-0.9-1-1.1c-0.4-0.2-0.9-0.4-1.5-0.4c-0.3,0-0.8,0.1-1.3,0.2V20.1z"/>
		<path class="st1" d="M131.5,23.2l0.3,0.1l-1.1,3.6h-10.3v-0.4h0.5c0.6,0,1-0.2,1.2-0.5c0.1-0.2,0.2-0.7,0.2-1.5v-8.6
			c0-0.8-0.1-1.3-0.3-1.6c-0.2-0.3-0.6-0.4-1.1-0.4h-0.5v-0.4h6v0.4c-0.7,0-1.2,0.1-1.5,0.2c-0.3,0.1-0.5,0.3-0.6,0.5
			c-0.1,0.2-0.2,0.7-0.2,1.5v8.3c0,0.5,0.1,0.9,0.2,1.1c0.1,0.1,0.2,0.2,0.4,0.3c0.2,0.1,0.7,0.1,1.5,0.1h1c1,0,1.7-0.1,2.1-0.2
			s0.8-0.4,1.1-0.8C130.8,24.6,131.1,24,131.5,23.2z"/>
		<path class="st1" d="M139.6,13.3c1.7,0,3.2,0.6,4.5,2s1.9,2.9,1.9,4.9c0,2-0.6,3.7-1.9,5c-1.3,1.3-2.8,2-4.6,2
			c-1.8,0-3.4-0.6-4.6-1.9c-1.2-1.3-1.9-3-1.9-5c0-2.1,0.7-3.8,2.1-5.1C136.3,13.9,137.8,13.3,139.6,13.3z M139.4,14
			c-1.2,0-2.1,0.4-2.9,1.3c-0.9,1.1-1.3,2.7-1.3,4.8c0,2.2,0.5,3.8,1.4,5c0.7,0.9,1.6,1.3,2.8,1.3c1.2,0,2.3-0.5,3.1-1.5
			c0.8-1,1.2-2.5,1.2-4.6c0-2.3-0.4-4-1.3-5.1C141.6,14.4,140.6,14,139.4,14z"/>
		<path class="st1" d="M160.2,26.8h-3.5l-4.5-6.2c-0.3,0-0.6,0-0.8,0c-0.1,0-0.2,0-0.3,0c-0.1,0-0.2,0-0.3,0v3.9
			c0,0.8,0.1,1.4,0.3,1.5c0.2,0.3,0.6,0.4,1.1,0.4h0.5v0.4H147v-0.4h0.5c0.6,0,1-0.2,1.2-0.5c0.1-0.2,0.2-0.7,0.2-1.4v-8.6
			c0-0.8-0.1-1.4-0.3-1.6c-0.2-0.3-0.6-0.4-1.1-0.4H147v-0.4h4.8c1.4,0,2.4,0.1,3.1,0.3c0.7,0.2,1.2,0.6,1.7,1.1s0.7,1.2,0.7,2
			c0,0.8-0.3,1.5-0.8,2.1s-1.4,1-2.5,1.3l2.7,3.8c0.6,0.9,1.2,1.5,1.6,1.7c0.4,0.3,1,0.5,1.8,0.5V26.8z M150.8,20c0.1,0,0.2,0,0.3,0
			c0.1,0,0.2,0,0.2,0c1.3,0,2.2-0.3,2.9-0.8c0.6-0.5,1-1.2,1-2.1c0-0.8-0.3-1.5-0.8-2s-1.2-0.8-2.1-0.8c-0.4,0-0.9,0.1-1.5,0.2
			L150.8,20L150.8,20z"/>
		<path class="st1" d="M169.2,22.4H164l-0.9,2.1c-0.2,0.5-0.3,0.9-0.3,1.1c0,0.2,0.1,0.4,0.3,0.5c0.2,0.1,0.6,0.2,1.2,0.3v0.4h-4.2
			v-0.4c0.6-0.1,0.9-0.2,1.1-0.4c0.3-0.3,0.7-1,1.1-1.9l4.7-10.9h0.3l4.6,11c0.4,0.9,0.7,1.5,1,1.7c0.3,0.3,0.7,0.4,1.3,0.5v0.4H169
			v-0.4c0.5,0,0.9-0.1,1.1-0.3s0.3-0.3,0.3-0.5c0-0.3-0.1-0.7-0.4-1.4L169.2,22.4z M168.9,21.7l-2.2-5.4l-2.3,5.4H168.9z"/>
		<path class="st1" d="M174.8,26.8v-0.4h0.5c0.6,0,1-0.2,1.2-0.5c0.1-0.2,0.2-0.7,0.2-1.5v-8.6c0-0.8-0.1-1.3-0.3-1.6
			c-0.2-0.3-0.6-0.4-1.1-0.4h-0.5v-0.4h5.4c2,0,3.5,0.2,4.5,0.7c1,0.4,1.9,1.2,2.5,2.3c0.6,1,0.9,2.3,0.9,3.6c0,1.8-0.6,3.4-1.7,4.6
			c-1.3,1.4-3.2,2.1-5.7,2.1L174.8,26.8L174.8,26.8z M178.6,25.9c0.8,0.2,1.5,0.3,2.1,0.3c1.5,0,2.8-0.5,3.8-1.6s1.5-2.5,1.5-4.3
			c0-1.8-0.5-3.3-1.5-4.3s-2.3-1.6-3.8-1.6c-0.6,0-1.2,0.1-2,0.3V25.9z"/>
		<path class="st1" d="M196.2,13.3c1.7,0,3.2,0.6,4.5,2s1.9,2.9,1.9,4.9c0,2-0.6,3.7-1.9,5c-1.3,1.3-2.8,2-4.6,2
			c-1.8,0-3.4-0.6-4.6-1.9c-1.2-1.3-1.9-3-1.9-5c0-2.1,0.7-3.8,2.1-5.1C193,13.9,194.5,13.3,196.2,13.3z M196,14
			c-1.2,0-2.1,0.4-2.9,1.3c-0.9,1.1-1.3,2.7-1.3,4.8c0,2.2,0.5,3.8,1.4,5c0.7,0.9,1.6,1.3,2.8,1.3c1.2,0,2.3-0.5,3.1-1.5
			c0.8-1,1.2-2.5,1.2-4.6c0-2.3-0.4-4-1.3-5.1C198.3,14.4,197.3,14,196,14z"/>
		<path class="st1" d="M216.9,26.8h-3.5l-4.5-6.2c-0.3,0-0.6,0-0.8,0c-0.1,0-0.2,0-0.3,0c-0.1,0-0.2,0-0.3,0v3.9
			c0,0.8,0.1,1.4,0.3,1.5c0.2,0.3,0.6,0.4,1.1,0.4h0.5v0.4h-5.7v-0.4h0.5c0.6,0,1-0.2,1.2-0.5c0.1-0.2,0.2-0.7,0.2-1.4v-8.6
			c0-0.8-0.1-1.4-0.3-1.6c-0.2-0.3-0.6-0.4-1.1-0.4h-0.5v-0.4h4.8c1.4,0,2.4,0.1,3.1,0.3c0.7,0.2,1.2,0.6,1.7,1.1s0.7,1.2,0.7,2
			c0,0.8-0.3,1.5-0.8,2.1s-1.4,1-2.5,1.3l2.7,3.8c0.6,0.9,1.2,1.5,1.6,1.7c0.4,0.3,1,0.5,1.8,0.5V26.8z M207.5,20c0.1,0,0.2,0,0.3,0
			c0.1,0,0.2,0,0.2,0c1.3,0,2.2-0.3,2.9-0.8c0.6-0.5,1-1.2,1-2.1c0-0.8-0.3-1.5-0.8-2s-1.2-0.8-2.1-0.8c-0.4,0-0.9,0.1-1.5,0.2
			L207.5,20L207.5,20z"/>
		<path class="st1" d="M220.9,14.3v5.2h2.9c0.8,0,1.3-0.1,1.5-0.3c0.3-0.3,0.5-0.8,0.6-1.6h0.4v4.6h-0.4c-0.1-0.6-0.2-1.1-0.3-1.2
			c-0.1-0.2-0.3-0.4-0.6-0.5c-0.3-0.1-0.7-0.2-1.2-0.2h-2.9v4.4c0,0.6,0,0.9,0.1,1.1s0.1,0.2,0.3,0.3s0.4,0.1,0.7,0.1h2.2
			c0.8,0,1.3,0,1.6-0.2c0.3-0.1,0.7-0.3,1-0.6c0.4-0.4,0.8-1,1.2-1.8h0.4l-1.1,3.3h-10.2v-0.4h0.5c0.3,0,0.6-0.1,0.9-0.2
			c0.2-0.1,0.4-0.3,0.4-0.5c0.1-0.2,0.1-0.6,0.1-1.3v-8.6c0-0.8-0.1-1.4-0.2-1.6c-0.2-0.3-0.6-0.4-1.2-0.4h-0.5v-0.4h10.2l0.1,2.9
			h-0.4c-0.1-0.7-0.3-1.2-0.4-1.4c-0.2-0.3-0.4-0.5-0.7-0.6c-0.3-0.1-0.7-0.1-1.4-0.1C224.5,14.3,220.9,14.3,220.9,14.3z"/>
		<path class="st1" d="M238.1,13.3v4.6h-0.4c-0.1-0.9-0.3-1.6-0.6-2.1s-0.7-0.9-1.3-1.2c-0.6-0.3-1.1-0.5-1.7-0.5
			c-0.7,0-1.2,0.2-1.7,0.6c-0.4,0.4-0.7,0.9-0.7,1.4c0,0.4,0.1,0.8,0.4,1.1c0.4,0.5,1.4,1.1,2.9,2c1.2,0.7,2.1,1.2,2.5,1.5
			c0.4,0.4,0.8,0.8,1.1,1.2c0.2,0.5,0.4,1,0.4,1.5c0,1-0.4,1.9-1.2,2.6s-1.8,1.1-3,1.1c-0.4,0-0.8,0-1.1-0.1c-0.2,0-0.6-0.1-1.3-0.4
			c-0.6-0.2-1-0.3-1.2-0.3c-0.2,0-0.3,0-0.4,0.1c-0.1,0.1-0.2,0.3-0.2,0.6h-0.4v-4.5h0.4c0.2,1,0.4,1.7,0.7,2.1
			c0.3,0.5,0.7,0.9,1.3,1.2c0.6,0.3,1.2,0.5,1.9,0.5c0.8,0,1.5-0.2,1.9-0.6c0.5-0.4,0.7-0.9,0.7-1.5c0-0.3-0.1-0.6-0.3-1
			c-0.2-0.3-0.5-0.6-0.8-0.9c-0.2-0.2-0.9-0.6-2.1-1.2c-1.1-0.6-1.9-1.1-2.4-1.5c-0.5-0.4-0.8-0.8-1.1-1.2s-0.4-1-0.4-1.5
			c0-0.9,0.4-1.8,1.1-2.5s1.7-1,2.8-1c0.7,0,1.4,0.2,2.2,0.5c0.4,0.2,0.6,0.2,0.8,0.2c0.2,0,0.3-0.1,0.4-0.1
			c0.1-0.1,0.2-0.3,0.3-0.6L238.1,13.3L238.1,13.3z"/>
	</g>
	<g>
		<path class="st1" d="M94.6,41.5c-0.3-0.2-0.6-0.4-0.8-0.6s-0.3-0.6-0.3-0.9h0.7c0,0.3,0.2,0.6,0.4,0.8c0.2,0.2,0.6,0.4,1.1,0.4
			c0.4,0,0.8-0.1,1.1-0.3s0.4-0.5,0.4-0.9c0-0.3-0.1-0.5-0.2-0.7s-0.3-0.3-0.5-0.4c-0.2-0.1-0.5-0.2-0.9-0.3
			c-0.4-0.1-0.8-0.2-1.1-0.3c-0.3-0.1-0.5-0.3-0.7-0.5c-0.2-0.2-0.3-0.6-0.3-1c0-0.3,0.1-0.7,0.3-0.9c0.2-0.3,0.4-0.5,0.8-0.6
			s0.7-0.2,1.1-0.2c0.6,0,1.1,0.2,1.5,0.5s0.6,0.7,0.7,1.2h-0.7c0-0.3-0.2-0.5-0.4-0.7c-0.2-0.2-0.6-0.3-1-0.3c-0.4,0-0.7,0.1-1,0.3
			s-0.4,0.5-0.4,0.9c0,0.3,0.1,0.5,0.2,0.7c0.2,0.2,0.3,0.3,0.6,0.4s0.5,0.2,0.9,0.3c0.4,0.1,0.8,0.2,1.1,0.4
			c0.3,0.1,0.5,0.3,0.7,0.5c0.2,0.2,0.3,0.6,0.3,1c0,0.3-0.1,0.6-0.2,0.9s-0.4,0.5-0.7,0.7c-0.3,0.2-0.7,0.3-1.2,0.3
			C95.3,41.7,94.9,41.7,94.6,41.5z"/>
		<path class="st1" d="M104.6,35.5V38h2.5v0.5h-2.5v2.5h2.8v0.5H104V35h3.5v0.5L104.6,35.5L104.6,35.5z"/>
		<path class="st1" d="M120,35.1v6.6h-0.7v-5.2l-2.3,5.2h-0.5l-2.3-5.2v5.2h-0.7v-6.6h0.7l2.5,5.7l2.5-5.7H120z"/>
		<path class="st1" d="M137.3,35v0.5h-2.9V38h2.5v0.5h-2.5v3.1h-0.7V35H137.3z"/>
		<path class="st1" d="M146.7,41.7l-1.6-2.8h-1.2v2.8h-0.7V35h2c0.7,0,1.3,0.2,1.7,0.5c0.4,0.4,0.6,0.8,0.6,1.4
			c0,0.5-0.1,0.9-0.4,1.2c-0.3,0.3-0.7,0.6-1.2,0.7l1.7,2.8L146.7,41.7L146.7,41.7z M143.8,38.3h1.3c0.5,0,0.9-0.1,1.2-0.4
			c0.3-0.2,0.4-0.6,0.4-1c0-0.4-0.1-0.8-0.4-1s-0.6-0.4-1.2-0.4h-1.3L143.8,38.3L143.8,38.3z"/>
		<path class="st1" d="M154.8,41.3c-0.5-0.3-0.9-0.7-1.2-1.2c-0.3-0.5-0.4-1.1-0.4-1.8s0.1-1.2,0.4-1.8s0.7-0.9,1.2-1.2
			c0.5-0.3,1.1-0.4,1.7-0.4s1.2,0.1,1.7,0.4c0.5,0.3,0.9,0.7,1.2,1.2c0.3,0.5,0.4,1.1,0.4,1.8s-0.1,1.2-0.4,1.8
			c-0.3,0.5-0.7,0.9-1.2,1.2s-1.1,0.4-1.7,0.4C155.9,41.7,155.3,41.6,154.8,41.3z M157.8,40.8c0.4-0.2,0.7-0.6,0.9-1
			s0.3-0.9,0.3-1.5s-0.1-1.1-0.3-1.5s-0.5-0.8-0.9-1s-0.8-0.3-1.3-0.3s-0.9,0.1-1.3,0.3s-0.7,0.6-0.9,1s-0.3,0.9-0.3,1.5
			s0.1,1.1,0.3,1.5s0.5,0.8,0.9,1c0.4,0.2,0.8,0.3,1.3,0.3S157.4,41,157.8,40.8z"/>
		<path class="st1" d="M170.8,41.7h-0.7l-3.7-5.6v5.6h-0.7V35h0.7l3.7,5.6V35h0.7V41.7z"/>
		<path class="st1" d="M180.9,35v0.5h-1.9v6.1h-0.7v-6.1h-1.9V35H180.9z"/>
		<path class="st1" d="M187.4,35.5V38h2.5v0.5h-2.5v2.5h2.8v0.5h-3.5V35h3.5v0.5L187.4,35.5L187.4,35.5z"/>
		<path class="st1" d="M197,35v6.7h-0.7V35H197z"/>
		<path class="st1" d="M206.8,41.7l-1.6-2.8h-1.2v2.8h-0.7V35h2c0.7,0,1.3,0.2,1.7,0.5c0.4,0.4,0.6,0.8,0.6,1.4
			c0,0.5-0.1,0.9-0.4,1.2c-0.3,0.3-0.7,0.6-1.2,0.7l1.7,2.8L206.8,41.7L206.8,41.7z M203.9,38.3h1.3c0.5,0,0.9-0.1,1.2-0.4
			c0.3-0.2,0.4-0.6,0.4-1c0-0.4-0.1-0.8-0.4-1s-0.6-0.4-1.2-0.4h-1.3L203.9,38.3L203.9,38.3z"/>
		<path class="st1" d="M217.5,40.1h-3l-0.6,1.6h-0.7l2.4-6.6h0.8l2.4,6.6h-0.7L217.5,40.1z M217.3,39.5l-1.3-3.6l-1.3,3.6H217.3z"/>
		<path class="st1" d="M225.4,41.5c-0.3-0.2-0.6-0.4-0.8-0.6c-0.2-0.3-0.3-0.6-0.3-0.9h0.7c0,0.3,0.2,0.6,0.4,0.8
			c0.2,0.2,0.6,0.4,1.1,0.4c0.4,0,0.8-0.1,1.1-0.3c0.3-0.2,0.4-0.5,0.4-0.9c0-0.3-0.1-0.5-0.2-0.7s-0.3-0.3-0.5-0.4
			c-0.2-0.1-0.5-0.2-0.9-0.3c-0.4-0.1-0.8-0.2-1.1-0.3c-0.3-0.1-0.5-0.3-0.7-0.5c-0.2-0.2-0.3-0.6-0.3-1c0-0.3,0.1-0.7,0.3-0.9
			c0.2-0.3,0.4-0.5,0.8-0.6s0.7-0.2,1.1-0.2c0.6,0,1.1,0.2,1.5,0.5s0.6,0.7,0.6,1.2H228c0-0.3-0.2-0.5-0.4-0.7
			c-0.2-0.2-0.6-0.3-1-0.3c-0.4,0-0.7,0.1-1,0.3s-0.4,0.5-0.4,0.9c0,0.3,0.1,0.5,0.2,0.7c0.1,0.2,0.3,0.3,0.6,0.4s0.5,0.2,0.9,0.3
			c0.4,0.1,0.8,0.2,1.1,0.4s0.5,0.3,0.7,0.5c0.2,0.2,0.3,0.6,0.3,1c0,0.3-0.1,0.6-0.2,0.9c-0.2,0.3-0.4,0.5-0.7,0.7
			c-0.3,0.2-0.7,0.3-1.2,0.3C226.2,41.7,225.8,41.7,225.4,41.5z"/>
	</g>
</g>
</svg>
